<?xml version="1.0" standalone="no"?>
<!DOCTYPE svg PUBLIC "-//W3C//DTD SVG 20010904//EN"
 "http://www.w3.org/TR/2001/REC-SVG-20010904/DTD/svg10.dtd">
<svg version="1.0" xmlns="http://www.w3.org/2000/svg"
 width="145.000000pt" height="145.000000pt" viewBox="0 0 145.000000 145.000000"
 preserveAspectRatio="xMidYMid meet">
<metadata>
Created by potrace 1.14, written by Peter Selinger 2001-2017
</metadata>
<g transform="translate(0.000000,145.000000) scale(0.100000,-0.100000)"
fill="#000000" stroke="none">
<path d="M553 1433 c-3 -8 -22 -13 -49 -13 -24 0 -44 -4 -44 -10 0 -5 8 -7 18
-3 9 3 14 2 9 -2 -7 -8 -28 -12 -69 -14 -10 -1 -18 -5 -18 -11 0 -5 8 -7 18
-4 14 5 15 4 2 -5 -8 -6 -30 -11 -47 -11 -18 0 -33 -5 -33 -11 0 -6 7 -8 16
-5 8 3 12 2 9 -4 -3 -6 -17 -10 -31 -10 -15 0 -24 -6 -24 -15 0 -9 -9 -15 -21
-15 -15 0 -19 -5 -15 -16 3 -8 2 -13 -3 -9 -5 3 -20 1 -33 -4 -21 -9 -21 -10
-3 -11 18 -1 17 -2 -5 -14 -14 -8 -29 -12 -35 -8 -5 3 -3 -3 5 -14 8 -10 11
-16 6 -12 -12 10 -48 -11 -41 -23 4 -5 2 -9 -4 -9 -6 0 -7 -7 -4 -17 4 -11 3
-14 -5 -9 -14 8 -33 -33 -24 -49 3 -5 -2 -3 -12 4 -16 13 -18 13 -16 0 5 -31
-1 -49 -14 -49 -9 0 -16 -12 -18 -32 -2 -18 -8 -32 -14 -31 -9 2 -16 -39 -16
-102 0 -11 -2 -14 -5 -7 -10 27 -20 9 -22 -43 l-2 -55 330 0 331 0 0 330 0
329 -56 -1 c-36 -1 -58 -7 -61 -15z m22 -3 c3 -5 1 -10 -4 -10 -6 0 -11 5 -11
10 0 6 2 10 4 10 3 0 8 -4 11 -10z m-385 -240 c0 -5 -2 -10 -4 -10 -3 0 -8 5
-11 10 -3 6 -1 10 4 10 6 0 11 -4 11 -10z m-156 -336 c3 -8 2 -12 -4 -9 -6 3
-10 10 -10 16 0 14 7 11 14 -7z"/>
<path d="M790 1121 l0 -331 330 0 330 0 0 31 c0 21 -4 28 -12 23 -10 -6 -10
-4 0 7 16 17 15 29 -1 29 -12 0 -16 22 -20 107 0 6 -6 9 -14 6 -9 -4 -13 5
-13 30 0 22 -6 37 -15 41 -8 3 -15 15 -15 26 0 11 -6 23 -14 26 -8 3 -16 15
-19 26 -3 11 -10 17 -16 13 -6 -3 -12 1 -12 9 -3 35 -5 41 -17 38 -7 -1 -12 2
-12 8 0 5 -8 7 -17 3 -15 -5 -14 -3 2 11 11 9 15 15 8 14 -6 -2 -19 6 -27 17
l-16 20 6 -20 c3 -11 -4 -4 -16 15 -12 19 -19 26 -16 15 6 -19 5 -19 -8 -2 -7
9 -18 17 -25 17 -6 0 -11 6 -11 14 0 7 -9 16 -21 19 -12 3 -18 10 -14 17 4 6
1 11 -6 9 -8 -1 -25 -1 -38 0 -19 1 -21 4 -11 15 9 12 8 15 -7 15 -32 0 -73 8
-81 16 -4 5 2 5 13 1 13 -5 17 -4 10 3 -5 5 -28 11 -50 13 -22 2 -39 8 -38 14
1 6 -4 11 -12 11 -7 0 -11 -7 -8 -16 4 -14 3 -14 -9 -1 -7 9 -30 17 -50 19
l-38 3 0 -331z"/>
<path d="M1435 900 c3 -5 8 -10 11 -10 2 0 4 5 4 10 0 6 -5 10 -11 10 -5 0 -7
-4 -4 -10z"/>
<path d="M10 626 c0 -30 5 -46 15 -50 8 -3 15 -9 14 -13 -5 -32 4 -84 16 -97
8 -8 15 -26 15 -40 0 -16 6 -26 15 -26 8 0 15 -7 15 -15 0 -7 8 -19 18 -25 16
-11 16 -11 0 -6 -10 3 -18 1 -18 -4 0 -6 7 -10 15 -10 8 0 15 -6 15 -14 0 -8
7 -17 16 -20 8 -3 13 -10 9 -15 -3 -5 -1 -12 5 -16 6 -4 8 -11 4 -16 -3 -5 -2
-9 3 -8 4 1 11 0 16 -1 4 -1 13 -3 19 -4 7 0 14 -10 16 -21 2 -11 9 -24 14
-30 8 -7 9 -6 4 3 -4 6 -5 12 -2 12 3 0 13 -12 21 -27 10 -17 14 -20 11 -8
l-6 20 16 -20 c8 -11 20 -19 25 -17 5 1 9 -5 9 -13 0 -8 9 -15 20 -15 14 0 18
-5 13 -18 -6 -15 -5 -16 12 -2 11 9 16 10 11 3 -5 -9 1 -13 20 -13 23 0 25 -2
13 -16 -11 -13 -11 -15 2 -14 37 6 68 -1 64 -12 -4 -9 8 -14 37 -16 24 -2 47
-10 55 -20 12 -14 14 -14 10 -1 -3 9 1 16 9 16 8 0 13 -6 10 -14 -4 -10 6 -13
39 -13 l45 0 0 330 0 330 -330 0 -330 0 0 -44z m27 -28 c-3 -8 -6 -5 -6 6 -1
11 2 17 5 13 3 -3 4 -12 1 -19z m153 -328 c0 -5 -2 -10 -4 -10 -3 0 -8 5 -11
10 -3 6 -1 10 4 10 6 0 11 -4 11 -10z"/>
<path d="M790 340 l0 -330 59 3 c32 1 57 5 54 10 -2 4 -10 4 -16 1 -7 -4 -8
-3 -4 2 10 10 14 11 63 13 19 0 33 5 29 10 -3 5 0 13 6 17 7 4 9 3 5 -4 -3 -6
-2 -13 4 -17 5 -3 10 1 10 9 0 11 9 16 30 16 20 0 30 5 30 15 0 9 9 15 21 15
12 0 27 7 33 15 6 9 21 17 33 18 17 1 19 4 11 14 -8 10 -5 13 13 14 13 1 28 1
32 0 5 -1 6 3 2 9 -3 6 -12 7 -18 4 -7 -4 -8 -3 -4 2 5 5 14 9 20 9 7 0 12 7
12 15 1 8 6 14 13 12 7 -1 12 3 12 9 0 5 5 7 10 4 11 -7 30 34 23 50 -2 6 3 1
12 -10 12 -14 16 -16 15 -5 -5 31 0 50 12 48 7 -2 14 7 16 19 2 12 10 27 18
33 8 7 14 19 14 26 0 8 8 14 18 14 14 0 15 2 2 10 -10 6 -11 10 -2 10 6 0 12
7 12 16 0 9 7 22 15 28 9 7 16 31 17 64 1 30 4 49 6 43 6 -18 18 -12 19 9 1
11 -2 18 -8 15 -5 -4 -9 -1 -9 4 0 6 5 11 10 11 6 0 10 14 10 30 l0 30 -330 0
-330 0 0 -330z"/>
<path d="M1345 350 c-3 -5 -1 -10 4 -10 6 0 11 5 11 10 0 6 -2 10 -4 10 -3 0
-8 -4 -11 -10z"/>
<path d="M195 230 c-3 -5 -1 -10 4 -10 6 0 11 5 11 10 0 6 -2 10 -4 10 -3 0
-8 -4 -11 -10z"/>
</g>
</svg>
