<svg id="グループ_4048" data-name="グループ 4048" xmlns="http://www.w3.org/2000/svg" xmlns:xlink="http://www.w3.org/1999/xlink" width="30" height="30" viewBox="0 0 30 30">
  <defs>
    <clipPath id="clip-path">
      <rect id="長方形_23269" data-name="長方形 23269" width="30" height="30" fill="none"/>
    </clipPath>
  </defs>
  <g id="グループ_4047" data-name="グループ 4047" clip-path="url(#clip-path)">
    <path id="パス_12065" data-name="パス 12065" d="M30,15A15,15,0,1,0,12.656,29.818V19.336H8.848V15h3.809V11.7c0-3.759,2.239-5.836,5.666-5.836a23.067,23.067,0,0,1,3.358.293V9.844H19.788a2.168,2.168,0,0,0-2.444,2.342V15H21.5l-.665,4.336h-3.5V29.818A15,15,0,0,0,30,15" fill="#1877f2"/>
    <path id="パス_12066" data-name="パス 12066" d="M313.991,213.477l.665-4.336H310.5v-2.814a2.168,2.168,0,0,1,2.444-2.342h1.891v-3.691a23.066,23.066,0,0,0-3.358-.293c-3.426,0-5.666,2.077-5.666,5.836v3.3H302v4.336h3.809v10.482a15.159,15.159,0,0,0,4.688,0V213.477Z" transform="translate(-293.152 -194.141)" fill="#fff"/>
  </g>
</svg>
