<svg xmlns="http://www.w3.org/2000/svg" width="17" height="14" viewBox="0 0 17 14">
  <g id="Icon_feather-mail" data-name="Icon feather-mail" transform="translate(1 1)">
    <path id="パス_5766" data-name="パス 5766" d="M4.5,5h12A2.5,2.5,0,0,1,19,7.5v9A2.5,2.5,0,0,1,16.5,19H4.5A2.5,2.5,0,0,1,2,16.5v-9A2.5,2.5,0,0,1,4.5,5Zm12,12a.507.507,0,0,0,.5-.5v-9a.507.507,0,0,0-.5-.5H4.5a.507.507,0,0,0-.5.5v9a.507.507,0,0,0,.5.5Z" transform="translate(-3 -6)" fill="#fff"/>
    <path id="パス_5767" data-name="パス 5767" d="M10.5,15.25a1,1,0,0,1-.573-.181l-7.5-5.25A1,1,0,0,1,3.573,8.181L10.5,13.029l6.927-4.849a1,1,0,0,1,1.147,1.638l-7.5,5.25A1,1,0,0,1,10.5,15.25Z" transform="translate(-3 -7.5)" fill="#fff"/>
  </g>
</svg>
