<svg xmlns="http://www.w3.org/2000/svg" width="16.064" height="18.359" viewBox="0 0 16.064 18.359">
  <g id="Icon_feather-mail" data-name="Icon feather-mail" transform="translate(-0.321 4.429)">
    <path id="Icon_awesome-calculator" data-name="Icon awesome-calculator" d="M14.343,0H1.721A1.765,1.765,0,0,0,0,1.721V16.638a1.765,1.765,0,0,0,1.721,1.721H14.343a1.765,1.765,0,0,0,1.721-1.721V1.721A1.765,1.765,0,0,0,14.343,0ZM4.59,15.6a.494.494,0,0,1-.459.459H2.754a.494.494,0,0,1-.459-.459V14.228a.494.494,0,0,1,.459-.459H4.131a.494.494,0,0,1,.459.459Zm0-4.59a.494.494,0,0,1-.459.459H2.754a.494.494,0,0,1-.459-.459V9.638a.494.494,0,0,1,.459-.459H4.131a.494.494,0,0,1,.459.459Zm4.59,4.59a.494.494,0,0,1-.459.459H7.344a.494.494,0,0,1-.459-.459V14.228a.494.494,0,0,1,.459-.459H8.72a.494.494,0,0,1,.459.459Zm0-4.59a.494.494,0,0,1-.459.459H7.344a.494.494,0,0,1-.459-.459V9.638a.494.494,0,0,1,.459-.459H8.72a.494.494,0,0,1,.459.459Zm4.59,4.59a.494.494,0,0,1-.459.459H11.933a.494.494,0,0,1-.459-.459V9.638a.494.494,0,0,1,.459-.459H13.31a.494.494,0,0,1,.459.459V15.6Zm0-9.179a.494.494,0,0,1-.459.459H2.754a.494.494,0,0,1-.459-.459V2.754a.494.494,0,0,1,.459-.459H13.31a.494.494,0,0,1,.459.459Z" transform="translate(0.321 -4.429)" fill="#fff"/>
  </g>
</svg>
