<svg id="Twitter_social_icons_-_circle_-_blue" data-name="Twitter social icons - circle - blue" xmlns="http://www.w3.org/2000/svg" width="30" height="30" viewBox="0 0 30 30">
  <g id="Dark_Blue">
    <circle id="楕円形_137" data-name="楕円形 137" cx="15" cy="15" r="15" fill="#1b9df0"/>
  </g>
  <g id="Logo__x2014__FIXED" transform="translate(6.751 8.618)">
    <path id="パス_12064" data-name="パス 12064" d="M95.247,128.875a10.257,10.257,0,0,0,10.326-10.326c0-.158,0-.316-.008-.467a7.435,7.435,0,0,0,1.814-1.882,7.366,7.366,0,0,1-2.085.572,3.627,3.627,0,0,0,1.6-2.01,7.35,7.35,0,0,1-2.3.881,3.631,3.631,0,0,0-6.277,2.484,3.326,3.326,0,0,0,.1.828,10.3,10.3,0,0,1-7.481-3.793A3.627,3.627,0,0,0,92.056,120a3.565,3.565,0,0,1-1.641-.452v.045a3.633,3.633,0,0,0,2.913,3.56,3.618,3.618,0,0,1-.956.128,3.464,3.464,0,0,1-.685-.068,3.624,3.624,0,0,0,3.387,2.521,7.3,7.3,0,0,1-4.508,1.55,6.6,6.6,0,0,1-.866-.053,10.111,10.111,0,0,0,5.547,1.641" transform="translate(-89.7 -114.5)" fill="#fff"/>
  </g>
</svg>
