<svg xmlns="http://www.w3.org/2000/svg" xmlns:xlink="http://www.w3.org/1999/xlink" viewBox="0 0 303.06 57.38"><defs><style>.cls-1{fill:#00aeeb;}.cls-2{fill:#fff23f;}.cls-3{fill:#3554a3;}.cls-12,.cls-4{fill:#e62719;}.cls-5{fill:#323333;}.cls-6{fill:url(#radial-gradient);}.cls-7{fill:url(#radial-gradient-2);}.cls-8{fill:url(#radial-gradient-3);}.cls-9{fill:url(#radial-gradient-4);}.cls-10,.cls-14{fill:#fff;}.cls-11{fill:#231815;}.cls-12{font-size:11.09px;font-family:Nobel-Black;}.cls-12,.cls-14{font-weight:800;}.cls-13{fill:#3854a3;}.cls-14{font-size:4.35px;font-family:AbadiMT-CondensedExtraBold, Abadi MT Condensed Extra Bold;}</style><radialGradient id="radial-gradient" cx="869.76" cy="-45537.03" r="33.15" gradientTransform="translate(-160.28 3556.3) scale(0.39 0.08)" gradientUnits="userSpaceOnUse"><stop offset="0.04" stop-color="#8f9090"/><stop offset="0.33" stop-color="#ababab"/><stop offset="0.48" stop-color="#bababa"/><stop offset="0.93" stop-color="#efefef"/></radialGradient><radialGradient id="radial-gradient-2" cx="955.57" cy="-45532.75" r="33.15" xlink:href="#radial-gradient"/><radialGradient id="radial-gradient-3" cx="1054" cy="-45532.75" r="33.15" xlink:href="#radial-gradient"/><radialGradient id="radial-gradient-4" cx="1152.43" cy="-45532.75" r="33.15" xlink:href="#radial-gradient"/></defs><title>アセット 1</title><g id="レイヤー_2" data-name="レイヤー 2"><g id="レイヤー_1-2" data-name="レイヤー 1"><path class="cls-1" d="M29.25,29.7l-.09-.64h0a14.57,14.57,0,0,0-1.76-4.83h0l-.32-.52,0,0c-.11-.17-.22-.34-.34-.51v0a15,15,0,0,0-3.56-3.55h0l-.52-.34,0,0-.53-.32h0a14.86,14.86,0,0,0-4.18-1.64l-.66-.13h0l-.65-.1h0L15.89,17h0V30.38H29.32c0-.22,0-.44-.07-.66Z"/><path class="cls-2" d="M12.78,17h0l-.64.1h0a14.67,14.67,0,0,0-4.83,1.77h0c-.18.1-.35.21-.53.33h0l-.51.34h0c-.34.24-.67.49-1,.76L5,20.57a14.49,14.49,0,0,0-2.31,2.57h0l-.34.51a0,0,0,0,1,0,0A14.94,14.94,0,0,0,.72,26.9v0a14.83,14.83,0,0,0-.54,2.11h0c0,.21-.07.43-.1.64v0c0,.22,0,.44-.07.66H13.44V17h0Z"/><path class="cls-3" d="M.07,33.5h0A14.48,14.48,0,0,0,.5,35.59a14.63,14.63,0,0,0,1.76,3.95l0,0c.11.18.22.35.34.52h0a15.66,15.66,0,0,0,2.31,2.57l.27.23c.32.27.64.52,1,.76h0l.52.34h0a5.84,5.84,0,0,0,.53.33h0a14.47,14.47,0,0,0,3.56,1.48c.42.12.85.21,1.28.29h0l.64.1h0l.66.07h0V32.84H0C0,33.06,0,33.28.07,33.5Z"/><path class="cls-4" d="M15.89,46.28h0l.65-.07h0l.65-.1h0a14.64,14.64,0,0,0,4.84-1.77h0q.27-.15.54-.33h0l.51-.34h0a14.86,14.86,0,0,0,3.56-3.56h0c.12-.17.24-.34.35-.52a0,0,0,0,1,0,0l.33-.53h0a14.58,14.58,0,0,0,1.86-5.5h0c0-.22,0-.44.06-.66H15.89Z"/><path class="cls-5" d="M59.39,40.73a6.15,6.15,0,0,1,5.21-6.2,8,8,0,0,1,2.08,0A6.25,6.25,0,0,1,72,40.73a6.33,6.33,0,0,1-6.29,6.68C62.22,47.41,59.39,44.9,59.39,40.73Zm1.48.06c0,3.22,2.12,5.26,4.88,5.26s4.83-2,4.83-5.26a4.84,4.84,0,0,0-4.08-4.94,6.12,6.12,0,0,0-1.71,0A4.65,4.65,0,0,0,60.87,40.79Z"/><path class="cls-5" d="M88.14,35a.74.74,0,0,1,1.47,0V46.7a.74.74,0,0,1-1.47,0Z"/><path class="cls-5" d="M125,45l4.26-8.73a.78.78,0,0,1,1.38,0L134.87,45l4.37-10.13a.77.77,0,0,1,1.44.55L135.53,47a.72.72,0,0,1-1.33,0l-4.3-8.88L125.58,47a.77.77,0,0,1-1.37,0L119.1,35.45c-.31-.88,1.12-1.39,1.45-.55Z"/><path class="cls-5" d="M103,35.94v6.19l.2,3L95.66,35a.84.84,0,0,0-1.59.41v10.9h1.49V39.71L95.4,37l7.35,9.84c.41.69,1.76.59,1.76-.39V35.94Z"/><path class="cls-5" d="M119.35,47.35l-5.86-11.54a.74.74,0,0,0-1.28,0l-5.86,11.54h1.59l2.34-4.55h5.15l2.32,4.55Zm-8.53-5.76,2-4.05,2,4.05Z"/><path class="cls-5" d="M84.86,46.15l-5.58-5.81,5.21-4.61c.7-.63-.28-1.67-1-1L78.1,39.54l-1.9,1.92v-4H74.77v8.2H76.2v-2.6l2.08-1.82,5.54,5.85C84.54,47.78,85.6,47,84.86,46.15Z"/><path class="cls-5" d="M153.41,47.35l-5.86-11.54a.74.74,0,0,0-1.28,0l-5.86,11.54H142l2.34-4.55h5.15l2.32,4.55Zm-8.53-5.76,2-4.05,2,4.05Z"/><path class="cls-5" d="M111.73,21.76l4.71-4.71a.76.76,0,0,0,.22-.54.79.79,0,0,0-.22-.54.78.78,0,0,0-1.08,0l-4.71,4.71L108,18a.73.73,0,0,0-.54-.23.77.77,0,0,0-.54,1.31l2.7,2.7-4.7,4.7a.75.75,0,0,0,0,1.08.76.76,0,0,0,1.08,0l4.7-4.7,6.71,6.7a.74.74,0,0,0,.54.23h0a.74.74,0,0,0,.54-.23.76.76,0,0,0,0-1.08Z"/><path class="cls-5" d="M120.49,19.22h6.42a.8.8,0,0,0,0-1.6h-6.42a.8.8,0,1,0,0,1.6Z"/><path class="cls-5" d="M132.35,20.91h-13a.8.8,0,0,0,0,1.59h5.69V29a.8.8,0,1,0,1.6,0V22.5h5.68a.8.8,0,1,0,0-1.59Z"/><path class="cls-5" d="M129.64,19.24a.79.79,0,1,0-.79-.79A.8.8,0,0,0,129.64,19.24Z"/><path class="cls-5" d="M132.36,19.24a.79.79,0,1,0-.79-.79A.8.8,0,0,0,132.36,19.24Z"/><path class="cls-5" d="M138,22.38l-4.3,4.3,1.13,1.13,1.66-1.65V29a.8.8,0,1,0,1.6,0V24.56l1-1a.82.82,0,0,0,0-1.14A.8.8,0,0,0,138,22.38Z"/><path class="cls-5" d="M152.61,17.72h-13a.8.8,0,1,0,0,1.59h11.1l-3,3,1.13,1.13,4.3-4.29a.81.81,0,0,0,.23-.61h0v0A.79.79,0,0,0,152.61,17.72Z"/><path class="cls-5" d="M146,22.89a.8.8,0,0,0-.8.8v6.08h1.6V23.69A.8.8,0,0,0,146,22.89Z"/><path class="cls-5" d="M71.69,18.44h0l-.16,0h-13a.8.8,0,0,0-.8.8v8.66a.8.8,0,0,0,.8.77H65a.79.79,0,0,0,.79-.8V20h5V30.4h1.6V19.22A.79.79,0,0,0,71.69,18.44Zm-7.5,8.61H59.37V20h4.82Z"/><path class="cls-5" d="M94.24,27.05H88.62V19.23a.8.8,0,0,0-1.6,0v8.62a.8.8,0,0,0,.8.8h6.42a.8.8,0,0,0,0-1.6Z"/><path class="cls-5" d="M100.78,26.65a.8.8,0,0,0,.8-.8v-10H100v10A.8.8,0,0,0,100.78,26.65Z"/><path class="cls-5" d="M77,15.93h-1.6V27.85a.85.85,0,0,0,0,.26.82.82,0,0,0,.59.52l.16,0H84v-1.6H77Z"/><path class="cls-5" d="M47.83,23.53a.8.8,0,0,0,.8.8h6.08v-1.6H48.63A.8.8,0,0,0,47.83,23.53Z"/><path class="cls-5" d="M46.25,27.85a.79.79,0,0,0,.79.8h7.67v-1.6H47A.79.79,0,0,0,46.25,27.85Z"/><path class="cls-5" d="M50.94,19.22a.8.8,0,0,0-.8-.8H46.47L47,16.89a.8.8,0,1,0-1.5-.55l-.76,2.08H36.2c-.35.52-.69,1-1,1.6h9L40.39,30.4h1.7L45.89,20h4.25A.8.8,0,0,0,50.94,19.22Z"/><path class="cls-6" d="M192.59,54.5c0,1.41-5.81,2.55-13,2.55s-13-1.14-13-2.55,5.81-2.55,13-2.55S192.59,53.1,192.59,54.5Z"/><path class="cls-4" d="M194.93,52.28a2.74,2.74,0,1,1-2.74-2.75A2.74,2.74,0,0,1,194.93,52.28Z"/><polygon class="cls-2" points="186.63 51.1 188.64 51.42 192.23 48.26 193.48 55.32 191.91 54.66 186.53 52.13 186.63 51.1"/><path class="cls-7" d="M226.12,54.83c0,1.41-5.8,2.55-13,2.55s-13-1.14-13-2.55,5.8-2.55,13-2.55S226.12,53.43,226.12,54.83Z"/><path class="cls-8" d="M264.59,54.83c0,1.41-5.8,2.55-13,2.55s-13-1.14-13-2.55,5.8-2.55,13-2.55S264.59,53.43,264.59,54.83Z"/><path class="cls-9" d="M303.06,54.83c0,1.41-5.81,2.55-13,2.55s-13-1.14-13-2.55,5.81-2.55,13-2.55S303.06,53.43,303.06,54.83Z"/><path class="cls-2" d="M227.49,31.75a14.33,14.33,0,1,1-14.33-14.33A14.33,14.33,0,0,1,227.49,31.75Z"/><rect class="cls-2" x="207.63" y="9.69" width="1.76" height="9.69" transform="translate(0.31 33) rotate(-9.05)"/><path class="cls-4" d="M211.17,9.58a3.23,3.23,0,1,1-3.53-2.89A3.22,3.22,0,0,1,211.17,9.58Z"/><polygon class="cls-4" points="210.84 0 207.38 5.77 210.68 6.73 210.84 0"/><polygon class="cls-4" points="205.09 19.81 208.55 14.04 205.24 13.07 205.09 19.81"/><polygon class="cls-4" points="217.77 6.72 211.06 7.1 212.12 10.37 217.77 6.72"/><polygon class="cls-4" points="198.15 13.08 204.87 12.71 203.81 9.43 198.15 13.08"/><polygon class="cls-4" points="215.59 16.84 211.94 11.2 209.62 13.74 215.59 16.84"/><polygon class="cls-4" points="200.33 2.97 203.99 8.61 206.31 6.07 200.33 2.97"/><path class="cls-1" d="M203.08,34.82a2.92,2.92,0,0,0,3.39,2.37l17.63-3.07a2.92,2.92,0,0,0,2.39-3.37L225,22.39a2.93,2.93,0,0,0-3.4-2.37L204,23.09a2.92,2.92,0,0,0-2.39,3.38Z"/><path class="cls-10" d="M212.07,29.05c.2,2.69-1.28,5-3.31,5.15s-3.84-1.9-4-4.59,1.27-5,3.3-5.15S211.86,26.36,212.07,29.05Z"/><path class="cls-4" d="M204.17,29.65c0-.18,0-.36,0-.54h0c0-2.66,1.53-5,3.83-5.2h.26c2.34,0,4.15,2.32,4.37,5.11h0l-.54,0,.54,0c0,.18,0,.36,0,.53h0c0,2.66-1.53,5-3.83,5.21h-.25c-2.35,0-4.16-2.32-4.38-5.11ZM208.24,25h-.18c-1.5.08-2.82,1.82-2.82,4.11h0c0,.15,0,.3,0,.46h0c.18,2.4,1.75,4.13,3.29,4.1h.17c1.5-.09,2.82-1.83,2.82-4.12h0a3.39,3.39,0,0,0,0-.45h0c-.18-2.38-1.72-4.1-3.24-4.1h0Z"/><path class="cls-11" d="M211.35,29.27c.13,1.65-.56,3.05-1.53,3.12s-1.87-1.2-2-2.85.56-3.06,1.53-3.13S211.23,27.62,211.35,29.27Z"/><path class="cls-10" d="M223.79,26.81c.21,2.7-1.27,5-3.3,5.16s-3.84-1.91-4-4.6,1.27-5,3.3-5.15S223.59,24.12,223.79,26.81Z"/><path class="cls-4" d="M215.9,27.41c0-.18,0-.36,0-.53h0c0-2.66,1.53-5,3.83-5.2H220c2.35,0,4.16,2.31,4.38,5.1h0l-.55,0,.55,0c0,.18,0,.36,0,.54h0c0,2.66-1.53,5-3.83,5.2h-.26c-2.34,0-4.15-2.32-4.37-5.11ZM220,22.75h-.17c-1.5.09-2.82,1.82-2.82,4.12h0c0,.15,0,.3,0,.45h0c.18,2.4,1.75,4.13,3.28,4.1h.18c1.5-.08,2.82-1.82,2.82-4.11h0c0-.15,0-.3,0-.45h0c-.18-2.39-1.72-4.11-3.25-4.11h0Z"/><path class="cls-11" d="M223.08,27c.13,1.65-.56,3-1.54,3.13s-1.86-1.21-2-2.86.57-3.05,1.54-3.13S223,25.38,223.08,27Z"/><text class="cls-12" transform="translate(214.34 41.86)">3</text><path class="cls-2" d="M221,50.74c0,.42-1,.75-2.32.75H207.89c-1.28,0-2.32-.33-2.32-.75V44.81c0-.42,1-.76,2.32-.76h10.83c1.28,0,2.32.34,2.32.76Z"/><path class="cls-4" d="M210.17,52.28a2.74,2.74,0,1,1-2.74-2.75A2.74,2.74,0,0,1,210.17,52.28Z"/><path class="cls-4" d="M221.92,52.28a2.74,2.74,0,1,1-2.74-2.75A2.74,2.74,0,0,1,221.92,52.28Z"/><path class="cls-2" d="M207.77,46.06a.88.88,0,0,1-.88.88h-7.35a.88.88,0,0,1-.88-.88h0a.88.88,0,0,1,.88-.88h7.35a.88.88,0,0,1,.88.88Z"/><path class="cls-4" d="M202.87,46.06a2.74,2.74,0,1,1-2.74-2.74A2.74,2.74,0,0,1,202.87,46.06Z"/><path class="cls-2" d="M220.77,46.06a.87.87,0,0,1,.88-.88H229a.87.87,0,0,1,.88.88h0a.87.87,0,0,1-.88.88h-7.34a.87.87,0,0,1-.88-.88Z"/><path class="cls-4" d="M225.66,46.06a2.74,2.74,0,1,1,2.74,2.74A2.74,2.74,0,0,1,225.66,46.06Z"/><path class="cls-10" d="M209.65,50a1.83,1.83,0,0,1-1.75-1.9h0V46.52a1.83,1.83,0,0,1,1.75-1.9h7.15a1.83,1.83,0,0,1,1.75,1.9h0V48.1h0A1.83,1.83,0,0,1,216.8,50h-7.15Zm-1.39-3.48V48.1a1.48,1.48,0,0,0,1.39,1.54h7.15a1.48,1.48,0,0,0,1.39-1.54h0V46.52A1.48,1.48,0,0,0,216.8,45h-7.15a1.48,1.48,0,0,0-1.39,1.54Z"/><path class="cls-11" d="M209,48.8v-.75h1.85v-.4H209V45.81h2.61v.76h-1.85v.34h1.86V48.8Z"/><path class="cls-11" d="M212,48.81v-3h.77V48h1v-2.2h.77v3Z"/><path class="cls-11" d="M216.87,48.8l-1.2-1.6v1.6h-.75v-3h.55l1.24,1.62V45.82h.75v3Z"/><path class="cls-11" d="M295.79,36.53V50.44c0,.1,0,.2,0,.3h1.45c0-.1,0-.2,0-.3V36.53a5.87,5.87,0,0,0-5.87-5.86h-3.17v1.45h3.17A4.41,4.41,0,0,1,295.79,36.53Z"/><polygon class="cls-11" points="298.8 52.54 294.26 52.54 295.54 47.91 297.57 47.91 298.8 52.54"/><polygon class="cls-11" points="277.33 28.42 283.19 33.28 284.84 29.75 277.33 28.42"/><polygon class="cls-11" points="277.22 35.14 284.81 34.44 283.48 30.77 277.22 35.14"/><path class="cls-1" d="M284.76,39c.64,2.12-.9,4.44-3.44,5.2a5.54,5.54,0,0,1-2.51.16,4.17,4.17,0,1,0,5.79-5.79A3.16,3.16,0,0,1,284.76,39Z"/><path class="cls-4" d="M291.92,32.25A4.71,4.71,0,1,1,286.76,28,4.71,4.71,0,0,1,291.92,32.25Z"/><path class="cls-4" d="M290.3,49.78a2.82,2.82,0,0,1-3.07,2.47h0c-1.7,0-3.08-1.11-3.08-2.47V39.07c0-1.37,1.38-2.47,3.08-2.47h0c1.7,0,3.07,1.1,3.07,2.47Z"/><path class="cls-2" d="M286.55,52.52A2.53,2.53,0,1,1,284,50,2.53,2.53,0,0,1,286.55,52.52Z"/><path class="cls-2" d="M293,52.52A2.53,2.53,0,1,1,290.44,50,2.53,2.53,0,0,1,293,52.52Z"/><circle class="cls-2" cx="285.86" cy="31.7" r="1.03"/><polygon class="cls-2" points="284.23 30.36 288.47 30.51 287.99 28.39 284.23 30.36"/><path class="cls-1" d="M299.19,36.89c-.82,3-4.34,4.54-7.86,3.56a7.48,7.48,0,0,1-3.05-1.67,5.76,5.76,0,1,0,11-2.51A4.56,4.56,0,0,1,299.19,36.89Z"/><rect class="cls-10" x="284.66" y="43.24" width="5.15" height="6.17"/><path class="cls-11" d="M289.42,45.7a1.33,1.33,0,1,1-1.33-1.33A1.32,1.32,0,0,1,289.42,45.7Z"/><path class="cls-11" d="M284.93,44.57a.39.39,0,0,1,.11-.27.35.35,0,0,1,.26-.12.4.4,0,0,1,.25.09.7.7,0,0,1,.19.33.66.66,0,0,1,.19-.33.33.33,0,0,1,.24-.1.36.36,0,0,1,.26.11.38.38,0,0,1,.12.28.54.54,0,0,1-.13.34,6.08,6.08,0,0,1-.44.44l-.23.17a4,4,0,0,1-.68-.6A.53.53,0,0,1,284.93,44.57Z"/><polygon class="cls-11" points="285.74 46.96 285.23 47.23 285.33 46.66 284.91 46.26 285.49 46.17 285.74 45.65 286 46.17 286.57 46.26 286.15 46.66 286.25 47.23 285.74 46.96"/><rect class="cls-11" x="285.12" y="47.43" width="0.64" height="1.17"/><rect class="cls-11" x="286.27" y="47.43" width="0.64" height="1.17"/><rect class="cls-11" x="287.42" y="47.43" width="0.64" height="1.17"/><rect class="cls-11" x="288.57" y="47.43" width="0.64" height="1.17"/><path class="cls-4" d="M275.92,32.31a1.86,1.86,0,1,1-1.4-2.23A1.86,1.86,0,0,1,275.92,32.31Z"/><polygon class="cls-4" points="278.84 31.96 274.19 31.34 274.49 33.72 278.84 31.96"/><polygon class="cls-4" points="278.9 31.22 274.35 30.09 274.39 32.56 278.9 31.22"/><path class="cls-2" d="M275,32.07a1,1,0,1,1-.77-1.23A1,1,0,0,1,275,32.07Z"/><polygon class="cls-4" points="171.1 32.73 180.32 40.97 183.21 35.34 171.1 32.73"/><polygon class="cls-4" points="194.92 24.36 186.68 33.57 192.3 36.46 194.92 24.36"/><path class="cls-13" d="M189.14,50.17a3.58,3.58,0,0,1-3.58,3.58h-5.81a3.58,3.58,0,0,1-3.58-3.58h0a3.58,3.58,0,0,1,3.58-3.59h5.81a3.58,3.58,0,0,1,3.58,3.59Z"/><path class="cls-2" d="M177.94,50a.73.73,0,0,1-.72.73h-6.09a.73.73,0,0,1-.73-.73h0a.73.73,0,0,1,.73-.73h6.09a.73.73,0,0,1,.72.73Z"/><circle class="cls-13" cx="187.22" cy="40.75" r="7.17" transform="translate(-0.14 0.65) rotate(-0.2)"/><polygon class="cls-10" points="188.82 38.19 191.7 35.79 190.14 34.68 188.82 38.19"/><polygon class="cls-10" points="181.51 40.84 184.39 38.44 182.83 37.33 181.51 40.84"/><path class="cls-10" d="M192.22,37.78a.87.87,0,1,1-.87-.86A.86.86,0,0,1,192.22,37.78Z"/><path class="cls-10" d="M185.64,39.71a.87.87,0,1,1-.87-.87A.87.87,0,0,1,185.64,39.71Z"/><path class="cls-10" d="M189.81,44.93a4.18,4.18,0,0,1-2,0l0,.13a2,2,0,1,0,3.85-1,.93.93,0,0,0,0-.13A4.07,4.07,0,0,1,189.81,44.93Z"/><path class="cls-4" d="M189.23,53.48A1.54,1.54,0,0,1,187.69,55H177.08a1.55,1.55,0,0,1-1.55-1.54h0a1.55,1.55,0,0,1,1.55-1.55h10.61a1.54,1.54,0,0,1,1.54,1.55Z"/><path class="cls-10" d="M178.87,53.47a1.34,1.34,0,1,1-1.33-1.34A1.34,1.34,0,0,1,178.87,53.47Z"/><path class="cls-10" d="M182,53.47a1.34,1.34,0,1,1-1.33-1.34A1.33,1.33,0,0,1,182,53.47Z"/><path class="cls-10" d="M185.1,53.47a1.34,1.34,0,1,1-1.34-1.34A1.34,1.34,0,0,1,185.1,53.47Z"/><path class="cls-10" d="M188.21,53.47a1.34,1.34,0,1,1-1.34-1.34A1.34,1.34,0,0,1,188.21,53.47Z"/><text class="cls-14" transform="translate(178.53 51.39)">COOL</text><rect class="cls-10" x="182.63" y="42.47" width="13.82" height="0.81" transform="translate(-4.71 48.56) rotate(-14.42)"/><path class="cls-4" d="M191.34,42.68a1.76,1.76,0,1,1-1.76-1.76A1.76,1.76,0,0,1,191.34,42.68Z"/><path class="cls-13" d="M167.14,50.07a.73.73,0,0,1,.73-.73H174a.73.73,0,0,1,.73.73h0a.72.72,0,0,1-.73.73h-6.08a.73.73,0,0,1-.73-.73Z"/><path class="cls-13" d="M168.25,47.41a.72.72,0,0,1,1,0l4.3,4.3a.74.74,0,0,1,0,1h0a.74.74,0,0,1-1,0l-4.3-4.3a.72.72,0,0,1,0-1Z"/><path class="cls-13" d="M173.58,47.41a.74.74,0,0,1,0,1l-4.3,4.3a.74.74,0,0,1-1,0h0a.72.72,0,0,1,0-1l4.3-4.3a.72.72,0,0,1,1,0Z"/><path class="cls-13" d="M170.91,48a.87.87,0,1,1,.86-.87A.87.87,0,0,1,170.91,48Z"/><path class="cls-13" d="M170.91,53.92a.86.86,0,1,1,.86-.86A.86.86,0,0,1,170.91,53.92Z"/><path class="cls-1" d="M189.28,45.21h0l-.17-1.82-1.34,1.24h0a.85.85,0,0,0-.29.4.93.93,0,0,0,.55,1.2.94.94,0,0,0,1.21-.54A.89.89,0,0,0,189.28,45.21Z"/><path class="cls-1" d="M250.42,46.08c0-.34.5-.61,1.12-.61h9.27c.61,0,1.11.27,1.11.61h0c0,.34-.5.62-1.11.62h-9.27c-.62,0-1.12-.28-1.12-.62Z"/><path class="cls-1" d="M249.23,46.08c0,.34-.49.62-1.1.62H239c-.61,0-1.1-.28-1.1-.62h0c0-.34.49-.61,1.1-.61h9.17c.61,0,1.1.27,1.1.61Z"/><polygon class="cls-4" points="247.47 51.28 249.7 51.26 249.75 54.98 248.22 55 247.2 54.23 246.44 55 242.73 55.05 247.47 51.28"/><polygon class="cls-4" points="254.7 51.3 252.47 51.3 252.47 55.02 253.99 55.02 255.01 54.24 255.77 55.01 259.48 55.01 254.7 51.3"/><polygon class="cls-1" points="251.11 52.45 241.23 52.45 246.17 43.89 251.11 35.34 256.05 43.89 260.99 52.45 251.11 52.45"/><path class="cls-1" d="M244.88,44.71a2.9,2.9,0,0,1,.85-2.15,2.75,2.75,0,0,1,2-.9,2.86,2.86,0,0,1,1.9.72,5.46,5.46,0,0,1,1.48,2.5,5.37,5.37,0,0,1,1.43-2.53,2.75,2.75,0,0,1,3.9.1,2.91,2.91,0,0,1,.89,2.13,3.94,3.94,0,0,1-1,2.61,28.33,28.33,0,0,1-3.38,3.38c-.57.46-1.14.92-1.73,1.36A29.74,29.74,0,0,1,246,47.3,4,4,0,0,1,244.88,44.71Z"/><path class="cls-10" d="M251,52.23a30.09,30.09,0,0,1-5.27-4.69h0a4.37,4.37,0,0,1-1.18-2.82h0v-.06h0a3.24,3.24,0,0,1,.95-2.35h0a3.08,3.08,0,0,1,2.25-1h0a3.23,3.23,0,0,1,2.11.81h0a5.28,5.28,0,0,1,1.23,1.73h0a5.08,5.08,0,0,1,1.2-1.76h0a3.06,3.06,0,0,1,2.08-.85h.05a3.13,3.13,0,0,1,2.27,1h0a3.31,3.31,0,0,1,1,2.39h0v0h0a4.44,4.44,0,0,1-1.12,2.82h0a28.39,28.39,0,0,1-3.43,3.42h0c-.57.47-1.15.92-1.74,1.37h0l-.21.16-.22-.15Zm-4.72-5.17a28.62,28.62,0,0,0,4.93,4.42h0l1.49-1.19h0A27.63,27.63,0,0,0,256,47h0a3.66,3.66,0,0,0,1-2.35h0v0h0a2.54,2.54,0,0,0-.79-1.88h0a2.43,2.43,0,0,0-1.75-.75h0a2.38,2.38,0,0,0-1.61.66h0A5.06,5.06,0,0,0,251.46,45h0l-.34,1.14L250.76,45a5.05,5.05,0,0,0-1.37-2.32h0a2.46,2.46,0,0,0-1.63-.64h0a2.39,2.39,0,0,0-1.75.79h0a2.54,2.54,0,0,0-.75,1.85h0v0h0a3.62,3.62,0,0,0,1,2.36Z"/><path class="cls-2" d="M249.09,44.73a.54.54,0,0,1-1.07,0,.54.54,0,1,1,1.07,0Z"/><path class="cls-2" d="M249.09,46a.54.54,0,1,1-.54-.54A.54.54,0,0,1,249.09,46Z"/><rect class="cls-2" x="248.2" y="46.7" width="0.71" height="2.97"/><path class="cls-2" d="M253.64,47.71a2.09,2.09,0,1,1-2.08-2.08A2.08,2.08,0,0,1,253.64,47.71Z"/><polygon class="cls-2" points="249.66 44.93 249.66 44.39 251.93 44.66 254.19 44.93 251.93 45.2 249.66 45.47 249.66 44.93"/><path class="cls-1" d="M251.31,46.93a.54.54,0,1,1-.53-.54A.53.53,0,0,1,251.31,46.93Z"/><path class="cls-1" d="M252.87,46.93a.54.54,0,1,1-.54-.54A.54.54,0,0,1,252.87,46.93Z"/><path class="cls-1" d="M251.31,48.49a.54.54,0,1,1-.53-.54A.53.53,0,0,1,251.31,48.49Z"/><path class="cls-1" d="M252.87,48.49a.54.54,0,1,1-.54-.54A.54.54,0,0,1,252.87,48.49Z"/><path class="cls-1" d="M266.22,33l.11,3.95c0,1.48.33,3,2.46,3a3.59,3.59,0,0,0,1.37-.33c.49-.21.93.32.31.61a3.73,3.73,0,0,1-1.67.38c-2.57.05-3.22-1.69-3.25-3.6l0-3.9"/><path class="cls-1" d="M268.72,40.67h.08a3.89,3.89,0,0,0,1.73-.39h0a.54.54,0,0,0,.37-.46h0a.48.48,0,0,0-.51-.43h0a.61.61,0,0,0-.28.07h0a3.56,3.56,0,0,1-1.32.31h-.06c-2,0-2.24-1.37-2.28-2.84h0L266.33,33h-.24l.12,3.94c0,1.46.35,3.09,2.52,3.07h.06a3.71,3.71,0,0,0,1.43-.34h0a.35.35,0,0,1,.17,0h0c.17,0,.26.11.26.19h0s0,.15-.23.24h0a3.63,3.63,0,0,1-1.61.37h-.09c-2.43,0-3-1.61-3.05-3.48h0l0-3.9h-.24l0,3.9c0,1.9.71,3.73,3.27,3.72h0Z"/><path class="cls-1" d="M266.2,39.58a4.37,4.37,0,0,1-.73-2.63h0l0-3.9h.16l0,3.9a4.3,4.3,0,0,0,.69,2.53h0a2.83,2.83,0,0,0,2.48,1h0a3.72,3.72,0,0,0,1.64-.36h0l.15-.1h0c.13-.12.12-.21.06-.29h0a.36.36,0,0,0-.45-.07h0a3.85,3.85,0,0,1-1.41.34h0a2.22,2.22,0,0,1-2-.79h0a3.82,3.82,0,0,1-.57-2.25h0L266.13,33h.17l.11,3.95a3.63,3.63,0,0,0,.53,2.15h0a2.13,2.13,0,0,0,1.85.72h0a3.48,3.48,0,0,0,1.34-.33h0a.54.54,0,0,1,.65.13h0a.37.37,0,0,1-.09.52h0l-.18.12h0a3.9,3.9,0,0,1-1.71.38h0a2.94,2.94,0,0,1-2.6-1.05Z"/><path class="cls-1" d="M268.72,40.75h0a3.09,3.09,0,0,1-2.61-1.09h0a4.52,4.52,0,0,1-.75-2.7l0-4h.4l0,4h0a4.12,4.12,0,0,0,.67,2.45h0a2.69,2.69,0,0,0,2.31.94h.08a3.46,3.46,0,0,0,1.58-.35h0l.12-.08h0a.29.29,0,0,0,.07-.09h0l0,0h0a.23.23,0,0,0-.17-.07h0a.27.27,0,0,0-.14,0h0a3.87,3.87,0,0,1-1.46.35h-.07a2.37,2.37,0,0,1-2-.83h0a3.93,3.93,0,0,1-.59-2.33L266,32.88h.4l.12,4.07h0A3.59,3.59,0,0,0,267,39h0a2,2,0,0,0,1.69.67h.07a3.44,3.44,0,0,0,1.28-.31h0a.73.73,0,0,1,.31-.07h0a.61.61,0,0,1,.49.22h0a.47.47,0,0,1,.09.28h0a.51.51,0,0,1-.2.41h0a.86.86,0,0,1-.2.13h0a4,4,0,0,1-1.76.4h-.09Zm-2.52-1.17,0,0h0l0,0Z"/><path class="cls-1" d="M236.7,33.05l0,3.9c0,1.91-.68,3.65-3.25,3.6a3.76,3.76,0,0,1-1.67-.38c-.62-.29-.17-.82.31-.61a3.68,3.68,0,0,0,1.37.33c2.14,0,2.44-1.47,2.46-3L236,33"/><path class="cls-1" d="M233.49,40.67h-.08a3.82,3.82,0,0,1-1.72-.39h0a.54.54,0,0,1-.37-.46h0a.47.47,0,0,1,.5-.43h0a.61.61,0,0,1,.28.07h0a3.61,3.61,0,0,0,1.32.31h.06c2,0,2.24-1.37,2.28-2.84h0l.12-3.94h.24L236,36.94c0,1.46-.35,3.09-2.52,3.07h-.06a3.71,3.71,0,0,1-1.42-.34h0a.42.42,0,0,0-.18,0h0c-.17,0-.26.11-.26.19h0s0,.15.23.24h0a3.65,3.65,0,0,0,1.62.37h.08c2.43,0,3-1.61,3.06-3.48h0l0-3.9h.24l0,3.9c0,1.9-.7,3.73-3.27,3.72h0Z"/><path class="cls-1" d="M236,39.58a4.37,4.37,0,0,0,.72-2.63h0l0-3.9h-.16l0,3.9a4.23,4.23,0,0,1-.69,2.53h0a2.82,2.82,0,0,1-2.48,1h0a3.72,3.72,0,0,1-1.64-.36h0l-.14-.1h0c-.14-.12-.13-.21-.07-.29h0a.36.36,0,0,1,.45-.07h0a3.9,3.9,0,0,0,1.41.34h0a2.25,2.25,0,0,0,2-.79h0a3.82,3.82,0,0,0,.56-2.25h0l.12-3.94h-.16l-.12,3.95a3.63,3.63,0,0,1-.53,2.15h0a2.13,2.13,0,0,1-1.85.72h0a3.57,3.57,0,0,1-1.34-.33h0a.54.54,0,0,0-.65.13h0a.37.37,0,0,0,.1.52h0a.7.7,0,0,0,.18.12h0a3.89,3.89,0,0,0,1.7.38h0A3,3,0,0,0,236,39.58Z"/><path class="cls-1" d="M233.49,40.75h-.08a3.89,3.89,0,0,1-1.76-.4h0a.58.58,0,0,1-.2-.13h0a.52.52,0,0,1-.21-.41h0a.42.42,0,0,1,.1-.28h0a.61.61,0,0,1,.48-.22h0a.77.77,0,0,1,.32.07h0a3.34,3.34,0,0,0,1.27.31h.07a2,2,0,0,0,1.7-.67h0a3.59,3.59,0,0,0,.5-2.09h0l.12-4.07h.4l-.12,4.06a3.86,3.86,0,0,1-.59,2.33h0a2.37,2.37,0,0,1-2,.83h-.07a3.92,3.92,0,0,1-1.46-.35h0a.25.25,0,0,0-.14,0h0a.23.23,0,0,0-.17.07h0a.08.08,0,0,0,0,0h0s0,0,.06.09h0l.12.08h0a3.48,3.48,0,0,0,1.58.35h.09a2.69,2.69,0,0,0,2.31-.94h0a4.11,4.11,0,0,0,.66-2.45h0l0-4h.4l0,4a4.59,4.59,0,0,1-.74,2.7h0a3.07,3.07,0,0,1-2.6,1.09h0ZM236,39.58l0,0h0l0,0Z"/><rect class="cls-1" x="235.39" y="22.68" width="31.07" height="18.07" rx="4.46"/><path class="cls-10" d="M260.82,38.66a.4.4,0,0,1-.4.41h-19a.41.41,0,0,1-.41-.41h0a.4.4,0,0,1,.41-.4h19a.4.4,0,0,1,.4.4Z"/><path class="cls-10" d="M244.26,33.89a2.49,2.49,0,0,1-2.49,2.49h0a2.48,2.48,0,0,1-2.49-2.49V31.25a2.49,2.49,0,0,1,2.49-2.49h0a2.5,2.5,0,0,1,2.49,2.49Z"/><path class="cls-13" d="M243.62,33.78a1.88,1.88,0,0,1-1.85,1.91h0a1.88,1.88,0,0,1-1.85-1.91V31.36a1.88,1.88,0,0,1,1.85-1.91h0a1.88,1.88,0,0,1,1.85,1.91Z"/><polygon class="cls-10" points="241.77 29.17 241.05 29.17 241.41 28.02 241.77 26.86 242.13 28.02 242.49 29.17 241.77 29.17"/><polygon class="cls-10" points="243.6 29.17 242.89 29.17 243.25 28.02 243.6 26.86 243.96 28.02 244.32 29.17 243.6 29.17"/><polygon class="cls-10" points="239.93 29.17 239.22 29.17 239.57 28.02 239.93 26.86 240.29 28.02 240.65 29.17 239.93 29.17"/><path class="cls-10" d="M262.56,33.89a2.48,2.48,0,0,1-2.48,2.49h0a2.48,2.48,0,0,1-2.49-2.49V31.25a2.49,2.49,0,0,1,2.49-2.49h0a2.49,2.49,0,0,1,2.48,2.49Z"/><path class="cls-13" d="M261.92,33.78a1.87,1.87,0,0,1-1.84,1.91h0a1.88,1.88,0,0,1-1.85-1.91V31.36a1.88,1.88,0,0,1,1.85-1.91h0a1.88,1.88,0,0,1,1.84,1.91Z"/><polygon class="cls-10" points="260.08 29.17 259.36 29.17 259.72 28.02 260.08 26.86 260.44 28.02 260.79 29.17 260.08 29.17"/><polygon class="cls-10" points="261.91 29.17 261.2 29.17 261.55 28.02 261.91 26.86 262.27 28.02 262.63 29.17 261.91 29.17"/><polygon class="cls-10" points="258.24 29.17 257.52 29.17 257.88 28.02 258.24 26.86 258.6 28.02 258.96 29.17 258.24 29.17"/><path class="cls-4" d="M243.53,39.31l.25-.24h2.64c-.11.15-.07.12-.11.16l-1.09,2a1.37,1.37,0,0,1-2,.25A1.57,1.57,0,0,1,243.53,39.31Z"/><path class="cls-4" d="M272.21,20.63a2.67,2.67,0,0,1,1.48,1.56,2.5,2.5,0,0,1,0,2,2.66,2.66,0,0,1-1.36,1.32,5.08,5.08,0,0,1-2.68.26A5.19,5.19,0,0,1,271.18,28a2.57,2.57,0,0,1-1.62,3.26,2.77,2.77,0,0,1-2.15-.09,3.79,3.79,0,0,1-1.8-1.91,26.53,26.53,0,0,1-1.51-4.2c-.17-.65-.33-1.32-.47-2a27.3,27.3,0,0,1,6-2.57A3.67,3.67,0,0,1,272.21,20.63Z"/><path class="cls-4" d="M255.56,25.79a2.67,2.67,0,0,1-1.48-1.56,2.6,2.6,0,0,1,0-2.05,2.64,2.64,0,0,1,1.36-1.31,5,5,0,0,1,2.68-.27,5.08,5.08,0,0,1-1.56-2.21,2.53,2.53,0,0,1,.1-1.86,2.61,2.61,0,0,1,1.52-1.39,2.73,2.73,0,0,1,2.15.09,3.75,3.75,0,0,1,1.8,1.91,26.4,26.4,0,0,1,1.51,4.19c.17.66.33,1.33.48,2a27,27,0,0,1-6,2.57A3.7,3.7,0,0,1,255.56,25.79Z"/><path class="cls-10" d="M269,30.91c.13.19.17.34.11.46a3.76,3.76,0,0,1-1.57-.15l.17-.38a.52.52,0,0,1,.46-.29,1,1,0,0,1,.51,0A.91.91,0,0,1,269,30.91Zm-2.55-1.12a.58.58,0,0,1,.09.52l-.09.2a3.75,3.75,0,0,1-.79-1.18l.44.07A.91.91,0,0,1,266.46,29.79Zm4.27.23a1,1,0,0,0,.17.13l-.07.15a2.93,2.93,0,0,1-1.14.89.8.8,0,0,1-.18-.91.82.82,0,0,1,.43-.41.75.75,0,0,1,.62,0A.53.53,0,0,1,270.73,30Zm-2.35-.88a.8.8,0,0,1,0,.61.67.67,0,0,1-1,.37.69.69,0,0,1-.41-1,.83.83,0,0,1,.44-.4.74.74,0,0,1,1,.44ZM265.8,28a.72.72,0,0,1,0,.64,1.33,1.33,0,0,1-.31.36,9.74,9.74,0,0,1-.57-1.47l.5,0A.83.83,0,0,1,265.8,28Zm4.45.47a.77.77,0,0,1,0,.63.67.67,0,0,1-1,.37.68.68,0,0,1-.41-1,.81.81,0,0,1,.43-.4.68.68,0,0,1,.62,0A.81.81,0,0,1,270.25,28.42Zm-2.58-1.17a.72.72,0,0,1,0,.64.79.79,0,0,1-1.44-.66.84.84,0,0,1,.44-.41.69.69,0,0,1,.61,0A.81.81,0,0,1,267.67,27.25Zm-2.58-1.17a.73.73,0,0,1,0,.63.88.88,0,0,1-.38.39c-.17-.6-.32-1.1-.44-1.52l.44.07A.86.86,0,0,1,265.09,26.08Zm6.19,2.73-.41-.19c-.14-.06-.21-.21-.24-.45a1.05,1.05,0,0,1,.06-.47.72.72,0,0,1,.28-.3A2.82,2.82,0,0,1,271.28,28.81Zm-1.74-2.27a.79.79,0,0,1,0,.64.78.78,0,0,1-1.42-.65.79.79,0,0,1,.43-.41.75.75,0,0,1,.62,0A.79.79,0,0,1,269.54,26.54ZM267,25.38a.77.77,0,0,1,0,.63.69.69,0,0,1-1,.36.68.68,0,0,1-.39-1A.82.82,0,0,1,266,25a.72.72,0,0,1,.61,0A.79.79,0,0,1,267,25.38Zm-2.58-1.18a.75.75,0,0,1,0,.64.92.92,0,0,1-.11.15.93.93,0,0,0-.1.15,7.83,7.83,0,0,1-.4-1.39h.09a.27.27,0,0,1,.13,0A.87.87,0,0,1,264.39,24.2ZM270.64,27l-.48-.22q-.11,0-.18-.3a.53.53,0,0,1,0-.34A3.57,3.57,0,0,1,270.64,27Zm-1.79-2.27a.76.76,0,0,1,0,.61.68.68,0,0,1-1,.37.69.69,0,0,1-.41-1,.81.81,0,0,1,.44-.41.75.75,0,0,1,.62,0A.76.76,0,0,1,268.85,24.69Zm-2.58-1.18a.74.74,0,0,1,0,.62.78.78,0,0,1-1.42-.64.84.84,0,0,1,.43-.42.72.72,0,0,1,.61,0A.74.74,0,0,1,266.27,23.51Zm5.13,2.27a6.81,6.81,0,0,1-1.4,0l.06-.15a.72.72,0,0,1,.46-.28.82.82,0,0,1,.52,0S271.13,25.52,271.4,25.78ZM270.7,24a.72.72,0,0,1,0,.64.79.79,0,0,1-1.43-.65.83.83,0,0,1,.45-.41.72.72,0,0,1,.61,0A.75.75,0,0,1,270.7,24Zm-2.56-1.16a.72.72,0,0,1,0,.64.69.69,0,0,1-1,.36.68.68,0,0,1-.39-1,.8.8,0,0,1,.43-.42.76.76,0,0,1,.61,0A.79.79,0,0,1,268.14,22.81Zm-2.67-.4a.61.61,0,0,1-.34.25.59.59,0,0,1-.38.06l-.24-.11a6.15,6.15,0,0,1,1.12-.54ZM273.16,25c-.72.55-1.15.78-1.3.71s-.09-.11-.06-.26a.7.7,0,0,1,.05-.28.84.84,0,0,1,.43-.42.75.75,0,0,1,.62,0A1.17,1.17,0,0,1,273.16,25Zm-.57-1.7a.76.76,0,0,1,0,.64.78.78,0,0,1-1.42-.65.8.8,0,0,1,.43-.42.78.78,0,0,1,1,.43ZM270,22.1a.72.72,0,0,1,0,.64.79.79,0,0,1-1.44-.65.81.81,0,0,1,.44-.41.72.72,0,0,1,.61,0A.85.85,0,0,1,270,22.1Zm-2.52-.75a1.64,1.64,0,0,1-.14.38A.66.66,0,0,1,267,22c-.18.08-.31.11-.39.07l-.42-.19a9.69,9.69,0,0,1,1.31-.62S267.52,21.25,267.49,21.35Zm6.38,2.17-.07.15a.8.8,0,0,1-.37-.09.68.68,0,0,1-.4-1,.76.76,0,0,1,.23-.29.45.45,0,0,1,.4-.15A2.21,2.21,0,0,1,273.87,23.52Zm-2-2.1a.8.8,0,0,1,0,.61.78.78,0,0,1-1.43-.64.81.81,0,0,1,.44-.41.74.74,0,0,1,1,.44Zm-2.58-.55a.69.69,0,0,1-1,.36A.61.61,0,0,1,268,21l1.35-.47A.7.7,0,0,1,269.31,20.87Zm3.33,0a1.9,1.9,0,0,1,.43.41,1.86,1.86,0,0,1,.34.47.84.84,0,0,1-.68,0,.82.82,0,0,1-.37-.35.53.53,0,0,1-.11-.52l.07-.14ZM270,20.42a3.51,3.51,0,0,1,1.06,0A.82.82,0,0,1,270,20.42Z"/><path class="cls-10" d="M258.73,15.47a.51.51,0,0,1-.11-.46,3.64,3.64,0,0,1,1.58.16l-.17.37a.54.54,0,0,1-.46.29.91.91,0,0,1-.51,0A1,1,0,0,1,258.73,15.47Zm2.56,1.13a.57.57,0,0,1-.09-.53l.08-.19a3.5,3.5,0,0,1,.79,1.17l-.43-.07A.94.94,0,0,1,261.29,16.6ZM257,16.37a.59.59,0,0,0-.15-.13l.06-.16a2.93,2.93,0,0,1,1.14-.89.8.8,0,0,1,.18.91.86.86,0,0,1-.43.41.7.7,0,0,1-.63,0A1.17,1.17,0,0,1,257,16.37Zm2.36.88a.78.78,0,0,1,0-.62.78.78,0,0,1,1.42.65.77.77,0,0,1-.43.4.71.71,0,0,1-.62,0A.73.73,0,0,1,259.37,17.25Zm2.57,1.18a.76.76,0,0,1,0-.64,1.55,1.55,0,0,1,.31-.36,11,11,0,0,1,.58,1.47l-.5,0A.85.85,0,0,1,261.94,18.43ZM257.5,18a.73.73,0,0,1,0-.63.67.67,0,0,1,1-.37.69.69,0,0,1,.41,1,.82.82,0,0,1-.43.41.77.77,0,0,1-.63,0A.81.81,0,0,1,257.5,18Zm2.58,1.17a.7.7,0,0,1,0-.63.79.79,0,0,1,1.44.65.81.81,0,0,1-.44.41.75.75,0,0,1-.62,0A.82.82,0,0,1,260.08,19.13Zm2.58,1.17a.7.7,0,0,1,0-.63.86.86,0,0,1,.37-.39q.27.9.45,1.53l-.44-.08A.75.75,0,0,1,262.66,20.3Zm-6.2-2.72.42.19c.13.06.21.2.23.45a.9.9,0,0,1-.05.46.8.8,0,0,1-.28.31A2.89,2.89,0,0,1,256.46,17.58Zm1.75,2.26a.73.73,0,0,1,0-.63.78.78,0,0,1,1.42.64.81.81,0,0,1-.44.41.72.72,0,0,1-.61,0A.76.76,0,0,1,258.21,19.84ZM260.77,21a.77.77,0,0,1,0-.63.79.79,0,0,1,1.43.65.81.81,0,0,1-.44.41.64.64,0,0,1-.6,0A.77.77,0,0,1,260.77,21Zm2.59,1.18a.7.7,0,0,1,0-.63.76.76,0,0,1,.11-.16,1.26,1.26,0,0,0,.1-.15,8.87,8.87,0,0,1,.4,1.4h-.09a.34.34,0,0,1-.14,0A.91.91,0,0,1,263.36,22.18Zm-6.26-2.76.48.22a.51.51,0,0,1,.18.3.59.59,0,0,1,0,.35A3.66,3.66,0,0,1,257.1,19.42Zm1.79,2.28a.78.78,0,0,1,0-.62.69.69,0,0,1,1-.36.67.67,0,0,1,.4,1,.79.79,0,0,1-.43.41.75.75,0,0,1-.62,0A.79.79,0,0,1,258.89,21.7Zm2.58,1.17a.79.79,0,0,1,0-.62.69.69,0,0,1,1-.36.68.68,0,0,1,.39,1,.86.86,0,0,1-.43.41.72.72,0,0,1-.61,0A.79.79,0,0,1,261.47,22.87Zm-5.12-2.27a6.76,6.76,0,0,1,1.4-.05l-.07.15a.63.63,0,0,1-.45.28.81.81,0,0,1-.52,0A3.89,3.89,0,0,0,256.35,20.6Zm.69,1.81a.75.75,0,0,1,0-.64.68.68,0,0,1,1-.37.69.69,0,0,1,.41,1,.79.79,0,0,1-.45.41.69.69,0,0,1-.61,0A.73.73,0,0,1,257,22.41Zm2.57,1.16a.67.67,0,0,1,0-.63.68.68,0,0,1,1-.36.67.67,0,0,1,.39,1,.82.82,0,0,1-.44.42.7.7,0,0,1-.6,0A.79.79,0,0,1,259.61,23.57Zm2.67.4a.82.82,0,0,1,.72-.31l.24.11a6.86,6.86,0,0,1-1.12.54Zm-7.69-2.56c.72-.54,1.15-.78,1.3-.71s.08.11.06.26a.67.67,0,0,1,0,.28.82.82,0,0,1-.44.42.71.71,0,0,1-.62,0A1,1,0,0,1,254.59,21.41Zm.57,1.7a.76.76,0,0,1,0-.64.67.67,0,0,1,1-.37.69.69,0,0,1,.41,1,.84.84,0,0,1-.43.42.75.75,0,0,1-.62,0A.81.81,0,0,1,255.16,23.11Zm2.58,1.17a.72.72,0,0,1,0-.64.79.79,0,0,1,1.44.65.81.81,0,0,1-.44.41.75.75,0,0,1-.62,0A.79.79,0,0,1,257.74,24.28Zm2.52.75a1.71,1.71,0,0,1,.13-.38.78.78,0,0,1,.34-.22.57.57,0,0,1,.39-.07l.42.2a11.76,11.76,0,0,1-1.31.61S260.24,25.13,260.26,25Zm-6.38-2.17.07-.15a.73.73,0,0,1,.37.1.67.67,0,0,1,.4,1,.7.7,0,0,1-.24.29.43.43,0,0,1-.39.15A2.13,2.13,0,0,1,253.88,22.86Zm2,2.11a.78.78,0,0,1,0-.62.78.78,0,0,1,1.42.65.81.81,0,0,1-.44.41.72.72,0,0,1-.61,0A.77.77,0,0,1,255.86,25Zm2.58.55a.76.76,0,0,1,1.3-.15l-1.35.47A.68.68,0,0,1,258.44,25.52Zm-3.33,0a2.19,2.19,0,0,1-.43-.41,2.28,2.28,0,0,1-.35-.47.91.91,0,0,1,.69,0,.94.94,0,0,1,.37.35.53.53,0,0,1,.1.52l-.07.15Zm2.69.41a4.37,4.37,0,0,1-1.07,0A.82.82,0,0,1,257.8,26Z"/><path class="cls-4" d="M265.46,50.2l-.73-2.73,2.74.73.76.2A3.93,3.93,0,1,0,265.67,51Z"/><path class="cls-4" d="M236.46,42.17l.73,2.73-2.73-.73-.77-.21a3.94,3.94,0,1,0,2.56-2.56Z"/><path class="cls-1" d="M242.51,33.58a1.31,1.31,0,0,1-1.29,1.33h0a1.3,1.3,0,0,1-1.28-1.33V31.9a1.31,1.31,0,0,1,1.28-1.34h0a1.32,1.32,0,0,1,1.29,1.34Z"/><path class="cls-1" d="M260.81,33.58a1.31,1.31,0,0,1-1.29,1.33h0a1.31,1.31,0,0,1-1.29-1.33V31.9a1.32,1.32,0,0,1,1.29-1.34h0a1.32,1.32,0,0,1,1.29,1.34Z"/></g></g></svg>