<svg xmlns="http://www.w3.org/2000/svg" width="233.714" height="48.319" viewBox="0 0 233.714 48.319">
  <g id="logo_header" transform="translate(0 -23.953)">
    <path id="パス_5624" data-name="パス 5624" d="M36.163,36.349l-.152-.914h0a21.3,21.3,0,0,0-2.742-7.313h0l-.457-.762h0c-.152-.3-.3-.457-.457-.762h0a20.269,20.269,0,0,0-5.485-5.332h0l-.762-.457h0l-.762-.762h0a19.206,19.206,0,0,0-6.4-2.438l-1.066-.152h0l-.914-.152h0L15.9,17h0V37.416H36.316a2.593,2.593,0,0,0-.152-1.066Z" transform="translate(8.325 8.901)" fill="#00aeeb"/>
    <path id="パス_5625" data-name="パス 5625" d="M19.449,17h0l-.914.152h0a21.3,21.3,0,0,0-7.313,2.742h0a5.072,5.072,0,0,0-.914.457h0l-.762.457h0a10.674,10.674,0,0,0-1.524,1.219l-.457.457a21.757,21.757,0,0,0-3.5,3.961h0l-.457.762h0a20.853,20.853,0,0,0-2.438,4.875h0a24.354,24.354,0,0,0-.762,3.2h0c0,.3-.152.609-.152.914h0A2.974,2.974,0,0,1,.1,37.263H20.516V17H19.449Z" transform="translate(0.052 8.901)" fill="#fff23f"/>
    <path id="パス_5626" data-name="パス 5626" d="M.152,33.866h0a23.653,23.653,0,0,0,.609,3.2A24.19,24.19,0,0,0,3.5,43.16h0c.152.3.3.457.457.762h0a20.819,20.819,0,0,0,3.5,3.809l.457.3a13.323,13.323,0,0,0,1.524,1.219h0l.762.609h0c.3.152.457.3.762.457h0a29.6,29.6,0,0,0,5.485,2.285c.609.152,1.371.3,1.981.457h0l.914.152h0l1.066.152h0V32.8H0A2.259,2.259,0,0,0,.152,33.866Z" transform="translate(0 17.173)" fill="#3554a3"/>
    <path id="パス_5627" data-name="パス 5627" d="M15.9,53.316h0l1.066-.152h0l.914-.152h0a21.3,21.3,0,0,0,7.313-2.742h0a3.33,3.33,0,0,0,.762-.457h0l.762-.457h0A23.432,23.432,0,0,0,32.2,43.87h0a2.675,2.675,0,0,1,.609-.762h0l.457-.762h0a23.862,23.862,0,0,0,2.895-8.38h0a2.974,2.974,0,0,1,.152-1.066H15.9Z" transform="translate(8.325 17.225)" fill="#e62719"/>
    <path id="パス_5628" data-name="パス 5628" d="M59.4,43.985a9.375,9.375,0,0,1,7.923-9.446,11.256,11.256,0,0,1,3.2,0A9.507,9.507,0,0,1,78.6,43.985a9.7,9.7,0,0,1-9.141,10.208H69C63.668,54.193,59.4,50.384,59.4,43.985Zm2.285.152c0,4.875,3.2,8.075,7.465,8.075s7.313-3.047,7.313-8.075a7.282,7.282,0,0,0-6.247-7.465,7.4,7.4,0,0,0-2.59,0A6.914,6.914,0,0,0,61.687,44.138Z" transform="translate(31.098 18.024)" fill="#323333"/>
    <path id="パス_5629" data-name="パス 5629" d="M88.1,35.324a1.077,1.077,0,0,1,2.133,0V53.15a1.077,1.077,0,0,1-2.133,0Z" transform="translate(46.126 18)" fill="#323333"/>
    <path id="パス_5630" data-name="パス 5630" d="M128.059,50.538l6.551-13.255a1.225,1.225,0,0,1,1.676-.457c.152.152.457.3.457.457l6.4,13.255,6.7-15.388a1.16,1.16,0,1,1,2.133.914l-7.923,17.521a1.127,1.127,0,0,1-1.371.609,1.189,1.189,0,0,1-.609-.609l-6.551-13.56-6.551,13.56a1.088,1.088,0,0,1-1.524.457c-.152-.152-.457-.3-.457-.457l-7.77-17.521a1.134,1.134,0,0,1,2.133-.762Z" transform="translate(62.386 18.022)" fill="#323333"/>
    <path id="パス_5631" data-name="パス 5631" d="M107.66,36.622v9.446l.3,4.571L96.538,35.25a1.281,1.281,0,0,0-1.676-.609A1.357,1.357,0,0,0,94.1,35.86V52.467h2.285V42.411l-.3-4.114L107.2,53.229c.609,1.066,2.742.914,2.742-.609v-16Z" transform="translate(49.267 18.074)" fill="#323333"/>
    <path id="パス_5632" data-name="パス 5632" d="M126.159,53.53,117.17,36.009a1.088,1.088,0,0,0-1.524-.457l-.457.457L106.2,53.53h2.438l3.5-6.856h7.923l3.5,6.856Zm-12.95-8.684,3.047-6.094,3.047,6.094Z" transform="translate(55.602 18.534)" fill="#323333"/>
    <path id="パス_5633" data-name="パス 5633" d="M90.188,52.287,81.656,43.45l7.923-7.008c1.066-.914-.457-2.59-1.524-1.524l-8.227,7.313-2.895,2.895V39.032H74.8V51.525h2.133V47.564l3.2-2.742,8.38,8.837C89.579,54.724,91.254,53.505,90.188,52.287Z" transform="translate(39.162 18.102)" fill="#323333"/>
    <path id="パス_5634" data-name="パス 5634" d="M160.259,53.53,151.27,36.009a1.088,1.088,0,0,0-1.524-.457l-.457.457L140.3,53.53h2.438l3.5-6.856h7.77l3.5,6.856Zm-12.95-8.684,3.047-6.094,3.047,6.094Z" transform="translate(73.456 18.534)" fill="#323333"/>
    <path id="パス_5635" data-name="パス 5635" d="M115.378,24.9l7.161-7.161a1.1,1.1,0,0,0,0-1.524,1.2,1.2,0,0,0-1.676,0L113.7,23.379l-3.961-4.266a1.164,1.164,0,0,0-.762-.3,1.311,1.311,0,0,0-1.219,1.219,1.164,1.164,0,0,0,.3.762l4.114,4.114-7.161,7.161a1.2,1.2,0,0,0,0,1.676h0a1.2,1.2,0,0,0,1.676,0h0l7.161-7.161,10.208,10.208a1.164,1.164,0,0,0,.762.3h0a1.164,1.164,0,0,0,.762-.3,1.2,1.2,0,0,0,0-1.676h0Z" transform="translate(54.804 8.312)" fill="#323333"/>
    <path id="パス_5636" data-name="パス 5636" d="M120.919,20.038h9.751a1.219,1.219,0,1,0,0-2.438h-9.751a1.311,1.311,0,0,0-1.219,1.219A1.121,1.121,0,0,0,120.919,20.038Z" transform="translate(62.67 9.215)" fill="#323333"/>
    <path id="パス_5637" data-name="パス 5637" d="M139.581,20.9H119.775a1.139,1.139,0,0,0-1.066,1.371,1.041,1.041,0,0,0,1.066,1.066h8.684v9.9a1.219,1.219,0,0,0,2.438,0h0v-9.9h8.684a1.463,1.463,0,0,0,1.371-1.066,1.463,1.463,0,0,0-1.066-1.371Z" transform="translate(62.138 10.942)" fill="#323333"/>
    <path id="パス_5638" data-name="パス 5638" d="M130.019,20.038a1.219,1.219,0,1,0-1.219-1.219h0C128.952,19.581,129.409,20.038,130.019,20.038Z" transform="translate(67.435 9.215)" fill="#323333"/>
    <path id="パス_5639" data-name="パス 5639" d="M132.819,20.038a1.219,1.219,0,1,0-1.219-1.219h0A1.121,1.121,0,0,0,132.819,20.038Z" transform="translate(68.901 9.215)" fill="#323333"/>
    <path id="パス_5640" data-name="パス 5640" d="M140.251,22.512,133.7,29.063l1.676,1.676,2.59-2.438v4.266a1.219,1.219,0,0,0,2.438,0v-6.7l1.524-1.524a1.2,1.2,0,0,0,0-1.676A1.087,1.087,0,0,0,140.251,22.512Z" transform="translate(70 11.616)" fill="#323333"/>
    <path id="パス_5641" data-name="パス 5641" d="M159.877,17.7H140.071a1.463,1.463,0,0,0-1.371,1.066,1.463,1.463,0,0,0,1.066,1.371h17.216l-4.571,4.571,1.676,1.676,6.551-6.551a1.119,1.119,0,0,0,.3-.914h0a1.08,1.08,0,0,0-1.067-1.219Z" transform="translate(72.618 9.267)" fill="#323333"/>
    <path id="パス_5642" data-name="パス 5642" d="M146.419,22.9a1.311,1.311,0,0,0-1.219,1.219h0v9.294h2.438V24.119a1.2,1.2,0,0,0-1.219-1.219Z" transform="translate(76.021 11.99)" fill="#323333"/>
    <path id="パス_5643" data-name="パス 5643" d="M79.03,18.4H58.919A1.311,1.311,0,0,0,57.7,19.619V32.874a1.311,1.311,0,0,0,1.219,1.219h9.9a1.311,1.311,0,0,0,1.219-1.219h0V20.838h7.618V36.683H80.1V19.619A1.293,1.293,0,0,0,79.03,18.4ZM67.6,31.5H60.29V20.838H67.6Z" transform="translate(30.209 9.634)" fill="#323333"/>
    <path id="パス_5644" data-name="パス 5644" d="M97.97,31.5H89.438V19.619a1.219,1.219,0,0,0-2.438,0v13.1a1.311,1.311,0,0,0,1.219,1.219H97.97a1.311,1.311,0,0,0,1.219-1.219A1.2,1.2,0,0,0,97.97,31.5Z" transform="translate(45.55 9.634)" fill="#323333"/>
    <path id="パス_5645" data-name="パス 5645" d="M101.219,32.254a1.311,1.311,0,0,0,1.219-1.219h0V15.8H100V31.036A1.121,1.121,0,0,0,101.219,32.254Z" transform="translate(52.356 8.272)" fill="#323333"/>
    <path id="パス_5646" data-name="パス 5646" d="M77.838,15.9H75.4V34.487a.966.966,0,0,0,.914.762H88.5V32.812H77.838Z" transform="translate(39.476 8.325)" fill="#323333"/>
    <path id="パス_5647" data-name="パス 5647" d="M47.8,23.919a1.311,1.311,0,0,0,1.219,1.219h9.294V22.7H49.019A1.311,1.311,0,0,0,47.8,23.919Z" transform="translate(25.026 11.885)" fill="#323333"/>
    <path id="パス_5648" data-name="パス 5648" d="M46.2,28.371a1.2,1.2,0,0,0,1.219,1.219H59.15V27H47.419A1.465,1.465,0,0,0,46.2,28.371Z" transform="translate(24.188 14.136)" fill="#323333"/>
    <path id="パス_5649" data-name="パス 5649" d="M59.172,21.021A1.311,1.311,0,0,0,57.953,19.8H52.316l.762-2.285a1.261,1.261,0,0,0-2.285-1.066V16.6l-1.219,3.2H36.624c-.457.762-1.066,1.524-1.524,2.438H48.812l-5.79,15.845h2.59L51.554,22.24h6.4A1.121,1.121,0,0,0,59.172,21.021Z" transform="translate(18.377 8.231)" fill="#323333"/>
  </g>
</svg>
