<svg id="logo_header" xmlns="http://www.w3.org/2000/svg" xmlns:xlink="http://www.w3.org/1999/xlink" width="261.731" height="49.479" viewBox="0 0 261.731 49.479">
  <defs>
    <radialGradient id="radial-gradient" cx="0.474" cy="-27.732" r="2.586" gradientTransform="matrix(0.192, 0, 0, -0.205, 61.055, 9563.905)" gradientUnits="objectBoundingBox">
      <stop offset="0.04" stop-color="#8f9090"/>
      <stop offset="0.33" stop-color="#ababab"/>
      <stop offset="0.48" stop-color="#bababa"/>
      <stop offset="0.93" stop-color="#efefef"/>
    </radialGradient>
    <radialGradient id="radial-gradient-2" cx="0.501" cy="0.506" r="1.874" gradientTransform="matrix(0.192, 0, 0, -1, 0.404, -18.852)" xlink:href="#radial-gradient"/>
    <radialGradient id="radial-gradient-3" cx="0.5" cy="0.506" r="1.874" gradientTransform="matrix(0.192, 0, 0, -1, 0.404, -18.852)" xlink:href="#radial-gradient"/>
    <radialGradient id="radial-gradient-4" cx="0.498" cy="0.506" r="1.874" gradientTransform="matrix(0.192, 0, 0, -1, 0.403, -18.852)" xlink:href="#radial-gradient"/>
  </defs>
  <path id="パス_5624" data-name="パス 5624" d="M27.385,27.967l-.086-.518h0A12.071,12.071,0,0,0,25.744,23.3h0l-.259-.432h0c-.086-.173-.173-.259-.259-.432h0a11.488,11.488,0,0,0-3.109-3.022h0l-.432-.259h0l-.432-.432h0a10.886,10.886,0,0,0-3.627-1.382l-.6-.086h0l-.518-.086h0L15.9,17h0V28.571H27.471a1.47,1.47,0,0,0-.086-.6Z" transform="translate(-2.17 -2.32)" fill="#00aeeb"/>
  <path id="パス_5625" data-name="パス 5625" d="M11.067,17h0l-.518.086h0A12.071,12.071,0,0,0,6.4,18.641h0a2.875,2.875,0,0,0-.518.259h0l-.432.259h0a6.05,6.05,0,0,0-.864.691l-.259.259a12.331,12.331,0,0,0-1.986,2.245h0l-.259.432h0A11.819,11.819,0,0,0,.7,25.549h0a13.8,13.8,0,0,0-.432,1.813h0c0,.173-.086.345-.086.518h0a1.686,1.686,0,0,1-.086.6H11.671V17h-.6Z" transform="translate(-0.014 -2.32)" fill="#fff23f"/>
  <path id="パス_5626" data-name="パス 5626" d="M.086,33.4h0a13.406,13.406,0,0,0,.345,1.813,13.711,13.711,0,0,0,1.554,3.454h0c.086.173.173.259.259.432h0a11.8,11.8,0,0,0,1.986,2.159l.259.173a7.551,7.551,0,0,0,.864.691h0l.432.345h0c.173.086.259.173.432.259h0a16.775,16.775,0,0,0,3.109,1.3c.345.086.777.173,1.123.259h0l.518.086h0l.6.086h0V32.8H0A1.28,1.28,0,0,0,.086,33.4Z" transform="translate(0 -4.477)" fill="#3554a3"/>
  <path id="パス_5627" data-name="パス 5627" d="M15.9,44.471h0l.6-.086h0l.518-.086h0a12.071,12.071,0,0,0,4.145-1.554h0a1.888,1.888,0,0,0,.432-.259h0l.432-.259h0a13.28,13.28,0,0,0,3.109-3.109h0a1.516,1.516,0,0,1,.345-.432h0l.259-.432h0A13.525,13.525,0,0,0,27.385,33.5h0a1.686,1.686,0,0,1,.086-.6H15.9Z" transform="translate(-2.17 -4.49)" fill="#e62719"/>
  <path id="パス_5628" data-name="パス 5628" d="M59.4,39.844a5.313,5.313,0,0,1,4.49-5.354,6.38,6.38,0,0,1,1.813,0,5.388,5.388,0,0,1,4.577,5.354A5.5,5.5,0,0,1,65.1,45.629H64.84C61.817,45.629,59.4,43.47,59.4,39.844Zm1.3.086c0,2.763,1.813,4.577,4.231,4.577s4.145-1.727,4.145-4.577a4.127,4.127,0,0,0-3.54-4.231,4.192,4.192,0,0,0-1.468,0A3.919,3.919,0,0,0,60.695,39.93Z" transform="translate(-8.107 -4.699)" fill="#323333"/>
  <path id="パス_5629" data-name="パス 5629" d="M88.1,34.915a.611.611,0,0,1,1.209,0v10.1a.611.611,0,0,1-1.209,0Z" transform="translate(-12.024 -4.692)" fill="#323333"/>
  <path id="パス_5630" data-name="パス 5630" d="M124.2,43.556l3.713-7.513a.7.7,0,0,1,.95-.259c.086.086.259.173.259.259l3.627,7.513,3.8-8.721a.658.658,0,1,1,1.209.518l-4.49,9.93a.639.639,0,0,1-.777.345.674.674,0,0,1-.345-.345L128.434,37.6l-3.713,7.685a.617.617,0,0,1-.864.259c-.086-.086-.259-.173-.259-.259l-4.4-9.93a.642.642,0,0,1,1.209-.432Z" transform="translate(-16.263 -4.698)" fill="#323333"/>
  <path id="パス_5631" data-name="パス 5631" d="M101.785,35.712v5.354l.173,2.591-6.476-8.721a.726.726,0,0,0-.95-.345.769.769,0,0,0-.432.691v9.412h1.3v-5.7l-.173-2.331,6.3,8.462c.345.6,1.554.518,1.554-.345V35.712Z" transform="translate(-12.843 -4.712)" fill="#323333"/>
  <path id="パス_5632" data-name="パス 5632" d="M117.512,45.676l-5.095-9.93a.617.617,0,0,0-.864-.259l-.259.259-5.095,9.93h1.382l1.986-3.886h4.49l1.986,3.886Zm-7.34-4.922L111.9,37.3l1.727,3.454Z" transform="translate(-14.495 -4.832)" fill="#323333"/>
  <path id="パス_5633" data-name="パス 5633" d="M83.521,44.613,78.686,39.6l4.49-3.972c.6-.518-.259-1.468-.864-.864L77.65,38.914l-1.641,1.641V37.1H74.8v7.081h1.209V41.936l1.813-1.554,4.749,5.008C83.176,45.995,84.126,45.3,83.521,44.613Z" transform="translate(-10.209 -4.719)" fill="#323333"/>
  <path id="パス_5634" data-name="パス 5634" d="M151.612,45.676l-5.095-9.93a.617.617,0,0,0-.864-.259l-.259.259-5.095,9.93h1.382l1.986-3.886h4.4l1.986,3.886Zm-7.34-4.922L146,37.3l1.727,3.454Z" transform="translate(-19.149 -4.832)" fill="#323333"/>
  <path id="パス_5635" data-name="パス 5635" d="M110.741,20.991l4.059-4.059a.626.626,0,0,0,0-.864.678.678,0,0,0-.95,0l-4.059,4.059-2.245-2.418a.66.66,0,0,0-.432-.173.743.743,0,0,0-.691.691.66.66,0,0,0,.173.432l2.331,2.331-4.059,4.059a.678.678,0,0,0,0,.95h0a.678.678,0,0,0,.95,0h0l4.059-4.059,5.786,5.786a.66.66,0,0,0,.432.173h0a.66.66,0,0,0,.432-.173.678.678,0,0,0,0-.95h0Z" transform="translate(-14.287 -2.167)" fill="#323333"/>
  <path id="パス_5636" data-name="パス 5636" d="M120.391,18.982h5.526a.691.691,0,1,0,0-1.382h-5.526a.743.743,0,0,0-.691.691A.636.636,0,0,0,120.391,18.982Z" transform="translate(-16.337 -2.402)" fill="#323333"/>
  <path id="パス_5637" data-name="パス 5637" d="M130.528,20.9H119.3a.646.646,0,0,0-.6.777.59.59,0,0,0,.6.6h4.922v5.613a.691.691,0,1,0,1.382,0h0V22.282h4.922a.829.829,0,0,0,.777-.6.829.829,0,0,0-.6-.777Z" transform="translate(-16.199 -2.853)" fill="#323333"/>
  <path id="パス_5638" data-name="パス 5638" d="M129.491,18.982a.691.691,0,1,0-.691-.691h0C128.886,18.723,129.145,18.982,129.491,18.982Z" transform="translate(-17.579 -2.402)" fill="#323333"/>
  <path id="パス_5639" data-name="パス 5639" d="M132.291,18.982a.691.691,0,1,0-.691-.691h0A.636.636,0,0,0,132.291,18.982Z" transform="translate(-17.962 -2.402)" fill="#323333"/>
  <path id="パス_5640" data-name="パス 5640" d="M137.413,22.371,133.7,26.084l.95.95,1.468-1.382V28.07a.691.691,0,0,0,1.382,0v-3.8l.864-.864a.678.678,0,0,0,0-.95A.616.616,0,0,0,137.413,22.371Z" transform="translate(-18.248 -3.028)" fill="#323333"/>
  <path id="パス_5641" data-name="パス 5641" d="M150.7,17.7H139.477a.829.829,0,0,0-.777.6.829.829,0,0,0,.6.777h9.758l-2.591,2.591.95.95,3.713-3.713a.634.634,0,0,0,.173-.518h0a.612.612,0,0,0-.6-.691Z" transform="translate(-18.931 -2.416)" fill="#323333"/>
  <path id="パス_5642" data-name="パス 5642" d="M145.891,22.9a.743.743,0,0,0-.691.691h0v5.267h1.382V23.591a.681.681,0,0,0-.691-.691Z" transform="translate(-19.818 -3.126)" fill="#323333"/>
  <path id="パス_5643" data-name="パス 5643" d="M69.789,18.4h-11.4a.743.743,0,0,0-.691.691V26.6a.743.743,0,0,0,.691.691H64a.743.743,0,0,0,.691-.691h0V19.782h4.318v8.981h1.382V19.091A.733.733,0,0,0,69.789,18.4Zm-6.476,7.426H59.168V19.782h4.145Z" transform="translate(-7.875 -2.511)" fill="#323333"/>
  <path id="パス_5644" data-name="パス 5644" d="M93.217,25.826H88.382V19.091a.691.691,0,0,0-1.382,0v7.426a.743.743,0,0,0,.691.691h5.526a.743.743,0,0,0,.691-.691A.681.681,0,0,0,93.217,25.826Z" transform="translate(-11.874 -2.511)" fill="#323333"/>
  <path id="パス_5645" data-name="パス 5645" d="M100.691,25.126a.743.743,0,0,0,.691-.691h0V15.8H100v8.635A.636.636,0,0,0,100.691,25.126Z" transform="translate(-13.649 -2.156)" fill="#323333"/>
  <path id="パス_5646" data-name="パス 5646" d="M76.782,15.9H75.4V26.435a.547.547,0,0,0,.518.432h6.908V25.485H76.782Z" transform="translate(-10.291 -2.17)" fill="#323333"/>
  <path id="パス_5647" data-name="パス 5647" d="M47.8,23.391a.743.743,0,0,0,.691.691h5.267V22.7H48.491a.743.743,0,0,0-.691.691Z" transform="translate(-6.524 -3.098)" fill="#323333"/>
  <path id="パス_5648" data-name="パス 5648" d="M46.2,27.777a.681.681,0,0,0,.691.691H53.54V27H46.891A.83.83,0,0,0,46.2,27.777Z" transform="translate(-6.306 -3.685)" fill="#323333"/>
  <path id="パス_5649" data-name="パス 5649" d="M48.744,18.725a.743.743,0,0,0-.691-.691h-3.2l.432-1.3a.715.715,0,0,0-1.3-.6v.086L43.3,18.034h-7.34c-.259.432-.6.864-.864,1.382h7.772L39.59,28.4h1.468l3.368-8.981h3.627A.636.636,0,0,0,48.744,18.725Z" transform="translate(-4.791 -2.146)" fill="#323333"/>
  <path id="パス_5650" data-name="パス 5650" d="M189.051,54.159c0,1.209-5.008,2.159-11.226,2.159s-11.226-.95-11.226-2.159S171.608,52,177.826,52,189.051,52.95,189.051,54.159Z" transform="translate(-22.739 -7.097)" fill="url(#radial-gradient)"/>
  <path id="パス_5651" data-name="パス 5651" d="M222.551,54.459c0,1.209-5.008,2.159-11.226,2.159s-11.226-.95-11.226-2.159,5.008-2.159,11.226-2.159S222.551,53.25,222.551,54.459Z" transform="translate(-27.311 -7.138)" fill="url(#radial-gradient-2)"/>
  <path id="パス_5652" data-name="パス 5652" d="M261.051,54.459c0,1.209-5.008,2.159-11.226,2.159s-11.226-.95-11.226-2.159,5.008-2.159,11.226-2.159S261.051,53.25,261.051,54.459Z" transform="translate(-32.566 -7.138)" fill="url(#radial-gradient-3)"/>
  <path id="パス_5653" data-name="パス 5653" d="M299.551,54.459c0,1.209-5.008,2.159-11.226,2.159s-11.226-.95-11.226-2.159,5.008-2.159,11.226-2.159S299.551,53.25,299.551,54.459Z" transform="translate(-37.82 -7.138)" fill="url(#radial-gradient-4)"/>
  <path id="パス_5654" data-name="パス 5654" d="M223.6,29.848A12.348,12.348,0,1,1,211.248,17.5,12.346,12.346,0,0,1,223.6,29.848Z" transform="translate(-27.147 -2.388)" fill="#fff23f"/>
  <rect id="長方形_23091" data-name="長方形 23091" width="1.554" height="8.376" transform="translate(178.624 8.552) rotate(-9.05)" fill="#fff23f"/>
  <path id="パス_5655" data-name="パス 5655" d="M210.326,9.2a2.775,2.775,0,0,1-5.526.518A2.746,2.746,0,0,1,207.3,6.7h0a2.785,2.785,0,0,1,3.022,2.5Z" transform="translate(-27.952 -0.912)" fill="#e62719"/>
  <path id="パス_5656" data-name="パス 5656" d="M210.336,0,207.4,5.008l2.85.777Z" transform="translate(-28.307)" fill="#e62719"/>
  <path id="パス_5657" data-name="パス 5657" d="M205.1,18.886l3.022-5.008-2.936-.777Z" transform="translate(-27.993 -1.788)" fill="#e62719"/>
  <path id="パス_5658" data-name="パス 5658" d="M216.886,6.7l-5.786.345.863,2.85Z" transform="translate(-28.812 -0.914)" fill="#e62719"/>
  <path id="パス_5659" data-name="パス 5659" d="M198.1,12.6l5.872-.345-.95-2.85Z" transform="translate(-27.038 -1.283)" fill="#e62719"/>
  <path id="パス_5660" data-name="パス 5660" d="M214.781,16.036l-3.2-4.836L209.6,13.359Z" transform="translate(-28.608 -1.529)" fill="#e62719"/>
  <path id="パス_5661" data-name="パス 5661" d="M200.3,3l3.195,4.836,1.986-2.159Z" transform="translate(-27.338 -0.409)" fill="#e62719"/>
  <path id="パス_5662" data-name="パス 5662" d="M202.889,32.76a2.538,2.538,0,0,0,2.936,2.072h0l15.2-2.677a2.538,2.538,0,0,0,2.072-2.936h0l-1.3-7.254a2.538,2.538,0,0,0-2.936-2.072h0l-15.2,2.763a2.538,2.538,0,0,0-2.072,2.936h0Z" transform="translate(-27.509 -2.709)" fill="#00aeeb"/>
  <path id="パス_5663" data-name="パス 5663" d="M211.1,28.385c.173,2.331-1.123,4.318-2.85,4.49S204.97,31.235,204.8,28.9s1.123-4.318,2.85-4.4S210.928,26.14,211.1,28.385Z" transform="translate(-27.95 -3.343)" fill="#fff"/>
  <path id="パス_5664" data-name="パス 5664" d="M204.2,28.822V28.39h0c0-2.331,1.3-4.318,3.281-4.49h.259c1.986,0,3.54,1.986,3.8,4.4h0v.432h0c0,2.331-1.3,4.318-3.281,4.49h-.173c-2.159.086-3.713-1.986-3.886-4.4Zm3.454-3.972h-.173c-1.3.086-2.418,1.554-2.418,3.54h0v.432h0c.173,2.072,1.554,3.54,2.85,3.54h.173c1.3-.086,2.418-1.554,2.418-3.54h0V28.39h0c-.173-2.072-1.468-3.54-2.85-3.54Z" transform="translate(-27.871 -3.262)" fill="#e62719"/>
  <path id="パス_5665" data-name="パス 5665" d="M210.921,28.9c.086,1.382-.518,2.591-1.3,2.677s-1.641-1.036-1.727-2.5.518-2.677,1.3-2.677S210.748,27.436,210.921,28.9Z" transform="translate(-28.374 -3.603)" fill="#231815"/>
  <path id="パス_5666" data-name="パス 5666" d="M222.8,26.185c.173,2.331-1.123,4.318-2.85,4.49S216.67,29.035,216.5,26.7s1.123-4.318,2.85-4.4S222.629,23.854,222.8,26.185Z" transform="translate(-29.547 -3.043)" fill="#fff"/>
  <path id="パス_5667" data-name="パス 5667" d="M215.9,26.622V26.19h0c0-2.331,1.3-4.318,3.281-4.49h.259c2.072,0,3.627,1.986,3.8,4.4h0v.432h0c0,2.331-1.3,4.318-3.281,4.49H219.7c-1.986,0-3.627-1.986-3.8-4.4Zm3.54-3.972h-.173c-1.3.086-2.418,1.554-2.418,3.54h0v.432h0c.173,2.072,1.554,3.54,2.85,3.54h.173c1.3-.086,2.418-1.554,2.418-3.54h0V26.19h0c-.173-2.072-1.468-3.627-2.85-3.54Z" transform="translate(-29.467 -2.962)" fill="#e62719"/>
  <path id="パス_5668" data-name="パス 5668" d="M222.621,26.6c.086,1.382-.518,2.591-1.3,2.677s-1.641-1.036-1.727-2.5.518-2.591,1.3-2.677S222.535,25.222,222.621,26.6Z" transform="translate(-29.971 -3.289)" fill="#231815"/>
  <g id="グループ_3739" data-name="グループ 3739" transform="translate(185.137 28.928)">
    <path id="パス_5669" data-name="パス 5669" d="M217.077,40.84a3.5,3.5,0,0,1-2.677-1.123l1.036-1.3a2.115,2.115,0,0,0,1.382.691c.432,0,.777-.173.777-.6s-.345-.6-.95-.6h-.432V36.436h.432c.432,0,.777-.173.777-.6,0-.259-.345-.518-.691-.518a1.672,1.672,0,0,0-1.123.518l-.95-1.468a3.47,3.47,0,0,1,2.418-.864c1.382,0,2.591.691,2.591,1.9a1.531,1.531,0,0,1-.863,1.468,1.618,1.618,0,0,1,1.036,1.554C219.84,39.976,218.718,40.84,217.077,40.84Z" transform="translate(-214.4 -33.5)" fill="#e62719"/>
  </g>
  <path id="パス_5670" data-name="パス 5670" d="M218.9,49.786c0,.345-.864.691-1.986.691h-9.326c-1.123,0-1.986-.259-1.986-.691V44.691c0-.345.864-.691,1.986-.691h9.326c1.123,0,1.986.259,1.986.691Z" transform="translate(-28.062 -6.005)" fill="#fff23f"/>
  <path id="パス_5671" data-name="パス 5671" d="M209.463,51.931a2.331,2.331,0,1,1-2.331-2.331,2.322,2.322,0,0,1,2.331,2.331Z" transform="translate(-27.952 -6.769)" fill="#e62719"/>
  <path id="パス_5672" data-name="パス 5672" d="M221.163,51.931a2.331,2.331,0,1,1-2.331-2.331,2.269,2.269,0,0,1,2.331,2.331Z" transform="translate(-29.549 -6.769)" fill="#e62719"/>
  <path id="パス_5673" data-name="パス 5673" d="M206.544,45.977a.774.774,0,0,1-.777.777h-6.39a.774.774,0,0,1-.777-.777h0a.774.774,0,0,1,.777-.777h6.39a.774.774,0,0,1,.777.777Z" transform="translate(-27.106 -6.169)" fill="#fff23f"/>
  <path id="パス_5674" data-name="パス 5674" d="M202.163,45.731a2.331,2.331,0,1,1-2.331-2.331,2.269,2.269,0,0,1,2.331,2.331Z" transform="translate(-26.956 -5.924)" fill="#e62719"/>
  <path id="パス_5675" data-name="パス 5675" d="M220.8,45.977a.774.774,0,0,1,.777-.777h6.3a.774.774,0,0,1,.777.777h0a.774.774,0,0,1-.777.777h-6.3c-.432-.086-.777-.345-.777-.777Z" transform="translate(-30.136 -6.169)" fill="#fff23f"/>
  <path id="パス_5676" data-name="パス 5676" d="M225.7,45.731a2.331,2.331,0,1,1,2.332,2.331,2.322,2.322,0,0,1-2.332-2.331Z" transform="translate(-30.805 -5.924)" fill="#e62719"/>
  <path id="パス_5677" data-name="パス 5677" d="M209.354,49.263a1.623,1.623,0,0,1-1.554-1.641h0V46.241a1.567,1.567,0,0,1,1.554-1.641h6.131a1.623,1.623,0,0,1,1.554,1.641h0v1.382h0a1.553,1.553,0,0,1-1.468,1.641Zm-1.123-3.022v1.382a1.255,1.255,0,0,0,1.209,1.3h6.131a1.255,1.255,0,0,0,1.209-1.3h0V46.241a1.255,1.255,0,0,0-1.209-1.3h-6.131a1.155,1.155,0,0,0-1.209,1.3Z" transform="translate(-28.362 -6.087)" fill="#fff"/>
  <path id="パス_5678" data-name="パス 5678" d="M209,48.391V47.7h1.641v-.345H209V45.8h2.245v.691H209.6v.259h1.641v1.641Z" transform="translate(-28.526 -6.251)" fill="#231815"/>
  <path id="パス_5679" data-name="パス 5679" d="M212,48.391V45.8h.691v1.9h.864V45.8h.691v2.591Z" transform="translate(-28.935 -6.251)" fill="#231815"/>
  <path id="パス_5680" data-name="パス 5680" d="M216.627,48.391l-1.036-1.382v1.382H214.9V45.8h.518l1.036,1.382V45.8h.691v2.591Z" transform="translate(-29.331 -6.251)" fill="#231815"/>
  <path id="パス_5681" data-name="パス 5681" d="M294.763,35.695V47.957h1.3V35.695a5.1,5.1,0,0,0-5.095-5.095H288.2v1.3h2.763a3.833,3.833,0,0,1,3.8,3.8Z" transform="translate(-39.335 -4.176)" fill="#231815"/>
  <path id="パス_5682" data-name="パス 5682" d="M298.186,51.872H294.3l1.036-3.972h1.813Z" transform="translate(-40.168 -6.538)" fill="#231815"/>
  <path id="パス_5683" data-name="パス 5683" d="M277.3,28.4l5.095,4.231,1.382-3.022Z" transform="translate(-37.848 -3.876)" fill="#231815"/>
  <path id="パス_5684" data-name="パス 5684" d="M277.2,34.513l6.563-.6L282.64,30.8Z" transform="translate(-37.834 -4.204)" fill="#231815"/>
  <path id="パス_5685" data-name="パス 5685" d="M283.995,38.945c.518,1.813-.777,3.8-2.936,4.49a6.1,6.1,0,0,1-2.159.173,3.6,3.6,0,1,0,5.958-4.059,4.947,4.947,0,0,0-.95-.95A.519.519,0,0,0,283.995,38.945Z" transform="translate(-38.066 -5.268)" fill="#00aeeb"/>
  <path id="パス_5686" data-name="パス 5686" d="M290.615,31.611a4.073,4.073,0,1,1-8.117.691,4,4,0,0,1,3.627-4.4,4.151,4.151,0,0,1,4.49,3.713Z" transform="translate(-38.555 -3.806)" fill="#e62719"/>
  <path id="パス_5687" data-name="パス 5687" d="M289.454,48a2.493,2.493,0,0,1-2.677,2.159h0A2.455,2.455,0,0,1,284.1,48v-9.24a2.455,2.455,0,0,1,2.677-2.159h0a2.455,2.455,0,0,1,2.677,2.159Z" transform="translate(-38.776 -4.995)" fill="#e62719"/>
  <path id="パス_5688" data-name="パス 5688" d="M285.818,52.159A2.159,2.159,0,1,1,283.659,50a2.138,2.138,0,0,1,2.159,2.159Z" transform="translate(-38.421 -6.824)" fill="#fff23f"/>
  <path id="パス_5689" data-name="パス 5689" d="M292.318,52.159A2.159,2.159,0,1,1,290.159,50a2.193,2.193,0,0,1,2.159,2.159Z" transform="translate(-39.308 -6.824)" fill="#fff23f"/>
  <circle id="楕円形_36" data-name="楕円形 36" cx="0.864" cy="0.864" r="0.864" transform="translate(246.015 26.51)" fill="#fff23f"/>
  <path id="パス_5690" data-name="パス 5690" d="M284.2,30.127l3.713.086-.432-1.813Z" transform="translate(-38.789 -3.876)" fill="#fff23f"/>
  <path id="パス_5691" data-name="パス 5691" d="M297.712,36.8c-.691,2.591-3.713,3.886-6.822,3.109a5.965,5.965,0,0,1-2.591-1.468,4.967,4.967,0,0,0,9.93-.259A5.123,5.123,0,0,0,297.8,36.2C297.8,36.459,297.712,36.632,297.712,36.8Z" transform="translate(-39.349 -4.941)" fill="#00aeeb"/>
  <rect id="長方形_23092" data-name="長方形 23092" width="4.404" height="5.354" transform="translate(245.842 37.304)" fill="#fff"/>
  <path id="パス_5692" data-name="パス 5692" d="M289.045,45.523a1.123,1.123,0,1,1-1.123-1.123h0a1.143,1.143,0,0,1,1.123,1.123Z" transform="translate(-39.144 -6.06)" fill="#231815"/>
  <path id="パス_5693" data-name="パス 5693" d="M284.9,44.545a.305.305,0,0,1,.345-.345c.086,0,.173,0,.173.086.086.086.173.173.173.259,0-.086.086-.173.173-.259s.086-.086.173-.086a.368.368,0,0,1,.259.6c-.086.173-.259.259-.345.345l-.173.173c-.173-.173-.432-.345-.6-.518C284.986,44.718,284.9,44.632,284.9,44.545Z" transform="translate(-38.885 -6.033)" fill="#231815"/>
  <path id="パス_5694" data-name="パス 5694" d="M285.591,46.823l-.432.173.086-.432-.345-.345.518-.086.173-.432.259.432.518.086-.432.345.086.432Z" transform="translate(-38.885 -6.237)" fill="#231815"/>
  <rect id="長方形_23093" data-name="長方形 23093" width="0.518" height="1.036" transform="translate(246.188 40.931)" fill="#231815"/>
  <rect id="長方形_23094" data-name="長方形 23094" width="0.518" height="1.036" transform="translate(247.224 40.931)" fill="#231815"/>
  <rect id="長方形_23095" data-name="長方形 23095" width="0.518" height="1.036" transform="translate(248.174 40.931)" fill="#231815"/>
  <rect id="長方形_23096" data-name="長方形 23096" width="0.518" height="1.036" transform="translate(249.21 40.931)" fill="#231815"/>
  <path id="パス_5695" data-name="パス 5695" d="M275.4,31.995a1.592,1.592,0,1,1-1.209-1.9,1.591,1.591,0,0,1,1.209,1.9Z" transform="translate(-37.16 -4.103)" fill="#e62719"/>
  <path id="パス_5696" data-name="パス 5696" d="M278.172,31.9l-3.972-.6.259,2.072Z" transform="translate(-37.425 -4.272)" fill="#e62719"/>
  <path id="パス_5697" data-name="パス 5697" d="M278.286,31.05,274.4,30.1v2.159Z" transform="translate(-37.452 -4.108)" fill="#e62719"/>
  <path id="パス_5698" data-name="パス 5698" d="M274.733,31.934a.82.82,0,0,1-1.036.6.856.856,0,0,1-.6-1.036.843.843,0,0,1,1.036-.6c.432,0,.691.518.6,1.036Z" transform="translate(-37.267 -4.215)" fill="#fff23f"/>
  <path id="パス_5699" data-name="パス 5699" d="M250.4,46.018c0-.259.432-.518.95-.518h8.031c.518,0,.95.259.95.518h0c0,.259-.432.518-.95.518H251.35C250.832,46.536,250.4,46.277,250.4,46.018Z" transform="translate(-34.176 -6.21)" fill="#00aeeb"/>
  <path id="パス_5700" data-name="パス 5700" d="M247.658,46.018c0,.259-.432.518-.95.518H238.85c-.518,0-.95-.259-.95-.518h0c0-.259.432-.518.95-.518h7.944c.518,0,.95.173.864.518Z" transform="translate(-32.47 -6.21)" fill="#00aeeb"/>
  <path id="パス_5701" data-name="パス 5701" d="M246.845,51.3h1.9l.086,3.195h-1.382l-.864-.691-.691.691h-3.2Z" transform="translate(-33.125 -7.002)" fill="#e62719"/>
  <path id="パス_5702" data-name="パス 5702" d="M254.4,51.3h-1.9v3.195h1.3l.863-.691.691.691h3.2Z" transform="translate(-34.463 -7.002)" fill="#e62719"/>
  <path id="パス_5703" data-name="パス 5703" d="M249.749,50.152H241.2l4.318-7.426,4.231-7.426,4.231,7.426,4.318,7.426Z" transform="translate(-32.921 -4.818)" fill="#00aeeb"/>
  <path id="パス_5704" data-name="パス 5704" d="M244.9,44.272a2.679,2.679,0,0,1,.777-1.9,2.174,2.174,0,0,1,1.727-.777,2.726,2.726,0,0,1,1.641.6,5,5,0,0,1,1.3,2.159,4.149,4.149,0,0,1,1.209-2.159,2.427,2.427,0,0,1,3.368.086h0a2.485,2.485,0,0,1,.777,1.813,3.452,3.452,0,0,1-.864,2.245,23.574,23.574,0,0,1-2.936,2.936c-.518.432-.95.777-1.468,1.209a24.662,24.662,0,0,1-4.49-3.972A2.907,2.907,0,0,1,244.9,44.272Z" transform="translate(-33.426 -5.673)" fill="#00aeeb"/>
  <path id="パス_5705" data-name="パス 5705" d="M250.113,50.7a29.065,29.065,0,0,1-4.577-4.059h0a4.339,4.339,0,0,1-1.036-2.418h0v-.086h0a2.736,2.736,0,0,1,.777-1.986h0a2.773,2.773,0,0,1,1.9-.864h0a2.787,2.787,0,0,1,1.813.691h0a5.673,5.673,0,0,1,1.036,1.468h0a4.9,4.9,0,0,1,1.036-1.554h0a2.787,2.787,0,0,1,1.813-.691h.086a2.811,2.811,0,0,1,1.986.864h0a3.015,3.015,0,0,1,.863,2.072h0a3.711,3.711,0,0,1-.95,2.418h0a23.571,23.571,0,0,1-2.936,2.936h0c-.518.432-.95.777-1.468,1.209h0l-.173.173-.173-.173Zm-4.059-4.4a25.146,25.146,0,0,0,4.231,3.8h0l1.3-1.036h0a22.215,22.215,0,0,0,2.85-2.85h0a2.975,2.975,0,0,0,.863-1.986h0a2.359,2.359,0,0,0-.691-1.641h0a2.572,2.572,0,0,0-1.554-.691h0a1.718,1.718,0,0,0-1.382.6h0a4.273,4.273,0,0,0-1.209,1.986h0l-.259.95-.345-.95a3.673,3.673,0,0,0-1.209-1.986h0a1.961,1.961,0,0,0-1.382-.518h0a2.162,2.162,0,0,0-1.554.691h0a2.322,2.322,0,0,0-.691,1.554h0a3.948,3.948,0,0,0,1.036,2.072Z" transform="translate(-33.371 -5.623)" fill="#fff"/>
  <path id="パス_5706" data-name="パス 5706" d="M248.95,44.618a.484.484,0,0,1-.518.432c-.173,0-.345-.173-.432-.432a.477.477,0,0,1,.95-.086Z" transform="translate(-33.849 -6.019)" fill="#fff23f"/>
  <path id="パス_5707" data-name="パス 5707" d="M248.964,45.932a.432.432,0,1,1-.432-.432h0A.463.463,0,0,1,248.964,45.932Z" transform="translate(-33.862 -6.21)" fill="#fff23f"/>
  <rect id="長方形_23097" data-name="長方形 23097" width="0.604" height="2.591" transform="translate(214.324 40.326)" fill="#fff23f"/>
  <path id="パス_5708" data-name="パス 5708" d="M253.027,47.413a1.813,1.813,0,1,1-1.813-1.813h0a1.824,1.824,0,0,1,1.813,1.813Z" transform="translate(-34.04 -6.224)" fill="#fff23f"/>
  <path id="パス_5709" data-name="パス 5709" d="M249.7,44.832V44.4l1.9.259,1.986.173-1.986.259-1.9.259Z" transform="translate(-34.081 -6.06)" fill="#fff23f"/>
  <path id="パス_5710" data-name="パス 5710" d="M251.164,46.832a.432.432,0,1,1-.432-.432h0a.408.408,0,0,1,.432.432Z" transform="translate(-34.163 -6.333)" fill="#00aeeb"/>
  <path id="パス_5711" data-name="パス 5711" d="M252.764,46.832a.432.432,0,1,1-.432-.432h0A.463.463,0,0,1,252.764,46.832Z" transform="translate(-34.381 -6.333)" fill="#00aeeb"/>
  <path id="パス_5712" data-name="パス 5712" d="M251.164,48.429a.432.432,0,1,1-.432-.432h0c.259-.086.432.173.432.432Z" transform="translate(-34.163 -6.549)" fill="#00aeeb"/>
  <path id="パス_5713" data-name="パス 5713" d="M252.764,48.432a.432.432,0,1,1-.432-.432h0A.463.463,0,0,1,252.764,48.432Z" transform="translate(-34.381 -6.551)" fill="#00aeeb"/>
  <path id="パス_5714" data-name="パス 5714" d="M266.118,33l.086,3.454c0,1.3.259,2.591,2.159,2.591a3.048,3.048,0,0,0,1.209-.259c.432-.173.777.259.259.518a2.838,2.838,0,0,1-1.468.345c-2.245,0-2.763-1.468-2.763-3.109V33.173" transform="translate(-36.251 -4.504)" fill="#00aeeb"/>
  <path id="パス_5715" data-name="パス 5715" d="M268.272,39.663h0a2.957,2.957,0,0,0,1.554-.345h0a.608.608,0,0,0,.345-.432h0c0-.259-.259-.345-.432-.345h0a.317.317,0,0,0-.259.086h0a2.659,2.659,0,0,1-1.123.259h-.086c-1.727,0-1.9-1.209-1.986-2.418h0L266.2,33.1h-.173l.086,3.368c0,1.3.345,2.677,2.159,2.677h.086a2.758,2.758,0,0,0,1.209-.259h.173c.173,0,.259.086.259.173h0a.169.169,0,0,1-.173.173h0a4.065,4.065,0,0,1-1.382.345h-.086c-2.072,0-2.591-1.382-2.591-3.022h0V33.186H265.6v3.281c-.173,1.641.432,3.195,2.677,3.195Z" transform="translate(-36.246 -4.518)" fill="#00aeeb"/>
  <path id="パス_5716" data-name="パス 5716" d="M266.1,38.686a3.545,3.545,0,0,1-.6-2.245h0V32.986h.173V36.44a3.709,3.709,0,0,0,.6,2.159h0a2.485,2.485,0,0,0,2.159.864h0a2.534,2.534,0,0,0,1.382-.345h0l.086-.086h0a.317.317,0,0,0,.086-.259h0a.38.38,0,0,0-.432-.086h0a2.758,2.758,0,0,1-1.209.259h0a1.877,1.877,0,0,1-1.727-.691h0a3.937,3.937,0,0,1-.518-1.9h0l-.086-3.454h.173l.086,3.454a2.956,2.956,0,0,0,.432,1.9h0a1.969,1.969,0,0,0,1.641.6h0a2.39,2.39,0,0,0,1.123-.259h0c.173-.086.432-.086.518.086h0c.086.173.086.345-.086.432h0l-.173.086h0a2.838,2.838,0,0,1-1.468.345h0a2.174,2.174,0,0,1-2.159-.864Z" transform="translate(-36.235 -4.49)" fill="#00aeeb"/>
  <path id="パス_5717" data-name="パス 5717" d="M268.236,39.722h0a2.489,2.489,0,0,1-2.245-.95h0a4.343,4.343,0,0,1-.691-2.331V32.986h.345V36.44h0a3.9,3.9,0,0,0,.6,2.159h0a2.194,2.194,0,0,0,1.986.777h.086a3.911,3.911,0,0,0,1.382-.259h0l.086-.086h0l.086-.086h0a.3.3,0,0,0-.173-.086h-.086a3.465,3.465,0,0,1-1.3.259h-.086a1.877,1.877,0,0,1-1.727-.691h0a4.012,4.012,0,0,1-.518-1.986l-.173-3.54h.345l.086,3.54h0a3.034,3.034,0,0,0,.432,1.727h0a1.894,1.894,0,0,0,1.468.6h.086a2.659,2.659,0,0,0,1.123-.259h0c.086,0,.173-.086.259-.086h0a.66.66,0,0,1,.432.173h0a.317.317,0,0,1,.086.259h0a.449.449,0,0,1-.173.345h0c-.086.086-.086.086-.173.086h0a4.107,4.107,0,0,1-1.554.432Zm-2.159-1.036Z" transform="translate(-36.21 -4.49)" fill="#00aeeb"/>
  <path id="パス_5718" data-name="パス 5718" d="M235.99,33v3.454c0,1.641-.6,3.2-2.763,3.109a3.051,3.051,0,0,1-1.468-.345c-.518-.259-.173-.691.259-.518a2.758,2.758,0,0,0,1.209.259c1.813,0,2.072-1.3,2.159-2.591V33" transform="translate(-31.596 -4.504)" fill="#00aeeb"/>
  <path id="パス_5719" data-name="パス 5719" d="M233.2,39.663h0a2.957,2.957,0,0,1-1.554-.345h0a.608.608,0,0,1-.345-.432h0c0-.259.173-.345.432-.345h0a.317.317,0,0,1,.259.086h0a2.659,2.659,0,0,0,1.123.259h.086c1.727,0,1.9-1.209,1.986-2.418h0l.086-3.368h.173l-.086,3.368c0,1.3-.345,2.677-2.159,2.677h-.086a2.758,2.758,0,0,1-1.209-.259h-.173c-.173,0-.259.086-.259.173h0a.169.169,0,0,0,.173.173h0a4.065,4.065,0,0,0,1.382.345h.086c2.072,0,2.591-1.382,2.677-3.022h0V33.186h.173v3.281c.086,1.641-.518,3.195-2.763,3.195Z" transform="translate(-31.569 -4.518)" fill="#00aeeb"/>
  <path id="パス_5720" data-name="パス 5720" d="M235.363,38.7a3.544,3.544,0,0,0,.6-2.245h0V33h-.173v3.454a3.709,3.709,0,0,1-.6,2.159h0a2.485,2.485,0,0,1-2.159.864h0a2.534,2.534,0,0,1-1.382-.345h0l-.086-.086h0a.317.317,0,0,1-.086-.259h0c.086-.086.259-.173.345-.086h0a2.758,2.758,0,0,0,1.209.259h0a1.877,1.877,0,0,0,1.727-.691h0a3.937,3.937,0,0,0,.518-1.9h0L235.363,33h-.173l-.086,3.454a2.957,2.957,0,0,1-.432,1.9h0a1.969,1.969,0,0,1-1.641.6h0a2.39,2.39,0,0,1-1.123-.259h0c-.173-.086-.432-.086-.518.086h0c-.086.173-.086.345.086.432h0c.086,0,.086.086.173.086h0a2.838,2.838,0,0,0,1.468.345h0A2.714,2.714,0,0,0,235.363,38.7Z" transform="translate(-31.574 -4.504)" fill="#00aeeb"/>
  <path id="パス_5721" data-name="パス 5721" d="M233.2,39.722h0a2.957,2.957,0,0,1-1.554-.345h0c-.086,0-.086-.086-.173-.086h0a.449.449,0,0,1-.173-.345h0a.317.317,0,0,1,.086-.259h0a.66.66,0,0,1,.432-.173h0a.317.317,0,0,1,.259.086h0a2.39,2.39,0,0,0,1.123.259h.086a1.644,1.644,0,0,0,1.468-.6h0a2.715,2.715,0,0,0,.432-1.813h0l.086-3.54h.345l-.086,3.54a3.277,3.277,0,0,1-.518,1.986h0a1.877,1.877,0,0,1-1.727.691H233.2a3.465,3.465,0,0,1-1.3-.259h-.086c-.086,0-.086,0-.173.086h0l.086.086h0l.086.086h0a2.485,2.485,0,0,0,1.382.259h.086a2.43,2.43,0,0,0,1.986-.777h0a3.709,3.709,0,0,0,.6-2.159h0V32.986h.345V36.44a4.277,4.277,0,0,1-.6,2.331h0a3.711,3.711,0,0,1-2.418.95Zm2.159-1.036Z" transform="translate(-31.569 -4.49)" fill="#00aeeb"/>
  <path id="パス_5722" data-name="パス 5722" d="M239.286,22.7h19.084a3.87,3.87,0,0,1,3.886,3.886V34.53a3.87,3.87,0,0,1-3.886,3.886H239.286A3.87,3.87,0,0,1,235.4,34.53V26.586A3.87,3.87,0,0,1,239.286,22.7Z" transform="translate(-32.129 -3.098)" fill="#00aeeb"/>
  <path id="パス_5723" data-name="パス 5723" d="M258.1,38.645a.371.371,0,0,1-.345.345H241.345a.371.371,0,0,1-.345-.345h0a.371.371,0,0,1,.345-.345h16.407A.316.316,0,0,1,258.1,38.645Z" transform="translate(-32.893 -5.227)" fill="#fff"/>
  <path id="パス_5724" data-name="パス 5724" d="M243.618,33.2a2.138,2.138,0,0,1-2.159,2.159h0A2.138,2.138,0,0,1,239.3,33.2h0V30.959a2.138,2.138,0,0,1,2.159-2.159h0a2.138,2.138,0,0,1,2.159,2.159Z" transform="translate(-32.661 -3.931)" fill="#fff"/>
  <path id="パス_5725" data-name="パス 5725" d="M243.1,33.213a1.623,1.623,0,0,1-1.554,1.641h0a1.7,1.7,0,0,1-1.641-1.641h0V31.141a1.623,1.623,0,0,1,1.554-1.641h0a1.7,1.7,0,0,1,1.641,1.641h0Z" transform="translate(-32.743 -4.026)" fill="#3854a3"/>
  <path id="パス_5726" data-name="パス 5726" d="M241.7,28.886h-.6l.259-1.036.345-.95.259.95.345,1.036Z" transform="translate(-32.907 -3.671)" fill="#fff"/>
  <path id="パス_5727" data-name="パス 5727" d="M243.5,28.886h-.6l.259-1.036.345-.95.345.95.259,1.036Z" transform="translate(-33.153 -3.671)" fill="#fff"/>
  <path id="パス_5728" data-name="パス 5728" d="M239.8,28.886h-.6l.345-1.036.259-.95.345.95.259,1.036Z" transform="translate(-32.648 -3.671)" fill="#fff"/>
  <path id="パス_5729" data-name="パス 5729" d="M261.918,33.2a2.138,2.138,0,0,1-2.159,2.159h0A2.138,2.138,0,0,1,257.6,33.2h0V30.959a2.138,2.138,0,0,1,2.159-2.159h0a2.138,2.138,0,0,1,2.159,2.159Z" transform="translate(-35.159 -3.931)" fill="#fff"/>
  <path id="パス_5730" data-name="パス 5730" d="M261.395,33.213a1.623,1.623,0,0,1-1.554,1.641h0a1.7,1.7,0,0,1-1.641-1.641h0V31.141a1.623,1.623,0,0,1,1.554-1.641h0a1.567,1.567,0,0,1,1.554,1.641v2.072Z" transform="translate(-35.241 -4.026)" fill="#3854a3"/>
  <path id="パス_5731" data-name="パス 5731" d="M260,28.886h-.6l.259-1.036L260,26.9l.259.95.345,1.036Z" transform="translate(-35.405 -3.671)" fill="#fff"/>
  <path id="パス_5732" data-name="パス 5732" d="M261.8,28.886h-.6l.259-1.036.345-.95.345.95.259,1.036Z" transform="translate(-35.65 -3.671)" fill="#fff"/>
  <path id="パス_5733" data-name="パス 5733" d="M258.1,28.886h-.6l.345-1.036.259-.95.345.95.345,1.036Z" transform="translate(-35.145 -3.671)" fill="#fff"/>
  <path id="パス_5734" data-name="パス 5734" d="M243.417,39.273l.173-.173h2.245c-.086.173-.086.086-.086.173L244.8,41a1.134,1.134,0,0,1-1.641.259.085.085,0,0,1-.086-.086A1.576,1.576,0,0,1,243.417,39.273Z" transform="translate(-33.151 -5.337)" fill="#e62719"/>
  <path id="パス_5735" data-name="パス 5735" d="M271.026,20.562a2.54,2.54,0,0,1,1.3,1.382,2.016,2.016,0,0,1,0,1.727,2.193,2.193,0,0,1-1.209,1.123,5.407,5.407,0,0,1-2.331.259,4.676,4.676,0,0,1,1.3,1.9,2.285,2.285,0,0,1-1.382,2.85h0a2.2,2.2,0,0,1-1.813-.086,3.578,3.578,0,0,1-1.554-1.641,30.429,30.429,0,0,1-1.3-3.627c-.173-.518-.259-1.123-.432-1.727a22.951,22.951,0,0,1,5.181-2.245A3.326,3.326,0,0,1,271.026,20.562Z" transform="translate(-35.978 -2.773)" fill="#e62719"/>
  <path id="パス_5736" data-name="パス 5736" d="M255.365,24.315a2.54,2.54,0,0,1-1.3-1.382,2.014,2.014,0,0,1,0-1.727,2.192,2.192,0,0,1,1.209-1.123,5.407,5.407,0,0,1,2.331-.259,5.148,5.148,0,0,1-1.382-1.9,2.167,2.167,0,0,1,.086-1.641,2,2,0,0,1,1.3-1.209,2.2,2.2,0,0,1,1.813.086,3.578,3.578,0,0,1,1.554,1.641,30.418,30.418,0,0,1,1.3,3.627c.173.6.259,1.123.432,1.727a22.952,22.952,0,0,1-5.181,2.245A3.1,3.1,0,0,1,255.365,24.315Z" transform="translate(-34.651 -2.036)" fill="#e62719"/>
  <path id="パス_5737" data-name="パス 5737" d="M268.29,29.457c.086.173.173.259.086.432a3.738,3.738,0,0,1-1.382-.086l.173-.345a.475.475,0,0,1,.432-.259h.432C268.118,29.2,268.2,29.37,268.29,29.457Zm-2.159-.95a.647.647,0,0,1,.086.432l-.086.173a3.1,3.1,0,0,1-.691-1.036l.345.086a.674.674,0,0,1,.345.345Zm3.627.173c.086,0,.086.086.173.086l-.086.086a2.7,2.7,0,0,1-.95.777.828.828,0,0,1-.173-.777.674.674,0,0,1,.345-.345.551.551,0,0,1,.518,0c.086.086.173.086.173.173Zm-1.986-.777a.551.551,0,0,1,0,.518.468.468,0,0,1-.691.345c-.086,0-.086,0-.173-.086a.618.618,0,0,1-.432-.777c0-.086,0-.086.086-.086a.674.674,0,0,1,.345-.345.877.877,0,0,1,.864.432Zm-2.245-.95a.55.55,0,0,1,0,.518c-.086.086-.173.259-.259.345l-.518-1.3h.432A.862.862,0,0,1,265.527,26.952Zm3.8.432a.551.551,0,0,1,0,.518.468.468,0,0,1-.691.345c-.086,0-.086,0-.173-.086a.567.567,0,0,1-.432-.691c0-.086,0-.086.086-.173a.674.674,0,0,1,.345-.345.551.551,0,0,1,.518,0,.574.574,0,0,1,.345.432Zm-2.159-1.036a.551.551,0,0,1,0,.518.655.655,0,0,1-.863.345.82.82,0,0,1-.345-.95.674.674,0,0,1,.345-.345.551.551,0,0,1,.518,0,1.885,1.885,0,0,1,.345.432Zm-2.245-1.036a.55.55,0,0,1,0,.518.674.674,0,0,1-.345.345c-.173-.518-.259-.95-.345-1.3l.345.086a.674.674,0,0,1,.345.345Zm5.354,2.418-.345-.173a.507.507,0,0,1-.173-.432.778.778,0,0,1,.086-.432l.259-.259a5.872,5.872,0,0,1,.173,1.3Zm-1.554-1.986a.55.55,0,0,1,0,.518.658.658,0,1,1-1.209-.518h0a.674.674,0,0,1,.345-.345.551.551,0,0,1,.518,0,.371.371,0,0,1,.345.345Zm-2.159-1.036a.55.55,0,0,1,0,.518c-.086.345-.432.432-.777.345a.085.085,0,0,1-.086-.086.567.567,0,0,1-.432-.691c0-.086,0-.086.086-.173a.674.674,0,0,1,.345-.345.551.551,0,0,1,.518,0A1.516,1.516,0,0,1,266.563,24.707Zm-2.245-1.036a.55.55,0,0,1,0,.518.085.085,0,0,1-.086.086l-.086.086a4.951,4.951,0,0,1-.345-1.209h.173a5.28,5.28,0,0,1,.345.518Zm5.354,2.418-.432-.173c-.086,0-.086-.086-.173-.259V25.4A1.536,1.536,0,0,1,269.672,26.089ZM268.2,24.1a.55.55,0,0,1,0,.518.525.525,0,0,1-.777.345.085.085,0,0,1-.086-.086.618.618,0,0,1-.432-.777c0-.086,0-.086.086-.086a.674.674,0,0,1,.345-.345.55.55,0,0,1,.518,0,1.516,1.516,0,0,1,.345.432Zm-2.245-1.036a.55.55,0,0,1,0,.518.7.7,0,0,1-.95.259.707.707,0,0,1-.345-.864.674.674,0,0,1,.345-.345.551.551,0,0,1,.518,0,1.018,1.018,0,0,1,.432.432Zm4.4,1.986h-1.209l.086-.086a1.887,1.887,0,0,1,.432-.259.386.386,0,0,1,.432,0c-.086,0,0,.086.259.345Zm-.6-1.554a.55.55,0,0,1,0,.518.7.7,0,0,1-.95.259.593.593,0,0,1-.259-.777.862.862,0,0,1,.432-.345.55.55,0,0,1,.518,0A1.193,1.193,0,0,1,269.758,23.5Zm-2.245-1.036a.55.55,0,0,1,0,.518c-.086.345-.432.432-.777.345a.085.085,0,0,1-.086-.086.567.567,0,0,1-.432-.691c0-.086,0-.086.086-.173a.674.674,0,0,1,.345-.345.55.55,0,0,1,.518,0c.173.173.345.259.345.432Zm-2.245-.345c-.086.086-.173.173-.259.173a.519.519,0,0,1-.345.086l-.173-.086a4.626,4.626,0,0,1,.95-.432Zm6.649,2.245c-.6.432-.95.691-1.123.6s-.086-.086-.086-.259v-.259a.674.674,0,0,1,.345-.345.551.551,0,0,1,.518,0A1.192,1.192,0,0,1,271.917,24.362Zm-.518-1.468a.55.55,0,0,1,0,.518.658.658,0,1,1-1.209-.518.674.674,0,0,1,.345-.345.631.631,0,0,1,.864.345Zm-2.245-1.036a.55.55,0,0,1,0,.518.655.655,0,0,1-.863.345.631.631,0,0,1-.345-.864.674.674,0,0,1,.345-.345.551.551,0,0,1,.518,0A.674.674,0,0,1,269.154,21.858Zm-2.159-.6c0,.086-.086.259-.086.345l-.259.259a.653.653,0,0,1-.345.086l-.345-.173a1.231,1.231,0,0,1,1.036-.518Zm5.526,1.813-.086.086a.519.519,0,0,1-.345-.086.567.567,0,0,1-.432-.691c0-.086,0-.086.086-.173s.086-.173.173-.259.173-.173.345-.086a2.057,2.057,0,0,1,.259,1.209Zm-1.727-1.813a.55.55,0,0,1,0,.518.658.658,0,1,1-1.209-.518.674.674,0,0,1,.345-.345.655.655,0,0,1,.863.345Zm-2.245-.432c-.086.345-.432.432-.777.345a.085.085,0,0,1-.086-.086c-.086,0-.173-.086-.259-.173l1.209-.432a.519.519,0,0,1-.086.345Zm2.85,0c.173.086.259.259.345.345A.734.734,0,0,1,272,21.6a.738.738,0,0,1-.6,0,.674.674,0,0,1-.345-.345.38.38,0,0,1-.086-.432l.086-.086Zm-2.245-.432a1.774,1.774,0,0,1,.95,0A.678.678,0,0,1,269.154,20.39Z" transform="translate(-36.005 -2.774)" fill="#fff"/>
  <path id="パス_5738" data-name="パス 5738" d="M258.04,15.426a.38.38,0,0,1-.086-.432,2.561,2.561,0,0,1,1.382.173l-.173.345a.475.475,0,0,1-.432.259H258.3A1.193,1.193,0,0,0,258.04,15.426Zm2.245.95c-.086-.173-.173-.259-.086-.432l.086-.173a3.1,3.1,0,0,1,.691,1.036l-.345-.086A.674.674,0,0,1,260.285,16.376Zm-3.713-.173a.085.085,0,0,0-.086-.086l.086-.173a2.7,2.7,0,0,1,.95-.777.828.828,0,0,1,.173.777.674.674,0,0,1-.345.345.55.55,0,0,1-.518,0C256.658,16.29,256.658,16.2,256.572,16.2Zm2.072.691a.551.551,0,0,1,0-.518.658.658,0,1,1,1.209.518.674.674,0,0,1-.345.345.551.551,0,0,1-.518,0,.371.371,0,0,1-.345-.345Zm2.159,1.036a.551.551,0,0,1,0-.518c.086-.086.173-.259.259-.345l.518,1.3h-.432a.862.862,0,0,1-.345-.432Zm-3.8-.345a.551.551,0,0,1,0-.518.468.468,0,0,1,.691-.345c.086,0,.086,0,.173.086a.618.618,0,0,1,.432.777c0,.086,0,.086-.086.086a.674.674,0,0,1-.345.345.55.55,0,0,1-.518,0A1.516,1.516,0,0,1,257,17.585Zm2.245,1.036a.55.55,0,0,1,0-.518.655.655,0,0,1,.864-.345.631.631,0,0,1,.345.864.674.674,0,0,1-.345.345.55.55,0,0,1-.518,0c-.173-.086-.345-.259-.345-.345Zm2.245.95a.55.55,0,0,1,0-.518.674.674,0,0,1,.345-.345,11.3,11.3,0,0,0,.432,1.3l-.345-.086a.4.4,0,0,1-.432-.345ZM256.14,17.24l.345.173a.507.507,0,0,1,.173.432v.432l-.259.259a1.778,1.778,0,0,1-.259-1.3Zm1.468,1.986a.55.55,0,0,1,0-.518.7.7,0,0,1,.95-.259.707.707,0,0,1,.345.864.674.674,0,0,1-.345.345.551.551,0,0,1-.518,0,1.943,1.943,0,0,1-.432-.432Zm2.245.95a.55.55,0,0,1,0-.518.7.7,0,0,1,.95-.259.593.593,0,0,1,.259.777.674.674,0,0,1-.345.345.551.551,0,0,1-.518,0C260.026,20.435,259.853,20.348,259.853,20.176Zm2.245,1.036a.55.55,0,0,1,0-.518c0-.086.086-.086.086-.173l.086-.086a6.362,6.362,0,0,1,.345,1.209h-.173C262.271,21.471,262.1,21.385,262.1,21.212Zm-5.44-2.418.432.173c.086.086.173.173.173.259v.345a4.741,4.741,0,0,1-.6-.777Zm1.554,1.986a.55.55,0,0,1,0-.518c.086-.345.432-.432.777-.345a.085.085,0,0,1,.086.086.567.567,0,0,1,.432.691c0,.086,0,.086-.086.173a.674.674,0,0,1-.345.345.55.55,0,0,1-.518,0,1.516,1.516,0,0,1-.345-.432Zm2.245,1.036a.55.55,0,0,1,0-.518c.086-.345.432-.432.777-.345a.085.085,0,0,1,.086.086.567.567,0,0,1,.432.691c0,.086,0,.086-.086.173a.674.674,0,0,1-.345.345.55.55,0,0,1-.518,0c-.173-.173-.345-.259-.345-.432Zm-4.49-1.986a2.853,2.853,0,0,1,1.209,0l-.086.086a.475.475,0,0,1-.432.259.385.385,0,0,1-.432,0c0-.173-.086-.259-.259-.345Zm.6,1.554a.55.55,0,0,1,0-.518.525.525,0,0,1,.777-.345.085.085,0,0,1,.086.086.618.618,0,0,1,.432.777c0,.086,0,.086-.086.086a.862.862,0,0,1-.432.345.551.551,0,0,1-.518,0c-.086-.173-.173-.259-.259-.432Zm2.245,1.036a.55.55,0,0,1,0-.518c.086-.345.432-.432.777-.345a.085.085,0,0,1,.086.086.567.567,0,0,1,.432.691c0,.086,0,.086-.086.173a.674.674,0,0,1-.345.345.551.551,0,0,1-.518,0A1.516,1.516,0,0,1,258.817,22.421Zm2.331.345a.784.784,0,0,1,.6-.259l.173.086a4.629,4.629,0,0,1-.95.432ZM254.5,20.521c.6-.432.95-.691,1.123-.6s.086.086.086.259v.259a.674.674,0,0,1-.345.345.551.551,0,0,1-.518,0A1.191,1.191,0,0,1,254.5,20.521Zm.518,1.468a.55.55,0,0,1,0-.518.468.468,0,0,1,.691-.345c.086,0,.086,0,.173.086a.618.618,0,0,1,.432.777c0,.086,0,.086-.086.086a.674.674,0,0,1-.345.345.55.55,0,0,1-.518,0C255.19,22.248,255.017,22.162,255.017,21.989Zm2.159,1.036a.55.55,0,0,1,0-.518.655.655,0,0,1,.863-.345.631.631,0,0,1,.345.864.674.674,0,0,1-.345.345.55.55,0,0,1-.518,0A.674.674,0,0,1,257.176,23.025Zm2.245.6c0-.086.086-.259.086-.345.086-.086.173-.173.259-.173a.519.519,0,0,1,.345-.086l.345.173c-.345.173-.777.345-1.123.518,0,.086,0,0,.086-.086Zm-5.526-1.813.086-.086a.519.519,0,0,1,.345.086.567.567,0,0,1,.432.691c0,.086,0,.086-.086.173s-.086.173-.173.259-.173.173-.345.086a1.641,1.641,0,0,1-.259-1.209Zm1.727,1.813a.55.55,0,0,1,0-.518.658.658,0,1,1,1.209.518h0a.674.674,0,0,1-.345.345.55.55,0,0,1-.518,0c-.173-.086-.345-.173-.345-.345Zm2.245.432a.631.631,0,0,1,.864-.345c.086.086.173.086.259.173l-1.209.432a.317.317,0,0,1,.086-.259Zm-2.936,0c-.173-.086-.259-.259-.345-.345a1.884,1.884,0,0,1-.345-.432.738.738,0,0,1,.6,0,.674.674,0,0,1,.345.345.38.38,0,0,1,.086.432l-.086.086Zm2.331.345h-.95a.932.932,0,0,1,.95,0Z" transform="translate(-34.649 -2.042)" fill="#fff"/>
  <path id="パス_5739" data-name="パス 5739" d="M264.836,49.263l-.6-2.331,2.331.6.691.173a3.387,3.387,0,1,0-4.231,2.245,3.867,3.867,0,0,0,1.986,0Z" transform="translate(-35.573 -5.915)" fill="#e62719"/>
  <path id="パス_5740" data-name="パス 5740" d="M236.091,42.07l.6,2.331-2.332-.6-.691-.173A3.387,3.387,0,1,0,237.9,41.38a4.21,4.21,0,0,0-2.072,0Z" transform="translate(-31.87 -5.63)" fill="#e62719"/>
  <path id="パス_5741" data-name="パス 5741" d="M242.145,33.191a1.143,1.143,0,0,1-1.123,1.123h0a1.143,1.143,0,0,1-1.123-1.123h0V31.723a1.143,1.143,0,0,1,1.123-1.123h0a1.143,1.143,0,0,1,1.123,1.123Z" transform="translate(-32.743 -4.176)" fill="#00aeeb"/>
  <path id="パス_5742" data-name="パス 5742" d="M260.445,33.191a1.143,1.143,0,0,1-1.123,1.123h0a1.143,1.143,0,0,1-1.123-1.123h0V31.723a1.143,1.143,0,0,1,1.123-1.123h0a1.143,1.143,0,0,1,1.123,1.123Z" transform="translate(-35.241 -4.176)" fill="#00aeeb"/>
  <g id="グループ_3743" data-name="グループ 3743" transform="translate(144.466 21.07)">
    <g id="グループ_3741" data-name="グループ 3741" transform="translate(2.763)">
      <path id="パス_5743" data-name="パス 5743" d="M171.2,32.7l7.944,7.081,2.418-4.836Z" transform="translate(-170.596 -25.533)" fill="#e62719"/>
      <path id="パス_5744" data-name="パス 5744" d="M193.781,24.4,186.7,32.344l4.836,2.418Z" transform="translate(-172.711 -24.4)" fill="#e62719"/>
      <path id="パス_5745" data-name="パス 5745" d="M176.976,49.9a.59.59,0,0,1-.6.6H171.1a.59.59,0,0,1-.6-.6h0a.59.59,0,0,1,.6-.6h5.267c.345-.086.6.259.6.6Z" transform="translate(-170.5 -27.796)" fill="#fff23f"/>
      <path id="パス_5746" data-name="パス 5746" d="M191.9,39.717a6.217,6.217,0,1,0-12.435,0,6.172,6.172,0,0,0,2.591,5.008h-2.85a3.109,3.109,0,1,0,0,6.217h5.008a3.1,3.1,0,0,0,3.109-3.109,2.736,2.736,0,0,0-.777-1.986A6.227,6.227,0,0,0,191.9,39.717Z" transform="translate(-171.264 -25.642)" fill="#3854a3"/>
      <path id="パス_5747" data-name="パス 5747" d="M188.8,37.722l2.5-2.072-1.382-.95Z" transform="translate(-172.998 -25.806)" fill="#fff"/>
      <path id="パス_5748" data-name="パス 5748" d="M181.5,40.322,184,38.25l-1.3-.95Z" transform="translate(-172.001 -26.161)" fill="#fff"/>
      <path id="パス_5749" data-name="パス 5749" d="M191.954,37.677a.777.777,0,1,1-.777-.777A.774.774,0,0,1,191.954,37.677Z" transform="translate(-173.216 -26.106)" fill="#fff"/>
      <path id="パス_5750" data-name="パス 5750" d="M185.454,39.577a.777.777,0,1,1-.777-.777A.774.774,0,0,1,185.454,39.577Z" transform="translate(-172.329 -26.365)" fill="#fff"/>
      <path id="パス_5751" data-name="パス 5751" d="M189.527,44.764a2.939,2.939,0,0,1-1.727,0v.086a1.7,1.7,0,1,0,3.281-.864V43.9A3.053,3.053,0,0,1,189.527,44.764Z" transform="translate(-172.861 -27.061)" fill="#fff"/>
      <path id="パス_5752" data-name="パス 5752" d="M187.344,53.2a1.328,1.328,0,0,1-1.3,1.3H176.9a1.328,1.328,0,0,1-1.3-1.3h0a1.328,1.328,0,0,1,1.3-1.3h9.153a1.272,1.272,0,0,1,1.3,1.3Z" transform="translate(-171.196 -28.153)" fill="#e62719"/>
      <path id="パス_5753" data-name="パス 5753" d="M178.545,53.223a1.123,1.123,0,1,1-1.123-1.123A1.143,1.143,0,0,1,178.545,53.223Z" transform="translate(-171.292 -28.181)" fill="#fff"/>
      <path id="パス_5754" data-name="パス 5754" d="M181.645,53.223a1.123,1.123,0,1,1-1.123-1.123A1.143,1.143,0,0,1,181.645,53.223Z" transform="translate(-171.715 -28.181)" fill="#fff"/>
      <path id="パス_5755" data-name="パス 5755" d="M184.745,53.223a1.123,1.123,0,1,1-1.123-1.123A1.143,1.143,0,0,1,184.745,53.223Z" transform="translate(-172.138 -28.181)" fill="#fff"/>
      <path id="パス_5756" data-name="パス 5756" d="M187.845,53.223a1.123,1.123,0,1,1-1.123-1.123A1.143,1.143,0,0,1,187.845,53.223Z" transform="translate(-172.561 -28.181)" fill="#fff"/>
      <g id="グループ_3740" data-name="グループ 3740" transform="translate(7.081 20.552)">
        <path id="パス_5757" data-name="パス 5757" d="M180.082,50.791a.938.938,0,0,1-1.123-.259,1.741,1.741,0,0,1-.259-.95,1.9,1.9,0,0,1,.086-.691,1.806,1.806,0,0,1,.345-.518,1.227,1.227,0,0,1,.518-.173.939.939,0,0,1,.432.086v.6a.432.432,0,0,0-.691,0,1.28,1.28,0,0,0-.086.6c0,.259,0,.432.086.518.086.173.173.173.345.173.086,0,.173-.086.345-.173Z" transform="translate(-178.7 -48.2)" fill="#fff"/>
        <path id="パス_5758" data-name="パス 5758" d="M181.45,48.3a.7.7,0,0,1,.691.345,1.871,1.871,0,0,1,0,1.9.864.864,0,0,1-1.382,0,1.741,1.741,0,0,1-.259-.95,1.683,1.683,0,0,1,.086-.691.862.862,0,0,1,.345-.432A1.227,1.227,0,0,1,181.45,48.3Zm0,.518c-.086,0-.173.086-.259.173a2.159,2.159,0,0,0,0,1.209c.086.173.173.173.259.173s.173-.086.259-.173a2.158,2.158,0,0,0,0-1.209C181.623,48.9,181.536,48.818,181.45,48.818Z" transform="translate(-178.946 -48.214)" fill="#fff"/>
        <path id="パス_5759" data-name="パス 5759" d="M183.85,48.3a.7.7,0,0,1,.691.345,1.871,1.871,0,0,1,0,1.9.864.864,0,0,1-1.382,0,1.741,1.741,0,0,1-.259-.95,1.684,1.684,0,0,1,.086-.691.862.862,0,0,1,.345-.432A1.228,1.228,0,0,1,183.85,48.3Zm0,.518c-.086,0-.173.086-.259.173a2.158,2.158,0,0,0,0,1.209c.086.173.173.173.259.173s.173-.086.259-.173a2.159,2.159,0,0,0,0-1.209C184.023,48.9,183.936,48.818,183.85,48.818Z" transform="translate(-179.273 -48.214)" fill="#fff"/>
        <path id="パス_5760" data-name="パス 5760" d="M185.4,48.4h.6v2.072h.777v.518H185.4V48.4Z" transform="translate(-179.614 -48.227)" fill="#fff"/>
      </g>
    </g>
    <rect id="長方形_23098" data-name="長方形 23098" width="11.916" height="0.691" transform="matrix(0.969, -0.249, 0.249, 0.969, 13.395, 17.023)" fill="#fff"/>
    <path id="パス_5761" data-name="パス 5761" d="M190.809,42.354a1.554,1.554,0,1,1-1.554-1.554A1.6,1.6,0,0,1,190.809,42.354Z" transform="translate(-170.084 -26.638)" fill="#e62719"/>
    <g id="グループ_3742" data-name="グループ 3742" transform="translate(0 18.738)">
      <path id="パス_5762" data-name="パス 5762" d="M173.086,49.01h-1.123l.777-.777a.611.611,0,0,0-.864-.864l-1.382,1.382-1.382-1.382a.611.611,0,1,0-.864.864l.777.777H167.9a.6.6,0,1,0,0,1.209h1.123L168.25,51a.611.611,0,1,0,.864.864l1.382-1.382,1.382,1.382A.611.611,0,0,0,172.74,51l-.777-.777h1.123a.6.6,0,0,0,0-1.209Z" transform="translate(-167.3 -46.247)" fill="#3854a3"/>
      <path id="パス_5763" data-name="パス 5763" d="M170.877,47.654a.777.777,0,1,0-.777-.777A.774.774,0,0,0,170.877,47.654Z" transform="translate(-167.682 -46.1)" fill="#3854a3"/>
      <path id="パス_5764" data-name="パス 5764" d="M170.877,52.1a.777.777,0,1,0,.777.777A.911.911,0,0,0,170.877,52.1Z" transform="translate(-167.682 -46.919)" fill="#3854a3"/>
    </g>
    <path id="パス_5765" data-name="パス 5765" d="M189.046,44.954h0l-.173-1.554-1.123,1.036h0a1.192,1.192,0,0,0-.259.345.794.794,0,1,0,1.468.6A.939.939,0,0,0,189.046,44.954Z" transform="translate(-170.048 -26.993)" fill="#00aeeb"/>
  </g>
</svg>
