<svg id="グループ_2015" data-name="グループ 2015" xmlns="http://www.w3.org/2000/svg" xmlns:xlink="http://www.w3.org/1999/xlink" width="40" height="40" viewBox="0 0 40 40">
  <defs>
    <clipPath id="clip-path">
      <rect id="長方形_476" data-name="長方形 476" width="18" height="15" transform="translate(0.208 -0.26)" fill="#fff"/>
    </clipPath>
  </defs>
  <circle id="楕円形_19" data-name="楕円形 19" cx="20" cy="20" r="20" transform="translate(40 40) rotate(180)" fill="#1d976c"/>
  <g id="グループ_826" data-name="グループ 826" transform="translate(10.792 13.26)">
    <g id="グループ_825" data-name="グループ 825" clip-path="url(#clip-path)">
      <path id="パス_822" data-name="パス 822" d="M16.041,14.74H2.168A2.171,2.171,0,0,1,0,12.573V2.168A2.171,2.171,0,0,1,2.168,0H16.041a2.171,2.171,0,0,1,2.168,2.168v10.4a2.171,2.171,0,0,1-2.168,2.168M2.168.867a1.3,1.3,0,0,0-1.3,1.3v10.4a1.3,1.3,0,0,0,1.3,1.3H16.041a1.3,1.3,0,0,0,1.3-1.3V2.168a1.3,1.3,0,0,0-1.3-1.3Z" fill="#fff"/>
      <path id="パス_823" data-name="パス 823" d="M9.1,8.937a.436.436,0,0,1-.249-.078L.185,2.789a.434.434,0,0,1,.5-.711L9.1,7.974l8.422-5.9a.434.434,0,0,1,.5.711L9.353,8.858a.436.436,0,0,1-.249.078" transform="translate(0 -0.266)" fill="#fff"/>
    </g>
  </g>
</svg>
