<svg id="グループ_883" data-name="グループ 883" xmlns="http://www.w3.org/2000/svg" xmlns:xlink="http://www.w3.org/1999/xlink" width="14" height="17" viewBox="0 0 14 17">
  <defs>
    <clipPath id="clip-path">
      <rect id="長方形_492" data-name="長方形 492" width="14" height="17" fill="#fff"/>
    </clipPath>
  </defs>
  <g id="グループ_882" data-name="グループ 882" clip-path="url(#clip-path)">
    <path id="パス_835" data-name="パス 835" d="M7,17a.416.416,0,0,1-.2-.052C6.521,16.794,0,13.119,0,7.043A6.94,6.94,0,0,1,6.823,0L7,0H7a6.948,6.948,0,0,1,7,6.879l0,.175c0,6.065-6.519,9.74-6.8,9.894A.413.413,0,0,1,7,17M7,.81H7l-.158,0A6.124,6.124,0,0,0,.826,7.032c0,5.036,5.088,8.425,6.175,9.09,1.087-.665,6.175-4.053,6.175-9.08l0-.164a5.983,5.983,0,0,0-1.81-4.293A6.188,6.188,0,0,0,7,.81" transform="translate(0)" fill="#fff"/>
    <path id="パス_836" data-name="パス 836" d="M7.885,10.667a2.834,2.834,0,1,1,2.882-2.833,2.861,2.861,0,0,1-2.882,2.833m0-4.857A2.024,2.024,0,1,0,9.943,7.833,2.044,2.044,0,0,0,7.885,5.81" transform="translate(-0.884 -0.952)" fill="#fff"/>
  </g>
</svg>
