<svg xmlns="http://www.w3.org/2000/svg" xmlns:xlink="http://www.w3.org/1999/xlink" width="20" height="20" viewBox="0 0 20 20">
  <defs>
    <clipPath id="clip-path">
      <rect id="長方形_482" data-name="長方形 482" width="20" height="20" transform="translate(0 0)" fill="#fff"/>
    </clipPath>
  </defs>
  <g id="グループ_856" data-name="グループ 856" clip-path="url(#clip-path)">
    <path id="パス_832" data-name="パス 832" d="M17.614,20c-.076,0-.15,0-.226-.01A19.557,19.557,0,0,1,8.91,16.982,19.237,19.237,0,0,1,3.022,11.1,19.457,19.457,0,0,1,.01,2.612,2.393,2.393,0,0,1,2.177.01C2.249,0,2.32,0,2.391,0h2.9A2.4,2.4,0,0,1,7.653,2.055,11.856,11.856,0,0,0,8.3,4.64a2.388,2.388,0,0,1-.537,2.52L6.8,8.114a14.835,14.835,0,0,0,5.069,5.058l.954-.953a2.4,2.4,0,0,1,2.528-.54,11.84,11.84,0,0,0,2.584.643A2.391,2.391,0,0,1,20,14.742V17.6A2.4,2.4,0,0,1,17.614,20M5.282.956H2.391c-.041,0-.084,0-.126.006a1.436,1.436,0,0,0-1.3,1.557,18.517,18.517,0,0,0,2.865,8.069,18.287,18.287,0,0,0,5.6,5.591,18.582,18.582,0,0,0,8.057,2.862c.038,0,.083,0,.128,0a1.437,1.437,0,0,0,1.429-1.439v-2.88a1.435,1.435,0,0,0-1.236-1.455,12.741,12.741,0,0,1-2.79-.695A1.448,1.448,0,0,0,13.5,12.9l-1.213,1.212a.485.485,0,0,1-.576.077A15.793,15.793,0,0,1,5.786,8.273.477.477,0,0,1,5.863,7.7L7.079,6.486A1.436,1.436,0,0,0,7.4,4.976a12.815,12.815,0,0,1-.7-2.791A1.44,1.44,0,0,0,5.282.956" transform="translate(0 0)" fill="#fff"/>
  </g>
</svg>
