<svg xmlns="http://www.w3.org/2000/svg" xmlns:xlink="http://www.w3.org/1999/xlink" width="29" height="29" viewBox="0 0 29 29">
  <defs>
    <clipPath id="clip-path">
      <rect id="長方形_479" data-name="長方形 479" width="29" height="29" fill="#fff"/>
    </clipPath>
  </defs>
  <g id="グループ_2014" data-name="グループ 2014" transform="translate(-600 -6496)">
    <g id="グループ_846" data-name="グループ 846" transform="translate(600 6496)">
      <g id="グループ_845" data-name="グループ 845" clip-path="url(#clip-path)">
        <path id="パス_826" data-name="パス 826" d="M10.366,2.516a9.824,9.824,0,0,0-3.257.631A6.57,6.57,0,0,0,4.734,4.7,6.58,6.58,0,0,0,3.189,7.08a9.868,9.868,0,0,0-.618,3.26c-.062,1.432-.077,1.889-.07,5.534s.023,4.1.091,5.535a9.837,9.837,0,0,0,.631,3.257,6.567,6.567,0,0,0,1.553,2.375,6.583,6.583,0,0,0,2.381,1.544,9.857,9.857,0,0,0,3.259.618c1.432.063,1.89.077,5.534.07s4.1-.023,5.536-.091a9.864,9.864,0,0,0,3.257-.63,6.858,6.858,0,0,0,3.918-3.934,9.826,9.826,0,0,0,.618-3.259c.063-1.433.078-1.89.071-5.536s-.023-4.1-.092-5.534a9.842,9.842,0,0,0-.63-3.258,6.586,6.586,0,0,0-1.552-2.375A6.569,6.569,0,0,0,24.7,3.113a9.828,9.828,0,0,0-3.26-.618C20,2.432,19.547,2.418,15.9,2.425s-4.1.023-5.535.091m.157,24.271a7.441,7.441,0,0,1-2.493-.457,4.441,4.441,0,0,1-2.553-2.543,7.428,7.428,0,0,1-.467-2.492c-.066-1.415-.082-1.84-.088-5.425s.006-4.009.068-5.425a7.428,7.428,0,0,1,.457-2.493A4.445,4.445,0,0,1,7.989,5.4a7.431,7.431,0,0,1,2.492-.467c1.416-.067,1.84-.082,5.424-.089s4.01.006,5.426.068a7.422,7.422,0,0,1,2.492.457,4.445,4.445,0,0,1,2.554,2.544,7.4,7.4,0,0,1,.466,2.491c.068,1.416.083,1.84.089,5.425s-.006,4.009-.069,5.425a7.444,7.444,0,0,1-.457,2.494A4.45,4.45,0,0,1,23.863,26.3a7.43,7.43,0,0,1-2.491.467c-1.416.067-1.84.082-5.426.089s-4.008-.007-5.424-.068M21.467,8.672a1.611,1.611,0,1,0,1.608-1.614,1.611,1.611,0,0,0-1.608,1.614M9.032,15.862a6.894,6.894,0,1,0,6.88-6.907,6.893,6.893,0,0,0-6.88,6.907m2.418,0a4.475,4.475,0,1,1,4.483,4.466,4.475,4.475,0,0,1-4.483-4.466" transform="translate(-1.415 -1.372)" fill="#fff"/>
      </g>
    </g>
  </g>
</svg>
