<svg xmlns="http://www.w3.org/2000/svg" xmlns:xlink="http://www.w3.org/1999/xlink" width="50" height="50" viewBox="0 0 50 50">
  <defs>
    <clipPath id="clip-path">
      <rect id="長方形_465" data-name="長方形 465" width="16" height="16" fill="#fff"/>
    </clipPath>
  </defs>
  <g id="グループ_796" data-name="グループ 796" transform="translate(-215.001 -365)">
    <circle id="楕円形_13" data-name="楕円形 13" cx="25" cy="25" r="25" transform="translate(215.001 365)" fill="#1d976c"/>
    <g id="グループ_795" data-name="グループ 795" transform="translate(232.001 382)">
      <g id="グループ_794" data-name="グループ 794" clip-path="url(#clip-path)">
        <path id="パス_820" data-name="パス 820" d="M8,16a.893.893,0,0,1-.629-.26L.26,8.63a.892.892,0,0,1,0-1.259L7.371.26A.89.89,0,1,1,8.63,1.518L3.035,7.111H15.111a.889.889,0,1,1,0,1.778H3.035L8.63,14.482A.889.889,0,0,1,8,16" transform="translate(0 0)" fill="#fff"/>
      </g>
    </g>
  </g>
</svg>
