<svg id="コンポーネント_7_7" data-name="コンポーネント 7 – 7" xmlns="http://www.w3.org/2000/svg" xmlns:xlink="http://www.w3.org/1999/xlink" width="50" height="50" viewBox="0 0 50 50">
  <defs>
    <clipPath id="clip-path">
      <rect id="長方形_478" data-name="長方形 478" width="20.889" height="20.928" transform="translate(0 0)" fill="#fff"/>
    </clipPath>
  </defs>
  <circle id="楕円形_19" data-name="楕円形 19" cx="25" cy="25" r="25" transform="translate(50 50) rotate(180)" fill="#1d976c"/>
  <g id="グループ_841" data-name="グループ 841" transform="translate(15 15)">
    <g id="グループ_840" data-name="グループ 840" clip-path="url(#clip-path)">
      <path id="パス_825" data-name="パス 825" d="M18.4,20.928c-.079,0-.157,0-.236-.01A20.4,20.4,0,0,1,9.306,17.77a20.11,20.11,0,0,1-6.15-6.152A20.384,20.384,0,0,1,.01,2.733,2.5,2.5,0,0,1,2.274.01C2.349,0,2.423,0,2.5,0H5.523a2.506,2.506,0,0,1,2.47,2.15,12.426,12.426,0,0,0,.672,2.7A2.5,2.5,0,0,1,8.1,7.492l-1,1A15.509,15.509,0,0,0,12.4,13.784l1-1a2.509,2.509,0,0,1,2.64-.565,12.348,12.348,0,0,0,2.7.673,2.5,2.5,0,0,1,2.156,2.531V18.42A2.5,2.5,0,0,1,18.4,20.928M5.517,1H2.5c-.043,0-.088,0-.132.006A1.5,1.5,0,0,0,1,2.635,19.4,19.4,0,0,0,4,11.078a19.117,19.117,0,0,0,5.85,5.85,19.385,19.385,0,0,0,8.415,3c.04,0,.087,0,.134,0a1.5,1.5,0,0,0,1.493-1.506V15.408A1.5,1.5,0,0,0,18.6,13.885a13.287,13.287,0,0,1-2.914-.727A1.51,1.51,0,0,0,14.1,13.5l-1.267,1.268a.506.506,0,0,1-.6.081A16.511,16.511,0,0,1,6.043,8.657a.5.5,0,0,1,.081-.6l1.27-1.27a1.5,1.5,0,0,0,.335-1.58A13.43,13.43,0,0,1,7,2.286,1.505,1.505,0,0,0,5.517,1" fill="#fff"/>
    </g>
  </g>
</svg>
