<svg xmlns="http://www.w3.org/2000/svg" xmlns:xlink="http://www.w3.org/1999/xlink" width="35" height="25" viewBox="0 0 35 25">
  <defs>
    <clipPath id="clip-path">
      <rect id="長方形_481" data-name="長方形 481" width="35" height="25" fill="none"/>
    </clipPath>
  </defs>
  <g id="グループ_854" data-name="グループ 854" transform="translate(0 0)">
    <g id="グループ_853" data-name="グループ 853" transform="translate(0 0)" clip-path="url(#clip-path)">
      <path id="パス_830" data-name="パス 830" d="M34.269,3.9A4.429,4.429,0,0,0,31.175.746C28.445,0,17.5,0,17.5,0S6.556,0,3.826.746A4.43,4.43,0,0,0,.731,3.9,47.4,47.4,0,0,0,0,12.5a47.4,47.4,0,0,0,.731,8.6,4.43,4.43,0,0,0,3.095,3.158C6.556,25,17.5,25,17.5,25s10.945,0,13.674-.746A4.43,4.43,0,0,0,34.269,21.1,47.4,47.4,0,0,0,35,12.5a47.4,47.4,0,0,0-.731-8.6" transform="translate(0 0)" fill="#fff"/>
      <path id="パス_831" data-name="パス 831" d="M25.189,23.309l9.093-5.357-9.093-5.357Z" transform="translate(-11.189 -5.451)" fill="#1d976c"/>
    </g>
  </g>
</svg>
