<svg xmlns="http://www.w3.org/2000/svg" xmlns:xlink="http://www.w3.org/1999/xlink" width="183.819" height="155.666" viewBox="0 0 183.819 155.666">
  <defs>
    <clipPath id="clip-path">
      <rect id="長方形_23249" data-name="長方形 23249" width="183.819" height="155.666" fill="none"/>
    </clipPath>
  </defs>
  <g id="グループ_4133" data-name="グループ 4133" transform="translate(-751.765 -391.862)">
    <g id="グループ_4006" data-name="グループ 4006" transform="translate(751.765 391.862)" clip-path="url(#clip-path)">
      <path id="パス_11742" data-name="パス 11742" d="M1039.81,454.821c-1.718-7.747-4.951-11.544-5.395-12.037-4.689-6.468-10.147-10.194-16.223-11.073a22.667,22.667,0,0,0-15.665,3.949,12.789,12.789,0,0,0-6.805,4.019,29.121,29.121,0,0,0-6.373,9.436c-2.29,5.42-3.827,13.96,1.856,23.872a.938.938,0,0,0,.158.2,39.259,39.259,0,0,0,7.875,5.69c-1.438.807-7.431,3.606-6.508,13.144.005.061.522,6.086-4.2,9.657a17.454,17.454,0,0,0-5.309,5.661c-2,3.439-3.555,9.121.391,16.655a.959.959,0,0,0,.849.514h.024l26.351-.659a.959.959,0,0,0,.935-.985l-.988-34.409a.961.961,0,0,0-.317-.686l-8.162-7.346c.924.417,1.895.812,2.909,1.17a30.974,30.974,0,0,0,10.307,1.829c6.234,0,13.41-2.058,20.634-8.47.016-.014.031-.029.046-.044.269-.273,6.552-6.827,3.61-20.09" transform="translate(-884.202 -414.75)" fill="#fff23f"/>
      <path id="パス_11743" data-name="パス 11743" d="M1052.616,604.28l-9.909-2.853a.976.976,0,0,0-.259-.038l-35.391-.476a.921.921,0,0,0-.285.038l-4.954,1.427a1,1,0,0,0-.718.973l1.18,82.265c.007.545.448,5.7,1.662,7.085h49.076c-.126-1.39.317-6.549.317-7.1V605.239a1,1,0,0,0-.718-.959" transform="translate(-895.709 -512.55)" fill="#231815"/>
      <path id="パス_11744" data-name="パス 11744" d="M984.777,694.892l1.695-69.8a7.416,7.416,0,0,0-4.95-6.964c-9.518-3.42-12.407-10.493-13.191-13.239a1.027,1.027,0,0,0-1.39-.667C948.967,611.863,947.03,627.2,947.03,627.2s-6.784,47.485-6.9,67.693Z" transform="translate(-860.51 -514.415)" fill="#fff"/>
      <path id="パス_11745" data-name="パス 11745" d="M990.629,699.44l1.695-69.8a7.416,7.416,0,0,0-4.95-6.964c-9.518-3.42-12.049-7.584-12.832-10.33-.17-.6.57-.243,0,0-17.975,7.639-19.042,27.61-19.042,27.61s-3.808,34.275-5.237,59.481Z" transform="translate(-866.361 -518.964)" fill="#c7c8c8"/>
      <path id="パス_11746" data-name="パス 11746" d="M1002.8,693.844h-.025a1.016,1.016,0,0,1-.992-1.04l1.46-66.479c0-7.192-3.82-8.438-3.982-8.487l-.039-.012a22.054,22.054,0,0,1-13.7-13.473l-.651-.308c-6.047,1.87-11.7,7.938-11.758,8a1.016,1.016,0,0,1-1.495-1.378c.255-.277,6.321-6.794,13.063-8.686a1.018,1.018,0,0,1,.71.06l1.4.663a1.017,1.017,0,0,1,.543.642,20.33,20.33,0,0,0,12.519,12.546c.511.156,5.425,1.884,5.425,10.456l-1.46,66.5a1.018,1.018,0,0,1-1.017.992" transform="translate(-878.536 -513.145)" fill="#231815"/>
      <path id="パス_11747" data-name="パス 11747" d="M1067.947,694.892l-1.695-69.8a7.416,7.416,0,0,1,4.95-6.964c9.517-3.42,12.407-10.493,13.19-13.239a1.027,1.027,0,0,1,1.39-.667c17.975,7.639,19.911,22.974,19.911,22.974s6.784,47.485,6.9,67.693Z" transform="translate(-933.323 -514.415)" fill="#fff"/>
      <path id="パス_11748" data-name="パス 11748" d="M1067.947,694.892l-1.695-69.8a7.416,7.416,0,0,1,4.95-6.964c9.517-3.42,12.407-10.493,13.19-13.239a1.027,1.027,0,0,1,1.39-.667c17.975,7.639,19.911,22.974,19.911,22.974s6.784,47.485,6.9,67.693Z" transform="translate(-933.323 -514.415)" fill="#c7c8c8"/>
      <path id="パス_11749" data-name="パス 11749" d="M1066.878,693.844h.025a1.016,1.016,0,0,0,.992-1.04l-1.46-66.479c0-7.192,3.82-8.438,3.983-8.487l.038-.012a22.054,22.054,0,0,0,13.7-13.473l.651-.308c6.047,1.87,11.7,7.938,11.758,8a1.016,1.016,0,0,0,1.495-1.378c-.255-.277-6.321-6.794-13.063-8.686a1.018,1.018,0,0,0-.71.06l-1.4.663a1.016,1.016,0,0,0-.543.642,20.33,20.33,0,0,1-12.519,12.546c-.511.156-5.425,1.884-5.425,10.456l1.46,66.5a1.017,1.017,0,0,0,1.016.992" transform="translate(-932.255 -513.145)" fill="#231815"/>
      <path id="パス_11750" data-name="パス 11750" d="M1157.333,692.2a1.078,1.078,0,0,1-1.067-.932l-4.508-42.951c-1.714-11.308-5.478-16.6-5.516-16.648a1.078,1.078,0,0,1,1.741-1.273c.167.227,4.105,5.706,5.909,17.613l4.511,42.967a1.078,1.078,0,0,1-.922,1.215,1.1,1.1,0,0,1-.148.01" transform="translate(-979.385 -529.318)" fill="#231815"/>
      <path id="パス_11751" data-name="パス 11751" d="M943.231,685.892q-.05,0-.1-.005a1.078,1.078,0,0,1-.974-1.173c1.413-15.189,3.876-36.455,3.9-36.668,1.809-11.945,5.747-17.424,5.913-17.651a1.079,1.079,0,0,1,1.741,1.273c-.044.06-3.8,5.349-5.518,16.664-.02.175-2.479,21.418-3.89,36.582a1.078,1.078,0,0,1-1.072.979" transform="translate(-861.678 -529.316)" fill="#231815"/>
      <path id="パス_11752" data-name="パス 11752" d="M976.721,693.036a1.078,1.078,0,0,1-1.072-.978L972.321,656.4l-2.372-13.285a1.078,1.078,0,0,1,2.123-.379l2.38,13.329c.005.03.009.06.012.089l3.333,35.7a1.079,1.079,0,0,1-.974,1.174q-.051.005-.1.005" transform="translate(-877.716 -536.182)" fill="#231815"/>
      <path id="パス_11753" data-name="パス 11753" d="M1129.061,693.036c-.033,0-.067,0-.1-.005a1.078,1.078,0,0,1-.973-1.174l3.332-35.7c0-.03.006-.06.012-.089l2.38-13.329a1.078,1.078,0,0,1,2.123.379l-2.372,13.285-3.328,35.658a1.078,1.078,0,0,1-1.072.978" transform="translate(-968.961 -536.182)" fill="#231815"/>
      <path id="パス_11754" data-name="パス 11754" d="M767.861,489.417l50.354,80.091-3.148,1.969L766.083,491.19a2.194,2.194,0,0,1-.228-.5,1.242,1.242,0,0,1,2.006-1.274" transform="translate(-759.866 -448.008)" fill="#00aeeb"/>
      <path id="パス_11755" data-name="パス 11755" d="M813.546,571.1l-.052-.011a.987.987,0,0,1-.616-.446l-48.984-80.287a3.168,3.168,0,0,1-.328-.717,2.17,2.17,0,0,1,.889-2.477,2.231,2.231,0,0,1,2.7.155.99.99,0,0,1,.2.226l50.354,80.091a.988.988,0,0,1-.313,1.364l-3.148,1.969a.987.987,0,0,1-.7.134m-47.795-82.342a.286.286,0,0,0-.205.051.186.186,0,0,0-.095.237,1.217,1.217,0,0,0,.126.274l48.468,79.44,1.461-.913-49.717-79.079a.211.211,0,0,0-.038-.01" transform="translate(-758.519 -446.659)" fill="#231815"/>
      <path id="パス_11756" data-name="パス 11756" d="M903.711,680.807c-2.631-.275-9.721-.819-15.365,8.532a2.979,2.979,0,0,0-.119,2.5L897.986,716h24.992l-16.921-33.157a3.341,3.341,0,0,0-2.346-2.034" transform="translate(-830.422 -558.608)" fill="#fff"/>
      <path id="パス_11757" data-name="パス 11757" d="M910.359,680.734c-2.631-.275-8.606-1.334-10.576,8.659a4.633,4.633,0,0,0-.119,2.5l9.759,24.159,20.2-.127-16.921-33.157a3.341,3.341,0,0,0-2.346-2.034" transform="translate(-837.07 -558.534)" fill="#c7c8c8"/>
      <path id="パス_11758" data-name="パス 11758" d="M876.083,643.063l-.181-3.57s-4.724-10.718-9.369-13.8l-6.255-4.115-5.652-7.689a1.478,1.478,0,0,0-1.815-.213c-1.049.66-1.529,5,1.234,9.372,0,0-5.685-1.659-6.685-.234a2.486,2.486,0,0,0-.159,3.374,3.5,3.5,0,0,0,1.4.992l2.156.872s-2.549,2.073,1.019,4.53c0,0-1.692,3.243,1.168,5.1,0,0-.788,3.672,2.258,5.538a29.139,29.139,0,0,0,10.011,3.888l2.2,4.132s3.912.449,10.283-5.027Z" transform="translate(-806.509 -519.792)" fill="#fff"/>
      <path id="パス_11759" data-name="パス 11759" d="M875.436,637.7c-.2-.448-4.9-11.026-9.739-14.239l-6.1-4.014-5.545-7.543a1.014,1.014,0,0,0-.107-.123,2.478,2.478,0,0,0-3.064-.347,2.9,2.9,0,0,0-1.124,1.916,11.582,11.582,0,0,0,.946,6.787c-2.148-.424-4.558-.565-5.5.631a3.436,3.436,0,0,0-.169,4.682,4.529,4.529,0,0,0,1.8,1.284l.95.385a3.149,3.149,0,0,0-.307,1.478,4.1,4.1,0,0,0,1.681,2.937,4.7,4.7,0,0,0,1.318,5.221,6.143,6.143,0,0,0,2.792,5.931,31.069,31.069,0,0,0,9.247,3.835l1.451-1.8a28.352,28.352,0,0,1-9.622-3.749,4.359,4.359,0,0,1-1.8-4.462,1.013,1.013,0,0,0-.44-1.063c-2-1.3-.946-3.533-.822-3.779a1.013,1.013,0,0,0-.323-1.3c-.927-.638-1.432-1.272-1.461-1.834a1.528,1.528,0,0,1,.507-1.076,1.013,1.013,0,0,0-.259-1.725l-2.156-.872a2.5,2.5,0,0,1-.995-.7,1.43,1.43,0,0,1,.092-2.009.674.674,0,0,0,.095-.112c.386-.317,2.7-.243,5.593.6a1.013,1.013,0,0,0,1.14-1.514c-2.507-3.966-1.967-7.484-1.527-7.987a.464.464,0,0,1,.5.054l5.591,7.605a1.027,1.027,0,0,0,.26.246l6.252,4.112c4.343,2.883,8.956,13.261,9,13.366a1.013,1.013,0,0,0,1.854-.818" transform="translate(-805.116 -518.404)" fill="#21110d"/>
      <path id="パス_11760" data-name="パス 11760" d="M863.752,640.606a1.013,1.013,0,0,1,.194-2.01,2.061,2.061,0,0,0,1.443-.421.68.68,0,0,0,.1-.581c-.178-.576-1.105-1.145-1.526-1.329a1.013,1.013,0,0,1,.806-1.859,4.991,4.991,0,0,1,2.654,2.581,2.73,2.73,0,0,1-.342,2.309c-.013.021-.027.041-.041.061a3.716,3.716,0,0,1-3.118,1.266.968.968,0,0,1-.168-.016m2.468-1.846h0Z" transform="translate(-815.937 -531.838)" fill="#21110d"/>
      <path id="パス_11761" data-name="パス 11761" d="M866.815,652.9a1.013,1.013,0,0,1,.058-2c.2-.025.566-.095.688-.284a.983.983,0,0,0,.033-.661c-.776-1.683-4.92-2.785-7.372-3.086a.506.506,0,0,1-.068-.011c-3.295-.621-4.6.024-4.615.03a1,1,0,0,1-1.378-.353,1.026,1.026,0,0,1,.358-1.4c.18-.109,1.849-1.023,5.79-.312l.193.036c.923.116,7.583,1.06,8.977,4.346.009.021.017.043.025.065a3.005,3.005,0,0,1-.223,2.414,2.781,2.781,0,0,1-2.164,1.224,1.012,1.012,0,0,1-.3-.008" transform="translate(-810.798 -537.749)" fill="#21110d"/>
      <path id="パス_11762" data-name="パス 11762" d="M870.617,662.717a2.043,2.043,0,0,1,.191-2.19c.186-.216.285-.413.257-.516-.075-.275-.694-.672-1.2-.843-.025-.008-.054-.019-.078-.03a55.136,55.136,0,0,0-5.443-1.432c-1.881-.45-3.5-.82-3.5-.82-1.883-.385-2.492.05-2.57.114a1.013,1.013,0,0,1-1.677-1.133c.173-.284,1.218-1.67,4.675-.962.024.005,1.652.377,3.545.83a50.4,50.4,0,0,1,5.733,1.525,3.854,3.854,0,0,1,2.466,2.212,2.467,2.467,0,0,1-.59,2.276,1.932,1.932,0,0,1-1.552.981,1.023,1.023,0,0,1-.26-.013m.041-1.956c-.007.014-.014.03-.022.049.007-.017.014-.033.022-.049m-12.33-3.836h0Z" transform="translate(-812.202 -543.607)" fill="#21110d"/>
      <path id="パス_11763" data-name="パス 11763" d="M863.928,671.711a1.013,1.013,0,0,1,.314-2c5.356.713,6.755-.4,6.971-.617.023-.077.034-.056.107-.151s.118-.161.157-.222a1.993,1.993,0,0,0-.362-.029.982.982,0,0,1-.2-.013l-8.075-1.332a2.346,2.346,0,0,0-1.808.888A1.013,1.013,0,0,1,859.422,667a4.351,4.351,0,0,1,3.669-1.67l.051.007,8.016,1.321a2.559,2.559,0,0,1,2.284,1.09,2.183,2.183,0,0,1-.473,2.368c-.4.655-2.146,2.509-8.994,1.6l-.047-.008" transform="translate(-813.799 -549.729)" fill="#21110d"/>
      <path id="パス_11764" data-name="パス 11764" d="M891.034,696.431a1.078,1.078,0,0,1-.906-.492l-2.856-4.4a1.078,1.078,0,1,1,1.809-1.174l2.856,4.4a1.079,1.079,0,0,1-.9,1.666" transform="translate(-829.895 -563.907)" fill="#21110d"/>
      <path id="パス_11765" data-name="パス 11765" d="M892.117,694.415a1.078,1.078,0,0,1-.051-2.155c6.762-.327,11.863-7.224,11.914-7.293a1.078,1.078,0,0,1,1.745,1.268c-.231.319-5.748,7.8-13.555,8.18h-.053" transform="translate(-832.171 -560.82)" fill="#21110d"/>
      <path id="パス_11766" data-name="パス 11766" d="M944.431,713.68a1.078,1.078,0,0,1-.95-.567L927.772,682.17a1.079,1.079,0,0,1,1.9-1.023L945.38,712.09a1.079,1.079,0,0,1-.949,1.59" transform="translate(-853.302 -558.544)" fill="#21110d"/>
      <path id="パス_11767" data-name="パス 11767" d="M898.594,734.017a1.078,1.078,0,0,1-.893-.654l-8.688-21.332a1.078,1.078,0,1,1,1.987-.84l8.688,21.332a1.079,1.079,0,0,1-1.094,1.494" transform="translate(-830.951 -575.836)" fill="#21110d"/>
      <path id="パス_11768" data-name="パス 11768" d="M1024.927,566.741c.149-2.727-.328-6.284-.618-10.934h18.352s.406,13.489,2.033,16.335c0,0,1.219,3.252,7.445,4.472,0,0-15.594,17.316-35.515-.573l1.644-.647c2.192-1.1,6.276-1.627,6.66-8.653" transform="translate(-904.672 -486.51)" fill="#fff"/>
      <path id="パス_11769" data-name="パス 11769" d="M1033.718,583.779c-7.9,0-14.543-4.253-19.108-8.353a.989.989,0,0,1,.3-1.657l1.6-.631c.339-.168.7-.317,1.08-.474,2.2-.91,4.7-1.942,4.994-7.328a52.371,52.371,0,0,0-.3-6.525c-.106-1.285-.225-2.742-.322-4.294a.99.99,0,0,1,.988-1.051h18.352a.99.99,0,0,1,.989.96c.161,5.323.8,13.943,1.9,15.873a1,1,0,0,1,.067.144c.041.1,1.2,2.769,6.708,3.849a.99.99,0,0,1,.545,1.634,26.734,26.734,0,0,1-10.714,6.7,22.665,22.665,0,0,1-7.09,1.154m-16.562-8.767c7.563,6.3,15.28,8.242,22.96,5.757a25.5,25.5,0,0,0,8.681-4.976c-4.731-1.414-6.109-4.036-6.344-4.565-1.47-2.693-1.97-12.487-2.1-15.781h-16.339c.079,1.125.165,2.178.25,3.2a53.5,53.5,0,0,1,.3,6.8c-.363,6.631-3.884,8.086-6.215,9.049-.362.15-.7.291-.988.434-.027.014-.055.026-.082.037Zm-.24-.969h0Z" transform="translate(-903.32 -485.159)" fill="#231815"/>
      <path id="パス_11770" data-name="パス 11770" d="M1033.542,583.731c-8.143,0-14.931-4.56-19.191-8.385a1.11,1.11,0,0,1-.353-1.029,1.125,1.125,0,0,1,.69-.841l1.6-.631c.331-.164.69-.313,1.071-.47,2.176-.9,4.634-1.915,4.924-7.22a52.327,52.327,0,0,0-.3-6.508l0-.039c-.1-1.275-.223-2.72-.319-4.257a1.117,1.117,0,0,1,1.115-1.186h18.352a1.112,1.112,0,0,1,1.116,1.083c.16,5.31.794,13.9,1.886,15.813a1.1,1.1,0,0,1,.076.162c.044.106,1.185,2.7,6.615,3.768a1.117,1.117,0,0,1,.615,1.843,26.873,26.873,0,0,1-10.769,6.735,22.892,22.892,0,0,1-7.13,1.16Zm-10.759-30.312a.862.862,0,0,0-.861.916c.1,1.534.214,2.979.318,4.252l0,.039a52.37,52.37,0,0,1,.3,6.542c-.3,5.465-2.835,6.514-5.072,7.438-.385.159-.74.306-1.072.47l-1.613.635a.87.87,0,0,0-.533.65.858.858,0,0,0,.273.8c4.227,3.8,10.959,8.321,19.021,8.321h0a22.623,22.623,0,0,0,7.05-1.148,26.592,26.592,0,0,0,10.659-6.664.863.863,0,0,0-.475-1.424c-5.56-1.089-6.753-3.809-6.8-3.924a.835.835,0,0,0-.06-.129c-1.115-1.951-1.759-10.6-1.919-15.932a.859.859,0,0,0-.862-.837Zm10.671,28.35c-5.552,0-11.1-2.285-16.554-6.834a.127.127,0,0,1,.035-.216l.122-.048c.024-.01.048-.02.071-.032.29-.146.633-.288,1-.438,2.3-.951,5.779-2.388,6.137-8.939a53.289,53.289,0,0,0-.3-6.777c-.084-1.026-.171-2.079-.249-3.2a.128.128,0,0,1,.034-.1.126.126,0,0,1,.093-.041h16.338a.127.127,0,0,1,.127.122c.118,3.009.615,13.036,2.083,15.726.229.514,1.587,3.105,6.27,4.5a.127.127,0,0,1,.047.217,25.792,25.792,0,0,1-8.725,5,21.1,21.1,0,0,1-6.527,1.055m-16.228-6.894c7.473,6.166,15.1,8.049,22.677,5.6a25.515,25.515,0,0,0,8.463-4.8c-4.612-1.447-5.975-4.053-6.2-4.568-1.435-2.627-1.948-11.762-2.1-15.706h-16.08c.076,1.073.159,2.082.24,3.065a53.639,53.639,0,0,1,.3,6.812c-.367,6.711-3.934,8.184-6.293,9.16-.359.148-.7.289-.98.43l-.017.008m-.483-.879a.128.128,0,0,1-.128-.127.126.126,0,0,1,.126-.127h0a.127.127,0,1,1,0,.254" transform="translate(-903.146 -484.985)" fill="#231815"/>
      <path id="パス_11771" data-name="パス 11771" d="M1032.709,509.148c7.957-4.811,10.484-11.24,11.191-14.183a2.42,2.42,0,0,0,.887.352c2.02.339,4.1-2.025,4.65-5.28s-.644-6.171-2.662-6.512a2.512,2.512,0,0,0-1.394.184c-1.69-16.347-16.342-23.208-19.589-22.883-3.246-.325-16.415,0-19.755,19.375l.167,3.508a2.515,2.515,0,0,0-1.394-.184c-2.018.341-3.209,3.258-2.661,6.512s2.63,5.619,4.649,5.28a2.415,2.415,0,0,0,.888-.352c.706,2.944,3.234,9.373,11.191,14.183a13.85,13.85,0,0,0,13.832,0" transform="translate(-896.239 -431.642)" fill="#fff"/>
      <path id="パス_11772" data-name="パス 11772" d="M1051.968,446.21l-15.182,2.694s-2.92,21.69,29.579,17.147c0,0-2.286-19.375-14.4-19.841" transform="translate(-916.273 -423.238)" fill="#fff23f"/>
      <path id="パス_11773" data-name="パス 11773" d="M1043.163,469.588a.959.959,0,1,0,.483-1.856c-4.454-1.159-7.339-4.389-8.575-9.6a25.208,25.208,0,0,1-.518-7.8.959.959,0,0,0-1.9-.23,26.7,26.7,0,0,0,.544,8.417c1.384,5.9,4.832,9.732,9.97,11.068" transform="translate(-913.856 -424.999)" fill="#231815"/>
      <path id="パス_11774" data-name="パス 11774" d="M1043.232,469.574a1.07,1.07,0,0,1-.274-.036c-5.187-1.349-8.666-5.209-10.062-11.161a26.816,26.816,0,0,1-.546-8.461,1.086,1.086,0,1,1,2.155.261,25.219,25.219,0,0,0,.516,7.752c1.224,5.163,4.078,8.362,8.483,9.508a1.086,1.086,0,0,1-.273,2.137m-9.806-20.359a.832.832,0,0,0-.824.732,26.545,26.545,0,0,0,.541,8.372c1.373,5.855,4.789,9.65,9.879,10.974h0a.844.844,0,0,0,1.014-.6.831.831,0,0,0-.6-1.014c-4.5-1.172-7.419-4.434-8.667-9.7a25.5,25.5,0,0,1-.521-7.841.834.834,0,0,0-.828-.932" transform="translate(-913.682 -424.826)" fill="#231815"/>
      <path id="パス_11775" data-name="パス 11775" d="M1065.387,472.337c-4.438-.089-7.78-2.318-9.933-6.626a21.045,21.045,0,0,1-1.97-6.734.959.959,0,0,0-1.911.16,22.622,22.622,0,0,0,2.14,7.378c2.459,4.96,6.483,7.637,11.635,7.74h.02a.959.959,0,0,0,.019-1.917" transform="translate(-924.847 -430.101)" fill="#231815"/>
      <path id="パス_11776" data-name="パス 11776" d="M1065.195,474.207c-5.225-.1-9.288-2.805-11.77-7.811a22.806,22.806,0,0,1-2.152-7.424,1.086,1.086,0,0,1,2.165-.182,21.079,21.079,0,0,0,1.957,6.688c2.131,4.263,5.435,6.469,9.821,6.556a1.086,1.086,0,0,1,1.064,1.108,1.092,1.092,0,0,1-1.085,1.064m-12.839-16.157-.07,0a.833.833,0,0,0-.76.9,22.507,22.507,0,0,0,2.126,7.332c2.438,4.915,6.423,7.566,11.524,7.669h0a.84.84,0,0,0,.848-.815.832.832,0,0,0-.815-.848c-4.488-.09-7.868-2.343-10.044-6.7a20.956,20.956,0,0,1-1.982-6.78.833.833,0,0,0-.828-.763" transform="translate(-924.674 -429.927)" fill="#231815"/>
      <path id="パス_11777" data-name="パス 11777" d="M1092.222,483.5c-7.042.426-11.246-5.591-11.287-5.652a.959.959,0,0,0-1.586,1.078c.187.275,4.511,6.514,12.133,6.514q.422,0,.858-.026a.959.959,0,0,0-.117-1.914" transform="translate(-940.789 -441.26)" fill="#231815"/>
      <path id="パス_11778" data-name="パス 11778" d="M1091.308,485.391c-7.68,0-12.055-6.3-12.238-6.569a1.086,1.086,0,0,1,1.8-1.221c.041.06,4.215,6.017,11.175,5.6a1.086,1.086,0,1,1,.132,2.168c-.29.017-.582.026-.865.026m-11.341-8.01a.831.831,0,0,0-.687,1.3c.179.264,4.48,6.458,12.027,6.458.279,0,.564-.009.85-.026a.832.832,0,1,0-.1-1.66c-7.116.435-11.358-5.646-11.4-5.707a.832.832,0,0,0-.689-.363" transform="translate(-940.616 -441.087)" fill="#231815"/>
      <path id="パス_11779" data-name="パス 11779" d="M1045.62,507.814a3.255,3.255,0,0,0-.644-.041l.06-1.094a.959.959,0,0,0-1.915-.106l-.374,6.746a.959.959,0,0,0,.9,1.01h.054a.959.959,0,0,0,.957-.905l.206-3.72a1.375,1.375,0,0,1,.435,0c1.281.216,2.367,2.491,1.876,5.407s-2.263,4.708-3.543,4.494a1.471,1.471,0,0,1-.537-.217.959.959,0,0,0-1.444.587c-.7,2.9-3.14,8.982-10.736,13.575a12.782,12.782,0,0,1-12.859.011c-7.618-4.606-10.059-10.685-10.755-13.586a.959.959,0,0,0-1.445-.586,1.464,1.464,0,0,1-.534.216c-1.282.216-3.053-1.577-3.545-4.494s.594-5.191,1.873-5.407a1.362,1.362,0,0,1,.338-.009l.309,3.754a.958.958,0,0,0,.954.88c.026,0,.053,0,.079,0a.959.959,0,0,0,.877-1.034l-.363-4.409-.166-3.495a.959.959,0,1,0-1.915.091l.109,2.289a3.293,3.293,0,0,0-.539.044c-2.579.436-4.093,3.782-3.447,7.617s3.174,6.5,5.756,6.065l.075-.013c1.046,3.594,3.92,9.231,11.322,13.705a14.817,14.817,0,0,0,7.493,2.031,14.607,14.607,0,0,0,7.355-2.016c7.421-4.486,10.3-10.125,11.345-13.72l.078.014c2.579.434,5.106-2.231,5.754-6.066s-.869-7.181-3.45-7.617" transform="translate(-894.927 -456.877)" fill="#231815"/>
      <path id="パス_11780" data-name="パス 11780" d="M1024.365,537.174a15.031,15.031,0,0,1-7.563-2.052c-7.687-4.647-10.4-10.513-11.342-13.667-2.642.416-5.211-2.286-5.867-6.175-.657-3.906.9-7.316,3.551-7.764a3.508,3.508,0,0,1,.427-.044l-.1-2.158a1.086,1.086,0,0,1,2.169-.1l.167,3.495.363,4.4a1.086,1.086,0,0,1-.993,1.171,1.093,1.093,0,0,1-1.171-.993l-.3-3.643a1.277,1.277,0,0,0-.2.013c-1.221.206-2.248,2.417-1.769,5.261s2.178,4.6,3.4,4.389a1.33,1.33,0,0,0,.487-.2,1.086,1.086,0,0,1,1.637.664c.594,2.476,2.825,8.748,10.7,13.507a12.685,12.685,0,0,0,12.73-.013c7.851-4.747,10.081-11.018,10.676-13.495a1.086,1.086,0,0,1,1.635-.664,1.352,1.352,0,0,0,.49.2c1.217.2,2.916-1.549,3.4-4.39s-.55-5.054-1.772-5.261a1.2,1.2,0,0,0-.293-.011l-.2,3.613a1.1,1.1,0,0,1-1.144,1.024,1.085,1.085,0,0,1-1.024-1.144l.374-6.746a1.086,1.086,0,1,1,2.168.12l-.053.958a3.392,3.392,0,0,1,.531.044h0c2.651.448,4.212,3.859,3.554,7.764-.656,3.89-3.231,6.594-5.867,6.176-.941,3.155-3.661,9.024-11.369,13.684a14.757,14.757,0,0,1-7.421,2.035m-18.815-15.991a.126.126,0,0,1,.122.092c.9,3.091,3.559,8.974,11.265,13.632a14.748,14.748,0,0,0,7.428,2.013,14.5,14.5,0,0,0,7.291-2c7.722-4.669,10.386-10.553,11.287-13.646a.126.126,0,0,1,.145-.09l.075.014c2.506.422,4.972-2.2,5.607-5.962s-.836-7.046-3.345-7.471a3.2,3.2,0,0,0-.619-.039.112.112,0,0,1-.095-.038.127.127,0,0,1-.036-.1l.06-1.094a.832.832,0,1,0-1.661-.093l-.374,6.746a.831.831,0,0,0,.784.877h.047a.832.832,0,0,0,.829-.786l.207-3.719a.126.126,0,0,1,.107-.118,1.488,1.488,0,0,1,.475,0c1.341.227,2.484,2.563,1.981,5.554s-2.341,4.824-3.689,4.6a1.6,1.6,0,0,1-.584-.235.831.831,0,0,0-1.252.509c-.6,2.507-2.859,8.857-10.794,13.654a12.948,12.948,0,0,1-12.993.009c-7.951-4.807-10.209-11.157-10.81-13.664a.832.832,0,0,0-1.254-.508,1.581,1.581,0,0,1-.58.234c-1.339.228-3.186-1.606-3.691-4.6s.638-5.328,1.978-5.554a1.483,1.483,0,0,1,.369-.01.127.127,0,0,1,.116.116l.309,3.754a.834.834,0,0,0,.9.76.831.831,0,0,0,.761-.9l-.363-4.409-.167-3.5a.832.832,0,0,0-1.662.079l.109,2.288a.124.124,0,0,1-.035.094.127.127,0,0,1-.092.04,3.167,3.167,0,0,0-.518.043c-2.508.424-3.976,3.705-3.343,7.471s3.1,6.385,5.61,5.96l.073-.013.024,0" transform="translate(-894.754 -456.703)" fill="#231815"/>
      <path id="パス_11781" data-name="パス 11781" d="M1010.111,541.211a2.159,2.159,0,1,1-2.159-2.159,2.158,2.158,0,0,1,2.159,2.159" transform="translate(-898.419 -476.837)" fill="#fff"/>
      <path id="パス_11782" data-name="パス 11782" d="M1006.643,543.019a3.118,3.118,0,1,1,3.117-3.118,3.122,3.122,0,0,1-3.117,3.118m0-4.319a1.2,1.2,0,1,0,1.2,1.2,1.2,1.2,0,0,0-1.2-1.2" transform="translate(-897.11 -475.527)" fill="#231815"/>
      <path id="パス_11783" data-name="パス 11783" d="M1006.469,542.973a3.245,3.245,0,1,1,3.245-3.245,3.249,3.249,0,0,1-3.245,3.245m0-6.237a2.991,2.991,0,1,0,2.99,2.991,2.995,2.995,0,0,0-2.99-2.991m0,4.319a1.328,1.328,0,1,1,1.327-1.328,1.33,1.33,0,0,1-1.327,1.328m0-2.4a1.074,1.074,0,1,0,1.073,1.074,1.075,1.075,0,0,0-1.073-1.074" transform="translate(-896.936 -475.353)" fill="#231815"/>
      <path id="パス_11784" data-name="パス 11784" d="M1103.443,541.211a2.159,2.159,0,1,1-2.159-2.159,2.159,2.159,0,0,1,2.159,2.159" transform="translate(-952.301 -476.837)" fill="#fff"/>
      <path id="パス_11785" data-name="パス 11785" d="M1099.974,543.019a3.118,3.118,0,1,1,3.118-3.118,3.121,3.121,0,0,1-3.118,3.118m0-4.319a1.2,1.2,0,1,0,1.2,1.2,1.2,1.2,0,0,0-1.2-1.2" transform="translate(-950.992 -475.527)" fill="#231815"/>
      <path id="パス_11786" data-name="パス 11786" d="M1099.8,542.973a3.245,3.245,0,1,1,3.245-3.245,3.249,3.249,0,0,1-3.245,3.245m0-6.237a2.991,2.991,0,1,0,2.991,2.991,2.995,2.995,0,0,0-2.991-2.991m0,4.319a1.328,1.328,0,1,1,1.328-1.328,1.329,1.329,0,0,1-1.328,1.328m0-2.4a1.074,1.074,0,1,0,1.073,1.074,1.075,1.075,0,0,0-1.073-1.074" transform="translate(-950.818 -475.353)" fill="#231815"/>
      <path id="パス_11787" data-name="パス 11787" d="M1076.709,509.039a1.6,1.6,0,1,0,1.6,1.6,1.6,1.6,0,0,0-1.6-1.6" transform="translate(-938.436 -459.51)" fill="#231815"/>
      <path id="パス_11788" data-name="パス 11788" d="M1036.865,509.039a1.6,1.6,0,1,0,1.6,1.6,1.6,1.6,0,0,0-1.6-1.6" transform="translate(-915.433 -459.51)" fill="#231815"/>
      <path id="パス_11789" data-name="パス 11789" d="M1036.215,495.093a.974.974,0,0,0-.632-1.225,12.446,12.446,0,0,0-6.336-.132.974.974,0,0,0,.5,1.883,10.607,10.607,0,0,1,5.245.106.974.974,0,0,0,1.223-.632" transform="translate(-911.541 -450.471)" fill="#231815"/>
      <path id="パス_11790" data-name="パス 11790" d="M1035.112,495.725a1.1,1.1,0,0,1-.333-.052,10.5,10.5,0,0,0-5.175-.1,1.1,1.1,0,0,1-1.347-.782,1.1,1.1,0,0,1,.782-1.347,12.6,12.6,0,0,1,6.408.134,1.1,1.1,0,0,1,.714,1.384l-.121-.038.121.038a1.1,1.1,0,0,1-1.049.766m-3.224-.692a11.083,11.083,0,0,1,2.968.4.857.857,0,0,0,1.064-.55.849.849,0,0,0-.55-1.065,12.327,12.327,0,0,0-6.265-.13.847.847,0,1,0,.435,1.637,9.182,9.182,0,0,1,2.348-.29" transform="translate(-911.367 -450.298)" fill="#231815"/>
      <path id="パス_11791" data-name="パス 11791" d="M1055.539,540.158h1.779a.974.974,0,0,0,0-1.949h-1.779a.974.974,0,1,0,0,1.949" transform="translate(-926.576 -476.351)" fill="#231815"/>
      <path id="パス_11792" data-name="パス 11792" d="M1057.144,540.111h-1.78a1.1,1.1,0,1,1,0-2.2h1.78a1.1,1.1,0,1,1,0,2.2m-1.78-1.949a.847.847,0,0,0,0,1.695h1.78a.847.847,0,0,0,0-1.695Z" transform="translate(-926.402 -476.177)" fill="#231815"/>
      <path id="パス_11793" data-name="パス 11793" d="M1051.045,551.574a14.539,14.539,0,0,0,5.721-1.3,1.049,1.049,0,0,0-.938-1.877,12.079,12.079,0,0,1-9.642.086,1.049,1.049,0,0,0-.9,1.9,12.7,12.7,0,0,0,5.756,1.2" transform="translate(-920.874 -482.166)" fill="#21110d"/>
    </g>
  </g>
</svg>
