<svg xmlns="http://www.w3.org/2000/svg" xmlns:xlink="http://www.w3.org/1999/xlink" width="229.772" height="87.03" viewBox="0 0 229.772 87.03">
  <defs>
    <clipPath id="clip-path">
      <rect id="長方形_23333" data-name="長方形 23333" width="135" height="79" transform="translate(242 184)" fill="#fff" stroke="#707070" stroke-width="1"/>
    </clipPath>
    <clipPath id="clip-path-2">
      <ellipse id="楕円形_461" data-name="楕円形 461" cx="20.422" cy="20.167" rx="20.422" ry="20.167" transform="translate(0 0)" fill="#fff" stroke="#707070" stroke-width="1"/>
    </clipPath>
    <clipPath id="clip-path-3">
      <rect width="45.266" height="44.323" fill="none"/>
    </clipPath>
    <clipPath id="clip-path-4">
      <circle id="楕円形_1353" data-name="楕円形 1353" cx="20.167" cy="20.167" r="20.167" transform="translate(0 0)" fill="#fff" stroke="#707070" stroke-width="1"/>
    </clipPath>
    <clipPath id="clip-path-6">
      <circle id="楕円形_1231" data-name="楕円形 1231" cx="20.422" cy="20.422" r="20.422" transform="translate(0 0)" fill="#fff" stroke="#707070" stroke-width="1"/>
    </clipPath>
  </defs>
  <g id="グループ_4286" data-name="グループ 4286" transform="translate(-66 -198.97)">
    <g id="マスクグループ_20" data-name="マスクグループ 20" transform="translate(-126 23)" clip-path="url(#clip-path)">
      <g id="グループ_4268" data-name="グループ 4268" transform="translate(242 184)">
        <path id="パス_12068" data-name="パス 12068" d="M198.637,690.58c0,2.395-4.961,2.409-11.081,2.409s-11.081-.014-11.081-2.409,4.961-4.336,11.081-4.336,11.081,1.942,11.081,4.336" transform="translate(-147.007 -618.151)" fill="#fff"/>
        <path id="パス_12069" data-name="パス 12069" d="M184.486,690.535c-6.535,0-11.7,0-11.7-3.024,0-.919.532-2.255,3.065-3.4a.615.615,0,1,1,.506,1.122c-1.488.672-2.341,1.5-2.341,2.277,0,1.794,5.321,1.794,10.466,1.794s10.466,0,10.466-1.794c0-1.76-4.3-3.721-10.466-3.721a.615.615,0,1,1,0-1.231c6.668,0,11.7,2.129,11.7,4.951,0,3.024-5.162,3.024-11.7,3.024" transform="translate(-143.937 -615.081)"/>
        <path id="パス_12070" data-name="パス 12070" d="M232.118,663.763l-9.889-2.489a55.749,55.749,0,0,0-5.5-2.015,1.849,1.849,0,0,0-1.957.577l-1.321,1.569-2.852,2.363-.564.5-1.561.672-2.882.786c-1.572,1.834,3.013,1.7,3.013,1.7a7.056,7.056,0,0,0,3.274-.655l3.143-1.179h4.033a3.284,3.284,0,0,1,2.5,1.128c.927,1.083-.245,1.164-.245,1.164-5.894-.065-6.876.786-6.876.786-2.161,2.03,4.519,2.292,4.519,2.292l5.763.131a24.433,24.433,0,0,0,7.793-1.834c1.375-2.554-.393-5.5-.393-5.5" transform="translate(-170.993 -595.604)" fill="#fff"/>
        <path id="パス_12071" data-name="パス 12071" d="M221.644,668.642h-.014l-5.763-.131a21.775,21.775,0,0,1-2.377-.243c-1.842-.3-2.827-.779-3.1-1.509a1.435,1.435,0,0,1,.551-1.6l.018-.017c.27-.234,1.585-.99,7.173-.937-.029-.041-.067-.09-.115-.147a2.662,2.662,0,0,0-2.032-.913h-3.921l-3.012,1.13a7.662,7.662,0,0,1-3.532.7c-1,.026-3.3-.039-3.831-1.144a1.392,1.392,0,0,1,.366-1.575.615.615,0,0,1,.305-.193l2.85-.777,5.34-2.084a.612.612,0,0,1,.085-.026l3.405-.786a.615.615,0,0,1,.277,1.2l-3.362.776-5.329,2.079a.585.585,0,0,1-.062.02l-2.683.732a.6.6,0,0,0-.066.123,5.578,5.578,0,0,0,2.7.425.552.552,0,0,1,.064,0,6.48,6.48,0,0,0,2.953-.592.581.581,0,0,1,.058-.025l3.143-1.179a.617.617,0,0,1,.216-.039h4.033a3.89,3.89,0,0,1,2.967,1.344,1.426,1.426,0,0,1,.428,1.486,1.291,1.291,0,0,1-1.1.692h-.049c-5.021-.056-6.31.555-6.482.652a.816.816,0,0,0-.2.259c.21.333,1.929.841,4.353.937l5.731.13a23.946,23.946,0,0,0,7.353-1.7,5.452,5.452,0,0,0-.358-4.492l-9.626-2.422a.574.574,0,0,1-.092-.031,54.863,54.863,0,0,0-5.435-1.992,1.232,1.232,0,0,0-1.306.385l-1.321,1.569a.615.615,0,0,1-.941-.793l1.321-1.569a2.463,2.463,0,0,1,2.609-.769,56.174,56.174,0,0,1,5.513,2.018l9.841,2.477a.615.615,0,0,1,.378.28c.079.133,1.931,3.28.407,6.109a.616.616,0,0,1-.291.27,24.831,24.831,0,0,1-8.014,1.886h-.029m-9.858-2.592,0,0-.021.02.024-.022" transform="translate(-167.918 -592.533)"/>
        <path id="パス_12072" data-name="パス 12072" d="M357.251,659.883l6.483-.2s15.521,1.768,18.468,1.375l-.786-15.521s-16.5,3.536-17.682,4.322l-7.073.589a26.218,26.218,0,0,1,.589,9.43" transform="translate(-297.108 -584.244)"/>
        <path id="パス_12073" data-name="パス 12073" d="M378.509,659.145c-4.577,0-16.348-1.326-17.261-1.43l-6.448.2a.495.495,0,0,1-.507-.547,26.028,26.028,0,0,0-.571-9.236.494.494,0,0,1,.433-.634l6.971-.581c1.841-.893,15.028-3.744,17.721-4.321a.494.494,0,0,1,.6.458l.786,15.521a.5.5,0,0,1-.429.515,10.574,10.574,0,0,1-1.292.06m-17.241-2.42c.019,0,.037,0,.056,0,.148.017,14.16,1.608,17.893,1.415l-.732-14.463c-6.373,1.373-16.158,3.608-16.943,4.128a.5.5,0,0,1-.233.081l-6.488.541a27.607,27.607,0,0,1,.511,8.475l5.922-.18h.015" transform="translate(-294.642 -581.778)" fill="#20110d"/>
        <path id="パス_12074" data-name="パス 12074" d="M521.253,294.994a29.441,29.441,0,0,0-2.5-9.243,10.132,10.132,0,0,0-6.624-5.231,17.59,17.59,0,0,1-2.933-.959c-2.471-1.138-7.274-2.4-14.6,1.681a7.373,7.373,0,0,1-1.635.808c-10.6,2.808-2.481,13.155-2.481,13.155l9.339,10.266,11.617,5.189s11.788-.589,9.821-15.666" transform="translate(-406.102 -278.44)" fill="#00aeeb"/>
        <path id="パス_12075" data-name="パス 12075" d="M549.244,424.154l8.916,11.091-15.947,17.689,1.072-7.772q.038-.536.037-1.072a14.844,14.844,0,0,0-1.694-6.859l-2.586-3.276Z" transform="translate(-449.036 -399.823)" fill="#fff"/>
        <path id="パス_12076" data-name="パス 12076" d="M498.837,337.147l-3.678-3.213a38.4,38.4,0,0,0-10.367-12.272,1.305,1.305,0,0,0-1.8.254c-1.922,2.458-3.691,8.173-3.691,8.173-.042.062.125,1.09-1.911,3.184a9.74,9.74,0,0,0-1.559,2.081,1.059,1.059,0,0,0,.424,1.126,1.032,1.032,0,0,0,.413.156c.4.088,1.281.438.695,1.775a1.658,1.658,0,0,0,.054,1.27,1.39,1.39,0,0,1,.058.883,2.12,2.12,0,0,0,.087,1.433,3.594,3.594,0,0,1,.333,1.076l.055.429a5.821,5.821,0,0,1-.08,2.042c-.182.788-.009,2.016,2.773,2.11l5.131.134a3.773,3.773,0,0,1,2.262,1.641l3.626-1.042,5.752-8.08c-.041-.14,1.5-3.041,1.418-3.161" transform="translate(-396.367 -314.238)" fill="#fff"/>
        <path id="パス_12077" data-name="パス 12077" d="M591.655,387.464s.017-.252.723-.968a2.767,2.767,0,0,1,1.473-.751,2.545,2.545,0,0,1,3.09,1.429,5.515,5.515,0,0,1,.131,2.088,7.367,7.367,0,0,1-4.815,5.594Z" transform="translate(-492.863 -367.768)" fill="#fff"/>
        <path id="パス_12078" data-name="パス 12078" d="M588.944,392.263a.561.561,0,0,1,.3-.734,6.8,6.8,0,0,0,4.477-5.162,5.073,5.073,0,0,0-.1-1.8,2.011,2.011,0,0,0-2.462-1.079,2.2,2.2,0,0,0-1.177.593,3.1,3.1,0,0,0-.577.7c-.062.261-.583.429-.583.429s-.543-.288-.522-.6a2.628,2.628,0,0,1,.882-1.324,3.317,3.317,0,0,1,1.769-.908,3.048,3.048,0,0,1,3.717,1.779,5.941,5.941,0,0,1,.161,2.374,7.9,7.9,0,0,1-5.152,6.025.56.56,0,0,1-.734-.3m.476-7.569h0m0,0h0m0,0h0" transform="translate(-490.069 -364.958)"/>
        <path id="パス_12079" data-name="パス 12079" d="M500.863,474.446a.561.561,0,0,0-.509-.472l-7.7-.471a.561.561,0,0,0-.09,1.118l7.332.441c.056.15.128.337.22.576l1.046-.4c-.133-.344-.259-.671-.3-.788" transform="translate(-409.888 -440.931)"/>
        <path id="パス_12080" data-name="パス 12080" d="M472.837,384.245a.558.558,0,0,1,.056-.049,30.282,30.282,0,0,0,2.7-2.731.555.555,0,0,1,.821.748,35.107,35.107,0,0,1-2.8,2.825.519.519,0,0,0-.108.357,1.229,1.229,0,0,0,.584.748l.8.628a.555.555,0,0,1-.687.873l-.771-.607a2.2,2.2,0,0,1-1.032-1.558,1.647,1.647,0,0,1,.433-1.234" transform="translate(-393.52 -364.111)"/>
        <path id="パス_12081" data-name="パス 12081" d="M482.161,431.066a.561.561,0,0,0,.493-.593l-.136-2.107a.558.558,0,0,0-.01-.073l-.264-1.332.292-.947a.559.559,0,0,0-.021-.389l-.479-1.1a.561.561,0,1,0-1.028.447l.4.911-.273.884a.563.563,0,0,0-.014.275l.284,1.435.133,2.07a.561.561,0,0,0,.6.524l.031,0" transform="translate(-400.653 -399.851)"/>
        <path id="パス_12082" data-name="パス 12082" d="M591.39,400.368a.561.561,0,0,0,.471-.4c.872-2.9,1.616-3.187,1.756-3.215a.378.378,0,0,1,.317.143.556.556,0,0,0,.782.107.565.565,0,0,0,.108-.789,1.489,1.489,0,0,0-1.4-.565c-1.022.182-1.885,1.49-2.639,4a.561.561,0,0,0,.6.719" transform="translate(-492.12 -376.063)"/>
        <path id="パス_12083" data-name="パス 12083" d="M514.838,376.464a.687.687,0,0,1-1,.333.918.918,0,0,1-.261-1.156.687.687,0,0,1,1-.334.918.918,0,0,1,.261,1.156" transform="translate(-427.742 -359.044)"/>
        <path id="パス_12084" data-name="パス 12084" d="M586.085,436.222a1.263,1.263,0,1,1,1.4,1.1,1.263,1.263,0,0,1-1.4-1.1" transform="translate(-488.216 -408.699)" fill="#fff"/>
        <path id="パス_12085" data-name="パス 12085" d="M582.916,433.642a1.793,1.793,0,1,1,1.992,1.568,1.795,1.795,0,0,1-1.992-1.568m1.052-.125a.734.734,0,1,0,.641-.815.734.734,0,0,0-.641.815" transform="translate(-485.573 -406.057)" fill="#21110d"/>
        <path id="パス_12086" data-name="パス 12086" d="M495.081,342.629a.585.585,0,0,1-.766-.567,28.277,28.277,0,0,1,1.45-5.789.584.584,0,0,1,1.1.387,26.577,26.577,0,0,0-1.384,5.424.585.585,0,0,1-.4.544" transform="translate(-411.777 -326.291)"/>
        <path id="パス_12087" data-name="パス 12087" d="M544.678,515.7a129.131,129.131,0,0,0-4.9-16.9,96.148,96.148,0,0,0-6.514-14.381,47.478,47.478,0,0,0-9.61-12.377l-.021-.017c-.162-.126-4.459-2.614-12.365,6.1,0,0-7.5,8.573-7.5,8.576-.352.254-3.615-.935-3.082-1.608-.8.037-4.522-.935-6.522-1.012l-2.4,30.862a3.294,3.294,0,0,0,1.122,2.373,5.961,5.961,0,0,0,4.016,1.167,30.743,30.743,0,0,0,9.633-2.127l2.362-.1h35.335a.46.46,0,0,0,.451-.549M494.015,486.55l-1.73,27.267-.029,0a.456.456,0,0,0-.174.034Z" transform="translate(-409.648 -439.345)"/>
        <path id="パス_12088" data-name="パス 12088" d="M511.871,433.869l1.916-3.114,5.989-4.791s4.325-4.159,4.085-6.794c0,0-2.408-2.309-4.085-2.309,0,0-.786-2.805-3.593-.479a1.866,1.866,0,0,0-3.114.719,2.252,2.252,0,0,0-3.114,2.156l-.719,4.073s-5.989,4.072-3.833,10.061l-1.014,6.844,7.489-.365Z" transform="translate(-420.169 -392.58)" fill="#fff"/>
        <path id="パス_12089" data-name="パス 12089" d="M501.382,437.824a.619.619,0,0,1-.089-.007.6.6,0,0,1-.508-.685l.992-6.7a8.329,8.329,0,0,1,1.231-7.679,12.709,12.709,0,0,1,2.669-2.785l.671-3.8a2.978,2.978,0,0,1,1.207-2.388,3.108,3.108,0,0,1,2.2-.379,2.4,2.4,0,0,1,1.559-1.181,2.613,2.613,0,0,1,1.85.4,2.95,2.95,0,0,1,2.608-.682,2.462,2.462,0,0,1,1.422,1.345c1.783.284,3.835,2.207,4.08,2.442a.6.6,0,0,1,.183.381c.258,2.841-3.8,6.837-4.268,7.283-.013.013-.027.025-.041.036l-5.907,4.726-1.772,2.879.007,5.828a.6.6,0,0,1-.6.6h0a.6.6,0,0,1-.6-.6l-.007-6a.6.6,0,0,1,.089-.317l1.916-3.114a.6.6,0,0,1,.137-.155l5.967-4.774c1.115-1.078,3.845-4.137,3.89-6.069-.747-.674-2.414-1.978-3.492-1.978a.6.6,0,0,1-.581-.44s-.237-.758-.783-.926c-.45-.138-1.088.121-1.845.748a.6.6,0,0,1-.784-.013,1.684,1.684,0,0,0-1.232-.418c-.356.074-.672.392-.94.947a.6.6,0,0,1-.734.31,2.2,2.2,0,0,0-1.652.127,1.88,1.88,0,0,0-.67,1.5c0,.02,0,.039-.007.058l-.719,4.073a.6.6,0,0,1-.255.394,11.388,11.388,0,0,0-2.59,2.66,7.065,7.065,0,0,0-1.015,6.7.606.606,0,0,1,.029.293l-1.014,6.844a.6.6,0,0,1-.6.515" transform="translate(-417.161 -389.568)"/>
        <path id="パス_12090" data-name="パス 12090" d="M590.663,427.2l-.051,0a.6.6,0,0,1-.551-.651l.479-5.749a.6.6,0,1,1,1.2.1l-.479,5.749a.6.6,0,0,1-.6.553" transform="translate(-491.534 -396.565)"/>
        <path id="パス_12091" data-name="パス 12091" d="M572.012,424.808a.6.6,0,0,1-.6-.6v-6.228a.6.6,0,0,1,1.206,0v6.228a.6.6,0,0,1-.6.6" transform="translate(-475.998 -394.176)"/>
        <path id="パス_12092" data-name="パス 12092" d="M551.927,428.872H551.9a.6.6,0,0,1-.578-.627l.24-5.989a.6.6,0,1,1,1.2.048l-.24,5.989a.6.6,0,0,1-.6.579" transform="translate(-459.266 -397.76)"/>
        <path id="パス_12093" data-name="パス 12093" d="M593.2,438.5a.6.6,0,0,1-.459-.993l1.066-1.254a.6.6,0,1,1,.919.781l-1.066,1.254a.6.6,0,0,1-.46.212" transform="translate(-493.651 -409.726)"/>
        <path id="パス_12094" data-name="パス 12094" d="M587.778,613.714a.607.607,0,0,1-.387-1.075,119.672,119.672,0,0,0,20.583-22.276.607.607,0,0,1,1.007.678,120.965,120.965,0,0,1-20.817,22.533.6.6,0,0,1-.386.139" transform="translate(-489.128 -538.057)" fill="#c3c3c3"/>
        <path id="パス_12095" data-name="パス 12095" d="M576.109,515.255a.607.607,0,0,1-.481-.977c.322-.418.637-.849.938-1.282a32.893,32.893,0,0,0,2.754-4.761c3.758-7.979,6.57-9.851,6.688-9.927a.607.607,0,0,1,.66,1.019c-.042.028-2.689,1.865-6.25,9.426a34.093,34.093,0,0,1-2.857,4.937c-.312.448-.639.9-.972,1.328a.605.605,0,0,1-.481.237" transform="translate(-479.408 -461.515)" fill="#c3c3c3"/>
        <path id="パス_12096" data-name="パス 12096" d="M497.661,526.736s-7.293.228-9.241,1.2l-.487,7.549s-4.627,31.172,3.409,28.006l11.346-6.479Z" transform="translate(-405.355 -485.277)"/>
        <path id="パス_12097" data-name="パス 12097" d="M487.963,561.888a2.491,2.491,0,0,1-1.586-.565c-2.032-1.615-2.844-6.876-2.412-15.639.308-6.252,1.16-12.155,1.216-12.538l.486-7.531a.46.46,0,0,1,.253-.382c2.015-1.008,9.131-1.24,9.433-1.25a.455.455,0,0,1,.468.384l5.027,30.278a.46.46,0,0,1-.226.474L489.275,561.6a.444.444,0,0,1-.06.029,3.422,3.422,0,0,1-1.252.26m-1.4-35.935-.469,7.27c0,.013,0,.025,0,.038-.984,6.633-2.75,24.476.856,27.342a1.807,1.807,0,0,0,1.9.181l11.038-6.3-4.908-29.564c-2.145.085-6.738.391-8.414,1.036m-.928,7.241h0Z" transform="translate(-403.06 -482.984)"/>
        <path id="パス_12098" data-name="パス 12098" d="M495.684,434.018a3.164,3.164,0,0,1-.753-.084.626.626,0,0,1,.318-1.212,1.942,1.942,0,0,0,1.448-.252.627.627,0,0,1,.728,1.02,2.977,2.977,0,0,1-1.742.528" transform="translate(-411.902 -406.654)"/>
        <path id="パス_12099" data-name="パス 12099" d="M570.438,311.523a.627.627,0,0,1-.6-.465c-2.389-8.927-7.488-11.628-7.539-11.654a.626.626,0,0,1,.571-1.115c.229.118,5.647,2.986,8.178,12.445a.627.627,0,0,1-.605.788" transform="translate(-468.121 -294.917)"/>
        <path id="パス_12100" data-name="パス 12100" d="M498.259,316.7a.626.626,0,0,1-.547-.929,3.572,3.572,0,0,1,4.589-1.583.626.626,0,1,1-.486,1.154,2.337,2.337,0,0,0-3.009,1.04.629.629,0,0,1-.547.318" transform="translate(-414.541 -307.954)"/>
        <path id="パス_12101" data-name="パス 12101" d="M483.179,670.275a.577.577,0,0,1-.522-.331c-1.164-2.461-1.2-11.6-1.2-11.985a.577.577,0,0,1,.576-.578h0a.577.577,0,0,1,.577.576c.006,2.57.213,9.643,1.088,11.494a.577.577,0,0,1-.521.824" transform="translate(-401.067 -594.107)" fill="#c3c3c3"/>
        <path id="パス_12102" data-name="パス 12102" d="M26.768,571.436H9.429a5.736,5.736,0,0,1-5.13-8.3l11.339-22.678a1.15,1.15,0,1,1,2.057,1.028L6.356,564.164a3.436,3.436,0,0,0,3.073,4.973H26.768a1.15,1.15,0,0,1,0,2.3" transform="translate(-3.072 -496.177)" fill="#e7e7e7"/>
        <path id="パス_12103" data-name="パス 12103" d="M23.7,568.979H6.357a6.351,6.351,0,0,1-5.681-9.191L12.015,537.11a1.765,1.765,0,1,1,3.158,1.579l-10.156,20.4a.615.615,0,1,1-1.1-.549l10.156-20.4a.535.535,0,1,0-.956-.479L1.777,560.338a5.121,5.121,0,0,0,4.58,7.41H23.7a.535.535,0,1,0,0-1.069H6.357a4.051,4.051,0,0,1-3.624-5.863.615.615,0,0,1,1.1.55,2.821,2.821,0,0,0,2.523,4.082H23.7a1.765,1.765,0,1,1,0,3.53" transform="translate(0 -493.105)"/>
        <path id="パス_12104" data-name="パス 12104" d="M55.673,382.841l-2.691.717a19.671,19.671,0,0,1-7.068-10.441L34.79,332.737a17.782,17.782,0,0,1,.953-12.077l2.691-.717Z" transform="translate(-28.449 -313.013)" fill="#e7e7e7"/>
        <path id="パス_12105" data-name="パス 12105" d="M57.467,460.792a.616.616,0,0,1-.372-.125A20.4,20.4,0,0,1,49.806,449.9L39.558,412.7a.615.615,0,1,1,1.187-.327l10.248,37.2A19.166,19.166,0,0,0,57.6,459.5l1.8-.479-1-3.661a.615.615,0,0,1,1.187-.325l1.167,4.259a.615.615,0,0,1-.435.757l-2.691.717a.611.611,0,0,1-.158.021" transform="translate(-32.934 -389.632)"/>
        <path id="パス_12106" data-name="パス 12106" d="M50.607,373.067a.615.615,0,0,1-.593-.453l-15.071-54.99-1.816.484a17.2,17.2,0,0,0-.8,11.395.615.615,0,0,1-1.186.327,18.431,18.431,0,0,1,.986-12.495.616.616,0,0,1,.4-.34l2.691-.717a.616.616,0,0,1,.752.432L51.2,372.289a.616.616,0,0,1-.594.778" transform="translate(-25.389 -309.943)" fill="#20110d"/>
        <path id="パス_12107" data-name="パス 12107" d="M69.05,426.691a.615.615,0,0,1-.593-.452L53.463,371.762a.615.615,0,1,1,1.186-.326l14.994,54.477a.616.616,0,0,1-.594.779" transform="translate(-44.518 -355.531)"/>
        <path id="パス_12109" data-name="パス 12109" d="M562.377,589.875a.607.607,0,0,1-.6-.537l-2.48-21.289a.607.607,0,1,1,1.206-.14l2.48,21.289a.608.608,0,0,1-.6.677" transform="translate(-465.903 -519.128)" fill="#c3c3c3"/>
        <path id="パス_12110" data-name="パス 12110" d="M558.367,512.169a.582.582,0,0,1-.079-.005.562.562,0,0,1-.478-.634,17.483,17.483,0,0,0-.488-5.793.562.562,0,0,1,1.094-.26,18.228,18.228,0,0,1,.507,6.209.562.562,0,0,1-.556.484" transform="translate(-464.25 -467.206)"/>
        <path id="パス_12136" data-name="パス 12136" d="M225.26,676.071a.615.615,0,0,0-.87,0,13.174,13.174,0,0,1-3.231,2.235.615.615,0,0,0,.521,1.115,14.222,14.222,0,0,0,3.58-2.48.615.615,0,0,0,0-.87" transform="translate(-183.935 -609.526)"/>
      </g>
    </g>
    <g id="グループ_4269" data-name="グループ 4269" transform="translate(-4528.17 85.106)">
      <g id="マスクグループ_14" data-name="マスクグループ 14" transform="translate(4594.17 140.56)" clip-path="url(#clip-path-2)">
        <g id="リピートグリッド_10" data-name="リピートグリッド 10" transform="translate(19.56 -11.554) rotate(45)" clip-path="url(#clip-path-3)">
          <g transform="translate(-829 -626)">
            <circle id="楕円形_138" data-name="楕円形 138" cx="2.5" cy="2.5" r="2.5" transform="translate(829 626)" fill="#fff"/>
          </g>
          <g transform="translate(-820 -626)">
            <circle id="楕円形_139" data-name="楕円形 139" cx="2.5" cy="2.5" r="2.5" transform="translate(829 626)" fill="#fff"/>
          </g>
          <g transform="translate(-811 -626)">
            <circle id="楕円形_140" data-name="楕円形 140" cx="2.5" cy="2.5" r="2.5" transform="translate(829 626)" fill="#fff"/>
          </g>
          <g transform="translate(-802 -626)">
            <circle id="楕円形_141" data-name="楕円形 141" cx="2.5" cy="2.5" r="2.5" transform="translate(829 626)" fill="#fff"/>
          </g>
          <g transform="translate(-793 -626)">
            <circle id="楕円形_142" data-name="楕円形 142" cx="2.5" cy="2.5" r="2.5" transform="translate(829 626)" fill="#fff"/>
          </g>
          <g transform="translate(-784 -626)">
            <circle id="楕円形_143" data-name="楕円形 143" cx="2.5" cy="2.5" r="2.5" transform="translate(829 626)" fill="#fff"/>
          </g>
          <g transform="translate(-829 -617)">
            <circle id="楕円形_157" data-name="楕円形 157" cx="2.5" cy="2.5" r="2.5" transform="translate(829 626)" fill="#fff"/>
          </g>
          <g transform="translate(-820 -617)">
            <circle id="楕円形_158" data-name="楕円形 158" cx="2.5" cy="2.5" r="2.5" transform="translate(829 626)" fill="#fff"/>
          </g>
          <g transform="translate(-811 -617)">
            <circle id="楕円形_159" data-name="楕円形 159" cx="2.5" cy="2.5" r="2.5" transform="translate(829 626)" fill="#fff"/>
          </g>
          <g transform="translate(-802 -617)">
            <circle id="楕円形_160" data-name="楕円形 160" cx="2.5" cy="2.5" r="2.5" transform="translate(829 626)" fill="#fff"/>
          </g>
          <g transform="translate(-793 -617)">
            <circle id="楕円形_161" data-name="楕円形 161" cx="2.5" cy="2.5" r="2.5" transform="translate(829 626)" fill="#fff"/>
          </g>
          <g transform="translate(-784 -617)">
            <circle id="楕円形_162" data-name="楕円形 162" cx="2.5" cy="2.5" r="2.5" transform="translate(829 626)" fill="#fff"/>
          </g>
          <g transform="translate(-829 -608)">
            <circle id="楕円形_176" data-name="楕円形 176" cx="2.5" cy="2.5" r="2.5" transform="translate(829 626)" fill="#fff"/>
          </g>
          <g transform="translate(-820 -608)">
            <circle id="楕円形_177" data-name="楕円形 177" cx="2.5" cy="2.5" r="2.5" transform="translate(829 626)" fill="#fff"/>
          </g>
          <g transform="translate(-811 -608)">
            <circle id="楕円形_178" data-name="楕円形 178" cx="2.5" cy="2.5" r="2.5" transform="translate(829 626)" fill="#fff"/>
          </g>
          <g transform="translate(-802 -608)">
            <circle id="楕円形_179" data-name="楕円形 179" cx="2.5" cy="2.5" r="2.5" transform="translate(829 626)" fill="#fff"/>
          </g>
          <g transform="translate(-793 -608)">
            <circle id="楕円形_180" data-name="楕円形 180" cx="2.5" cy="2.5" r="2.5" transform="translate(829 626)" fill="#fff"/>
          </g>
          <g transform="translate(-784 -608)">
            <circle id="楕円形_181" data-name="楕円形 181" cx="2.5" cy="2.5" r="2.5" transform="translate(829 626)" fill="#fff"/>
          </g>
          <g transform="translate(-829 -599)">
            <circle id="楕円形_195" data-name="楕円形 195" cx="2.5" cy="2.5" r="2.5" transform="translate(829 626)" fill="#fff"/>
          </g>
          <g transform="translate(-820 -599)">
            <circle id="楕円形_196" data-name="楕円形 196" cx="2.5" cy="2.5" r="2.5" transform="translate(829 626)" fill="#fff"/>
          </g>
          <g transform="translate(-811 -599)">
            <circle id="楕円形_197" data-name="楕円形 197" cx="2.5" cy="2.5" r="2.5" transform="translate(829 626)" fill="#fff"/>
          </g>
          <g transform="translate(-802 -599)">
            <circle id="楕円形_198" data-name="楕円形 198" cx="2.5" cy="2.5" r="2.5" transform="translate(829 626)" fill="#fff"/>
          </g>
          <g transform="translate(-793 -599)">
            <circle id="楕円形_199" data-name="楕円形 199" cx="2.5" cy="2.5" r="2.5" transform="translate(829 626)" fill="#fff"/>
          </g>
          <g transform="translate(-784 -599)">
            <circle id="楕円形_200" data-name="楕円形 200" cx="2.5" cy="2.5" r="2.5" transform="translate(829 626)" fill="#fff"/>
          </g>
          <g transform="translate(-829 -590)">
            <circle id="楕円形_214" data-name="楕円形 214" cx="2.5" cy="2.5" r="2.5" transform="translate(829 626)" fill="#fff"/>
          </g>
          <g transform="translate(-820 -590)">
            <circle id="楕円形_215" data-name="楕円形 215" cx="2.5" cy="2.5" r="2.5" transform="translate(829 626)" fill="#fff"/>
          </g>
          <g transform="translate(-811 -590)">
            <circle id="楕円形_216" data-name="楕円形 216" cx="2.5" cy="2.5" r="2.5" transform="translate(829 626)" fill="#fff"/>
          </g>
          <g transform="translate(-802 -590)">
            <circle id="楕円形_217" data-name="楕円形 217" cx="2.5" cy="2.5" r="2.5" transform="translate(829 626)" fill="#fff"/>
          </g>
          <g transform="translate(-793 -590)">
            <circle id="楕円形_218" data-name="楕円形 218" cx="2.5" cy="2.5" r="2.5" transform="translate(829 626)" fill="#fff"/>
          </g>
          <g transform="translate(-784 -590)">
            <circle id="楕円形_219" data-name="楕円形 219" cx="2.5" cy="2.5" r="2.5" transform="translate(829 626)" fill="#fff"/>
          </g>
        </g>
      </g>
      <path id="パス_12113" data-name="パス 12113" d="M260.862,262.616a7.969,7.969,0,1,1-7.969-7.969,7.969,7.969,0,0,1,7.969,7.969" transform="translate(4361.577 -106.715)" fill="#fff"/>
      <path id="パス_12114" data-name="パス 12114" d="M228.765,312.452a7.969,7.969,0,1,1-7.969-7.969,7.969,7.969,0,0,1,7.969,7.969" transform="translate(4388.315 -148.229)" fill="#fff"/>
      <path id="パス_12115" data-name="パス 12115" d="M293.519,312.452a7.969,7.969,0,1,1-7.969-7.969,7.969,7.969,0,0,1,7.969,7.969" transform="translate(4334.373 -148.229)" fill="#fff"/>
      <path id="パス_12116" data-name="パス 12116" d="M250.639,268.748a8.429,8.429,0,1,1,8.418-8.954.473.473,0,0,1-.945.059,7.475,7.475,0,1,0-.377,2.859.473.473,0,1,1,.9.3,8.4,8.4,0,0,1-7.463,5.716c-.178.011-.355.017-.53.017" transform="translate(4363.834 -104.418)"/>
      <path id="パス_12117" data-name="パス 12117" d="M218.543,320.273a8.428,8.428,0,0,1-8.423-8.256,8.474,8.474,0,0,1,3.976-7.332.473.473,0,1,1,.5.8,7.523,7.523,0,0,0-3.53,6.51,7.482,7.482,0,1,0,14.961-.307,7.579,7.579,0,0,0-.084-.983,7.472,7.472,0,0,0-7.55-6.344c-.186,0-.374.015-.559.032a.473.473,0,0,1-.089-.943c.207-.019.419-.032.628-.036a8.417,8.417,0,0,1,8.505,7.148,8.526,8.526,0,0,1,.1,1.106,8.439,8.439,0,0,1-8.254,8.6l-.178,0" transform="translate(4390.571 -147.34)"/>
      <path id="パス_12118" data-name="パス 12118" d="M282.84,320.275a8.451,8.451,0,0,1-8.408-7.835.473.473,0,0,1,.944-.066,7.477,7.477,0,1,0,.413-3.039.473.473,0,0,1-.892-.318,8.43,8.43,0,1,1,7.942,11.257" transform="translate(4336.997 -147.341)"/>
      <path id="パス_12119" data-name="パス 12119" d="M283.5,273.805h-.326v1.477a.613.613,0,0,1-.129.429.437.437,0,0,1-.335.138.428.428,0,0,1-.345-.144.638.638,0,0,1-.122-.423v-3.537a.489.489,0,0,1,.571-.571h1.514a4.618,4.618,0,0,1,.536.027,1.36,1.36,0,0,1,.4.108,1.16,1.16,0,0,1,.382.26,1.137,1.137,0,0,1,.252.393,1.313,1.313,0,0,1,.086.475,1.148,1.148,0,0,1-.29.822,1.665,1.665,0,0,1-.88.436,1.707,1.707,0,0,1,.474.389,3.964,3.964,0,0,1,.4.547,4.049,4.049,0,0,1,.276.523,1.034,1.034,0,0,1,.1.321.327.327,0,0,1-.058.18.4.4,0,0,1-.158.141.5.5,0,0,1-.232.052.453.453,0,0,1-.263-.074.709.709,0,0,1-.183-.186q-.077-.113-.209-.333l-.373-.621a3.427,3.427,0,0,0-.359-.52.887.887,0,0,0-.321-.245,1.108,1.108,0,0,0-.411-.066m.533-1.931h-.859v1.264h.834a2.337,2.337,0,0,0,.564-.058.661.661,0,0,0,.35-.2.568.568,0,0,0,.121-.384.594.594,0,0,0-.1-.337.587.587,0,0,0-.269-.218,1.943,1.943,0,0,0-.643-.069" transform="translate(4330.491 -120.483)"/>
      <path id="パス_12121" data-name="パス 12121" d="M236.547,349.532v.881a.924.924,0,0,1-.035.281.446.446,0,0,1-.127.19,1.187,1.187,0,0,1-.237.163,3.719,3.719,0,0,1-.8.329,3.236,3.236,0,0,1-.84.1,2.741,2.741,0,0,1-.966-.163,2.035,2.035,0,0,1-.743-.474,2.091,2.091,0,0,1-.472-.753,2.814,2.814,0,0,1-.165-.988,2.882,2.882,0,0,1,.16-.981,2.016,2.016,0,0,1,.47-.756,2.065,2.065,0,0,1,.756-.475,2.9,2.9,0,0,1,1.01-.165,2.5,2.5,0,0,1,.822.124,1.807,1.807,0,0,1,.58.312,1.394,1.394,0,0,1,.335.4.808.808,0,0,1,.113.373.4.4,0,0,1-.13.3.436.436,0,0,1-.312.124.421.421,0,0,1-.193-.047.439.439,0,0,1-.155-.132,3.766,3.766,0,0,0-.292-.408.945.945,0,0,0-.321-.232,1.228,1.228,0,0,0-.516-.094,1.425,1.425,0,0,0-.577.111,1.192,1.192,0,0,0-.434.323,1.454,1.454,0,0,0-.276.519,2.281,2.281,0,0,0-.1.68,1.866,1.866,0,0,0,.371,1.245,1.288,1.288,0,0,0,1.036.436,2.112,2.112,0,0,0,.607-.085,3.071,3.071,0,0,0,.575-.241v-.746h-.721a.789.789,0,0,1-.393-.078.284.284,0,0,1-.133-.266.327.327,0,0,1,.111-.254.436.436,0,0,1,.3-.1h1.057a1.347,1.347,0,0,1,.329.035.372.372,0,0,1,.218.154.627.627,0,0,1,.083.357" transform="translate(4372.209 -183.419)"/>
      <path id="パス_12123" data-name="パス 12123" d="M329.823,351.793h-1.4a.581.581,0,0,1-.434-.137.612.612,0,0,1-.13-.434v-3.455a.6.6,0,0,1,.133-.437.591.591,0,0,1,.431-.133h1.489a3.472,3.472,0,0,1,.571.041,1.222,1.222,0,0,1,.433.157,1.141,1.141,0,0,1,.289.246,1.089,1.089,0,0,1,.191.329,1.1,1.1,0,0,1,.066.381,1.057,1.057,0,0,1-.69,1.009,1.122,1.122,0,0,1,.906,1.123,1.26,1.26,0,0,1-.2.694,1.185,1.185,0,0,1-.533.456,1.907,1.907,0,0,1-.483.124,4.945,4.945,0,0,1-.637.036m-1.038-3.9v1.188h.853a1.717,1.717,0,0,0,.538-.066.514.514,0,0,0,.29-.251.566.566,0,0,0,.078-.295.458.458,0,0,0-.248-.463,1.893,1.893,0,0,0-.756-.114Zm.969,1.856h-.969v1.342h1q.944,0,.944-.68a.554.554,0,0,0-.245-.5,1.371,1.371,0,0,0-.731-.157" transform="translate(4292.495 -183.81)"/>
    </g>
    <g id="グループ_4271" data-name="グループ 4271" transform="translate(-4435.229 83.617)">
      <g id="マスクグループ_18" data-name="マスクグループ 18" transform="translate(4690.666 140.049)" clip-path="url(#clip-path-4)">
        <g id="リピートグリッド_15" data-name="リピートグリッド 15" transform="translate(19.254 -11.515) rotate(45)" clip-path="url(#clip-path-3)">
          <g transform="translate(-829 -626)">
            <circle id="楕円形_1232" data-name="楕円形 1232" cx="2.5" cy="2.5" r="2.5" transform="translate(829 626)" fill="#fff"/>
          </g>
          <g transform="translate(-820 -626)">
            <circle id="楕円形_1233" data-name="楕円形 1233" cx="2.5" cy="2.5" r="2.5" transform="translate(829 626)" fill="#fff"/>
          </g>
          <g transform="translate(-811 -626)">
            <circle id="楕円形_1234" data-name="楕円形 1234" cx="2.5" cy="2.5" r="2.5" transform="translate(829 626)" fill="#fff"/>
          </g>
          <g transform="translate(-802 -626)">
            <circle id="楕円形_1235" data-name="楕円形 1235" cx="2.5" cy="2.5" r="2.5" transform="translate(829 626)" fill="#fff"/>
          </g>
          <g transform="translate(-793 -626)">
            <circle id="楕円形_1236" data-name="楕円形 1236" cx="2.5" cy="2.5" r="2.5" transform="translate(829 626)" fill="#fff"/>
          </g>
          <g transform="translate(-784 -626)">
            <circle id="楕円形_1237" data-name="楕円形 1237" cx="2.5" cy="2.5" r="2.5" transform="translate(829 626)" fill="#fff"/>
          </g>
          <g transform="translate(-829 -617)">
            <circle id="楕円形_1243" data-name="楕円形 1243" cx="2.5" cy="2.5" r="2.5" transform="translate(829 626)" fill="#fff"/>
          </g>
          <g transform="translate(-820 -617)">
            <circle id="楕円形_1244" data-name="楕円形 1244" cx="2.5" cy="2.5" r="2.5" transform="translate(829 626)" fill="#fff"/>
          </g>
          <g transform="translate(-811 -617)">
            <circle id="楕円形_1245" data-name="楕円形 1245" cx="2.5" cy="2.5" r="2.5" transform="translate(829 626)" fill="#fff"/>
          </g>
          <g transform="translate(-802 -617)">
            <circle id="楕円形_1246" data-name="楕円形 1246" cx="2.5" cy="2.5" r="2.5" transform="translate(829 626)" fill="#fff"/>
          </g>
          <g transform="translate(-793 -617)">
            <circle id="楕円形_1247" data-name="楕円形 1247" cx="2.5" cy="2.5" r="2.5" transform="translate(829 626)" fill="#fff"/>
          </g>
          <g transform="translate(-784 -617)">
            <circle id="楕円形_1248" data-name="楕円形 1248" cx="2.5" cy="2.5" r="2.5" transform="translate(829 626)" fill="#fff"/>
          </g>
          <g transform="translate(-829 -608)">
            <circle id="楕円形_1254" data-name="楕円形 1254" cx="2.5" cy="2.5" r="2.5" transform="translate(829 626)" fill="#fff"/>
          </g>
          <g transform="translate(-820 -608)">
            <circle id="楕円形_1255" data-name="楕円形 1255" cx="2.5" cy="2.5" r="2.5" transform="translate(829 626)" fill="#fff"/>
          </g>
          <g transform="translate(-811 -608)">
            <circle id="楕円形_1256" data-name="楕円形 1256" cx="2.5" cy="2.5" r="2.5" transform="translate(829 626)" fill="#fff"/>
          </g>
          <g transform="translate(-802 -608)">
            <circle id="楕円形_1257" data-name="楕円形 1257" cx="2.5" cy="2.5" r="2.5" transform="translate(829 626)" fill="#fff"/>
          </g>
          <g transform="translate(-793 -608)">
            <circle id="楕円形_1258" data-name="楕円形 1258" cx="2.5" cy="2.5" r="2.5" transform="translate(829 626)" fill="#fff"/>
          </g>
          <g transform="translate(-784 -608)">
            <circle id="楕円形_1259" data-name="楕円形 1259" cx="2.5" cy="2.5" r="2.5" transform="translate(829 626)" fill="#fff"/>
          </g>
          <g transform="translate(-829 -599)">
            <circle id="楕円形_1265" data-name="楕円形 1265" cx="2.5" cy="2.5" r="2.5" transform="translate(829 626)" fill="#fff"/>
          </g>
          <g transform="translate(-820 -599)">
            <circle id="楕円形_1266" data-name="楕円形 1266" cx="2.5" cy="2.5" r="2.5" transform="translate(829 626)" fill="#fff"/>
          </g>
          <g transform="translate(-811 -599)">
            <circle id="楕円形_1267" data-name="楕円形 1267" cx="2.5" cy="2.5" r="2.5" transform="translate(829 626)" fill="#fff"/>
          </g>
          <g transform="translate(-802 -599)">
            <circle id="楕円形_1268" data-name="楕円形 1268" cx="2.5" cy="2.5" r="2.5" transform="translate(829 626)" fill="#fff"/>
          </g>
          <g transform="translate(-793 -599)">
            <circle id="楕円形_1269" data-name="楕円形 1269" cx="2.5" cy="2.5" r="2.5" transform="translate(829 626)" fill="#fff"/>
          </g>
          <g transform="translate(-784 -599)">
            <circle id="楕円形_1270" data-name="楕円形 1270" cx="2.5" cy="2.5" r="2.5" transform="translate(829 626)" fill="#fff"/>
          </g>
          <g transform="translate(-829 -590)">
            <circle id="楕円形_1276" data-name="楕円形 1276" cx="2.5" cy="2.5" r="2.5" transform="translate(829 626)" fill="#fff"/>
          </g>
          <g transform="translate(-820 -590)">
            <circle id="楕円形_1277" data-name="楕円形 1277" cx="2.5" cy="2.5" r="2.5" transform="translate(829 626)" fill="#fff"/>
          </g>
          <g transform="translate(-811 -590)">
            <circle id="楕円形_1278" data-name="楕円形 1278" cx="2.5" cy="2.5" r="2.5" transform="translate(829 626)" fill="#fff"/>
          </g>
          <g transform="translate(-802 -590)">
            <circle id="楕円形_1279" data-name="楕円形 1279" cx="2.5" cy="2.5" r="2.5" transform="translate(829 626)" fill="#fff"/>
          </g>
          <g transform="translate(-793 -590)">
            <circle id="楕円形_1280" data-name="楕円形 1280" cx="2.5" cy="2.5" r="2.5" transform="translate(829 626)" fill="#fff"/>
          </g>
          <g transform="translate(-784 -590)">
            <circle id="楕円形_1281" data-name="楕円形 1281" cx="2.5" cy="2.5" r="2.5" transform="translate(829 626)" fill="#fff"/>
          </g>
        </g>
      </g>
      <path id="パス_12125" data-name="パス 12125" d="M872.3,270.112c-.656,3.193-1.708,11.425-1.172,14.523l4.108,5.073,2.988-.963.141-.046,2.988-.963.374-6.517c-1.369-2.819-7.029-8.892-9.429-11.108" transform="translate(3840.052 -119.597)" fill="#fff"/>
      <path id="パス_12126" data-name="パス 12126" d="M872.648,287.631a.521.521,0,0,1-.4-.193l-4.108-5.073a.522.522,0,0,1-.109-.239c-.547-3.162.489-11.38,1.175-14.717a.521.521,0,0,1,.863-.278c2.506,2.312,8.147,8.384,9.544,11.263a.521.521,0,0,1,.051.257l-.374,6.517a.521.521,0,0,1-.36.466l-6.118,1.971a.522.522,0,0,1-.16.025m-3.617-5.814,3.8,4.688,5.439-1.752.346-6.023c-1.272-2.48-5.873-7.564-8.569-10.183-.661,3.7-1.429,10.508-1.013,13.27" transform="translate(3842.645 -117)"/>
      <path id="パス_12127" data-name="パス 12127" d="M892.74,322.258a1.262,1.262,0,1,1-1.588-.814,1.262,1.262,0,0,1,1.588.814" transform="translate(3823.983 -162.307)" fill="#fff"/>
      <path id="パス_12128" data-name="パス 12128" d="M888.943,321.831a1.784,1.784,0,1,1,.545-.086,1.786,1.786,0,0,1-.545.086m0-2.525a.742.742,0,1,0,.706.514.741.741,0,0,0-.706-.514" transform="translate(3826.58 -159.709)"/>
      <rect id="長方形_23273" data-name="長方形 23273" width="6.428" height="3.315" transform="translate(4715.294 170.111) rotate(-17.858)" fill="#fff"/>
      <path id="パス_12129" data-name="パス 12129" d="M894.89,378.714a.521.521,0,0,1-.5-.361l-1.016-3.155a.521.521,0,0,1,.336-.655l6.118-1.971a.521.521,0,0,1,.655.336l1.016,3.155a.52.52,0,0,1-.336.655l-6.118,1.971a.523.523,0,0,1-.16.025m-.361-3.34.7,2.164,5.127-1.652-.7-2.164Z" transform="translate(3821.42 -204.928)"/>
      <path id="パス_12130" data-name="パス 12130" d="M879.062,276.657a.521.521,0,0,1-.5-.361l-2.778-8.622a.521.521,0,0,1,.991-.319l2.778,8.622a.521.521,0,0,1-.5.68" transform="translate(3836.073 -116.999)"/>
      <path id="パス_12131" data-name="パス 12131" d="M786.167,338.476a1.6,1.6,0,1,1-1.6-1.6,1.6,1.6,0,0,1,1.6,1.6" transform="translate(3913.372 -175.215)" fill="#fff"/>
      <path id="パス_12132" data-name="パス 12132" d="M781.971,338a2.119,2.119,0,1,1,2.119-2.119A2.121,2.121,0,0,1,781.971,338m0-3.2a1.078,1.078,0,1,0,1.078,1.078,1.079,1.079,0,0,0-1.078-1.078" transform="translate(3915.969 -172.618)"/>
      <path id="パス_12133" data-name="パス 12133" d="M791.047,268.564a.521.521,0,0,1-.52-.493,14.453,14.453,0,0,1,1.219-5.971c1.251-2.86,4.053-6.522,10.3-7.731a.521.521,0,1,1,.2,1.022c-4.641.9-7.846,3.283-9.525,7.088a13.651,13.651,0,0,0-1.149,5.538.521.521,0,0,1-.494.546h-.026" transform="translate(3907.081 -106.475)"/>
      <path id="パス_12134" data-name="パス 12134" d="M852.052,252.882a1.6,1.6,0,1,1-1.6-1.6,1.6,1.6,0,0,1,1.6,1.6" transform="translate(3858.488 -103.913)" fill="#fff"/>
      <path id="パス_12135" data-name="パス 12135" d="M847.856,252.4a2.119,2.119,0,1,1,2.119-2.119,2.122,2.122,0,0,1-2.119,2.119m0-3.2a1.078,1.078,0,1,0,1.078,1.078,1.079,1.079,0,0,0-1.078-1.078" transform="translate(3861.085 -101.315)"/>
    </g>
    <g id="グループ_4270" data-name="グループ 4270" transform="translate(-4496.018 93.639)">
      <g id="マスクグループ_17" data-name="マスクグループ 17" transform="translate(4642.673 105.331)" clip-path="url(#clip-path-6)">
        <g id="リピートグリッド_14" data-name="リピートグリッド 14" transform="translate(19.623 -11.218) rotate(45)" clip-path="url(#clip-path-3)">
          <g transform="translate(-829 -626)">
            <circle id="楕円形_1110" data-name="楕円形 1110" cx="2.5" cy="2.5" r="2.5" transform="translate(829 626)" fill="#fff"/>
          </g>
          <g transform="translate(-820 -626)">
            <circle id="楕円形_1111" data-name="楕円形 1111" cx="2.5" cy="2.5" r="2.5" transform="translate(829 626)" fill="#fff"/>
          </g>
          <g transform="translate(-811 -626)">
            <circle id="楕円形_1112" data-name="楕円形 1112" cx="2.5" cy="2.5" r="2.5" transform="translate(829 626)" fill="#fff"/>
          </g>
          <g transform="translate(-802 -626)">
            <circle id="楕円形_1113" data-name="楕円形 1113" cx="2.5" cy="2.5" r="2.5" transform="translate(829 626)" fill="#fff"/>
          </g>
          <g transform="translate(-793 -626)">
            <circle id="楕円形_1114" data-name="楕円形 1114" cx="2.5" cy="2.5" r="2.5" transform="translate(829 626)" fill="#fff"/>
          </g>
          <g transform="translate(-784 -626)">
            <circle id="楕円形_1115" data-name="楕円形 1115" cx="2.5" cy="2.5" r="2.5" transform="translate(829 626)" fill="#fff"/>
          </g>
          <g transform="translate(-829 -617)">
            <circle id="楕円形_1121" data-name="楕円形 1121" cx="2.5" cy="2.5" r="2.5" transform="translate(829 626)" fill="#fff"/>
          </g>
          <g transform="translate(-820 -617)">
            <circle id="楕円形_1122" data-name="楕円形 1122" cx="2.5" cy="2.5" r="2.5" transform="translate(829 626)" fill="#fff"/>
          </g>
          <g transform="translate(-811 -617)">
            <circle id="楕円形_1123" data-name="楕円形 1123" cx="2.5" cy="2.5" r="2.5" transform="translate(829 626)" fill="#fff"/>
          </g>
          <g transform="translate(-802 -617)">
            <circle id="楕円形_1124" data-name="楕円形 1124" cx="2.5" cy="2.5" r="2.5" transform="translate(829 626)" fill="#fff"/>
          </g>
          <g transform="translate(-793 -617)">
            <circle id="楕円形_1125" data-name="楕円形 1125" cx="2.5" cy="2.5" r="2.5" transform="translate(829 626)" fill="#fff"/>
          </g>
          <g transform="translate(-784 -617)">
            <circle id="楕円形_1126" data-name="楕円形 1126" cx="2.5" cy="2.5" r="2.5" transform="translate(829 626)" fill="#fff"/>
          </g>
          <g transform="translate(-829 -608)">
            <circle id="楕円形_1132" data-name="楕円形 1132" cx="2.5" cy="2.5" r="2.5" transform="translate(829 626)" fill="#fff"/>
          </g>
          <g transform="translate(-820 -608)">
            <circle id="楕円形_1133" data-name="楕円形 1133" cx="2.5" cy="2.5" r="2.5" transform="translate(829 626)" fill="#fff"/>
          </g>
          <g transform="translate(-811 -608)">
            <circle id="楕円形_1134" data-name="楕円形 1134" cx="2.5" cy="2.5" r="2.5" transform="translate(829 626)" fill="#fff"/>
          </g>
          <g transform="translate(-802 -608)">
            <circle id="楕円形_1135" data-name="楕円形 1135" cx="2.5" cy="2.5" r="2.5" transform="translate(829 626)" fill="#fff"/>
          </g>
          <g transform="translate(-793 -608)">
            <circle id="楕円形_1136" data-name="楕円形 1136" cx="2.5" cy="2.5" r="2.5" transform="translate(829 626)" fill="#fff"/>
          </g>
          <g transform="translate(-784 -608)">
            <circle id="楕円形_1137" data-name="楕円形 1137" cx="2.5" cy="2.5" r="2.5" transform="translate(829 626)" fill="#fff"/>
          </g>
          <g transform="translate(-829 -599)">
            <circle id="楕円形_1143" data-name="楕円形 1143" cx="2.5" cy="2.5" r="2.5" transform="translate(829 626)" fill="#fff"/>
          </g>
          <g transform="translate(-820 -599)">
            <circle id="楕円形_1144" data-name="楕円形 1144" cx="2.5" cy="2.5" r="2.5" transform="translate(829 626)" fill="#fff"/>
          </g>
          <g transform="translate(-811 -599)">
            <circle id="楕円形_1145" data-name="楕円形 1145" cx="2.5" cy="2.5" r="2.5" transform="translate(829 626)" fill="#fff"/>
          </g>
          <g transform="translate(-802 -599)">
            <circle id="楕円形_1146" data-name="楕円形 1146" cx="2.5" cy="2.5" r="2.5" transform="translate(829 626)" fill="#fff"/>
          </g>
          <g transform="translate(-793 -599)">
            <circle id="楕円形_1147" data-name="楕円形 1147" cx="2.5" cy="2.5" r="2.5" transform="translate(829 626)" fill="#fff"/>
          </g>
          <g transform="translate(-784 -599)">
            <circle id="楕円形_1148" data-name="楕円形 1148" cx="2.5" cy="2.5" r="2.5" transform="translate(829 626)" fill="#fff"/>
          </g>
          <g transform="translate(-829 -590)">
            <circle id="楕円形_1154" data-name="楕円形 1154" cx="2.5" cy="2.5" r="2.5" transform="translate(829 626)" fill="#fff"/>
          </g>
          <g transform="translate(-820 -590)">
            <circle id="楕円形_1155" data-name="楕円形 1155" cx="2.5" cy="2.5" r="2.5" transform="translate(829 626)" fill="#fff"/>
          </g>
          <g transform="translate(-811 -590)">
            <circle id="楕円形_1156" data-name="楕円形 1156" cx="2.5" cy="2.5" r="2.5" transform="translate(829 626)" fill="#fff"/>
          </g>
          <g transform="translate(-802 -590)">
            <circle id="楕円形_1157" data-name="楕円形 1157" cx="2.5" cy="2.5" r="2.5" transform="translate(829 626)" fill="#fff"/>
          </g>
          <g transform="translate(-793 -590)">
            <circle id="楕円形_1158" data-name="楕円形 1158" cx="2.5" cy="2.5" r="2.5" transform="translate(829 626)" fill="#fff"/>
          </g>
          <g transform="translate(-784 -590)">
            <circle id="楕円形_1159" data-name="楕円形 1159" cx="2.5" cy="2.5" r="2.5" transform="translate(829 626)" fill="#fff"/>
          </g>
        </g>
      </g>
      <path id="パス_12111" data-name="パス 12111" d="M513.545,65.4h-2.662L506.4,78.342l-1.7.192v1.34h5.821v-1.34l-2.106-.192,1.168-3.639h4.806l1.13,3.639-2.03.192v1.34H519.5v-1.34l-1.551-.192Zm-3.485,7.756,1.953-6.109,1.9,6.109Z" transform="translate(4145.179 50.935)"/>
      <path id="パス_12112" data-name="パス 12112" d="M609.231,101.176c-.919,0-1.187-.326-1.187-1.36v-3.7c0-2.164-1.3-3.313-3.715-3.313a6.942,6.942,0,0,0-3.562,1.092v2.355h1.513l.172-1.666a3.818,3.818,0,0,1,1.475-.287c1.417,0,2.049.613,2.049,2.03v.594c-4.347.249-6.013,1.168-6.013,3.332,0,1.666,1.13,2.643,3.045,2.643a3.9,3.9,0,0,0,3.179-1.417,1.78,1.78,0,0,0,1.934,1.226,4.655,4.655,0,0,0,1.57-.249v-1.321a3.421,3.421,0,0,1-.46.038m-3.255-.843a2.678,2.678,0,0,1-2.279,1.072c-1.034,0-1.609-.479-1.609-1.36,0-1.13,1.168-1.666,3.887-1.762Z" transform="translate(4065.821 28.101)"/>
    </g>
  </g>
</svg>
