<svg xmlns="http://www.w3.org/2000/svg" width="333.308" height="249.18" viewBox="0 0 333.308 249.18">
  <g id="レイヤー_1" data-name="レイヤー 1" transform="translate(0.004 -0.004)">
    <g id="グループ_3365" data-name="グループ 3365" transform="translate(-0.004 0.004)">
      <g id="グループ_3358" data-name="グループ 3358" transform="translate(35.157 60.979)">
        <path id="パス_8347" data-name="パス 8347" d="M222.566,244.781a1.307,1.307,0,0,1-1.344-1.291H215.87a1.264,1.264,0,0,1,.815,1.238v17.838a1.282,1.282,0,0,1-.008.174H237.5v-2.574a1.331,1.331,0,0,1-1.457-1.351v-10.2a1.331,1.331,0,0,1,1.457-1.351v-2.491H222.573Z" transform="translate(-88.519 -122.65)" fill="#fff"/>
        <path id="パス_8348" data-name="パス 8348" d="M62.392,253.657a2.225,2.225,0,0,0-1.91.189,1.436,1.436,0,0,1-.732,2.619v2.6a2.462,2.462,0,0,1,.332-.03,1.19,1.19,0,0,1,1.283.891,3.708,3.708,0,0,1,1.54.287c-.068-.928-.136-1.849-.2-2.778-.091-1.208-.272-2.5-.317-3.782Z" transform="translate(-49.801 -125.11)" fill="#ebebeb"/>
        <path id="パス_8349" data-name="パス 8349" d="M61.483,262.008a1.455,1.455,0,0,1-1.283,1.9v3.578a1.437,1.437,0,0,1,1.329,1.721,3.8,3.8,0,0,0,2.008-.083q-.249-3.42-.506-6.839a3.968,3.968,0,0,0-1.54-.287Z" transform="translate(-49.911 -127.188)" fill="#ebebeb"/>
        <path id="パス_8350" data-name="パス 8350" d="M63.419,271.44a3.882,3.882,0,0,1-2.008.083,1.211,1.211,0,0,1-1.329,1.072c-.113,0-.226-.023-.332-.03v2.6a1.44,1.44,0,0,1,.838,2.544,7.587,7.587,0,0,0,3.216-.1c-.06-1.132-.1-2.272-.181-3.374-.068-.928-.136-1.865-.2-2.793Z" transform="translate(-49.801 -129.502)" fill="#ebebeb"/>
        <path id="パス_8351" data-name="パス 8351" d="M341.73,219.634l3.631-.725v-.279h-3.11A1.363,1.363,0,0,1,341.73,219.634Z" transform="translate(-119.721 -116.557)" fill="#ebebeb"/>
        <path id="パス_8352" data-name="パス 8352" d="M242.58,249.843v10.2a1.331,1.331,0,0,0,1.457,1.351V248.5a1.327,1.327,0,0,0-1.457,1.351Z" transform="translate(-95.095 -123.878)" fill="#222"/>
        <path id="パス_8353" data-name="パス 8353" d="M244.51,248.488v12.893a1.313,1.313,0,0,0,1.336-1.351v-10.2a1.317,1.317,0,0,0-1.336-1.351Z" transform="translate(-95.572 -123.874)" fill="#222"/>
        <path id="パス_8354" data-name="パス 8354" d="M244.208,272.237a1.352,1.352,0,0,1-1.351-1.4h-4.152a1.321,1.321,0,0,1-1.351,1.4H193.518a11.559,11.559,0,0,0-6.62,1.578,9.7,9.7,0,0,0-4.288,6.884H253.8A9.8,9.8,0,0,0,244.208,272.237Z" transform="translate(-80.378 -129.355)" fill="#fff"/>
        <path id="パス_8355" data-name="パス 8355" d="M214.32,243.445h.642v-.106A1.552,1.552,0,0,0,214.32,243.445Z" transform="translate(-88.097 -122.613)" fill="#222"/>
        <path id="パス_8356" data-name="パス 8356" d="M215.17,243.34v.106h.528A1.568,1.568,0,0,0,215.17,243.34Z" transform="translate(-88.307 -122.614)" fill="#222"/>
        <path id="パス_8357" data-name="パス 8357" d="M243.264,262.729a1.3,1.3,0,0,0-1.351,1.4,1.343,1.343,0,0,0,1.351,1.4,9.805,9.805,0,0,1,9.595,8.462H181.666a9.7,9.7,0,0,1,4.288-6.884,11.573,11.573,0,0,1,6.62-1.578H236.41a1.4,1.4,0,0,0,0-2.793h-8.017v0h-20.82c0-.053.008-.113.008-.174V244.718a1.264,1.264,0,0,0-.815-1.238h-.528v0H205.6a1.264,1.264,0,0,0-.815,1.238v17.838a1.339,1.339,0,0,0,.008.174H192.136a13.423,13.423,0,0,0-8.492,2.6,12.645,12.645,0,0,0-4.884,10.063,1.418,1.418,0,0,0,1.4,1.4h74.19a1.418,1.418,0,0,0,1.4-1.4,12.654,12.654,0,0,0-12.486-12.659Z" transform="translate(-79.437 -122.648)" fill="#222"/>
        <path id="パス_8358" data-name="パス 8358" d="M119.144,184.845h.272c6.673-.234,13.4,0,20.072,0h145.76a1.338,1.338,0,0,1,1.344,1.532h3.11V98.442c0-3.2.913-8.545-2.2-10.576-1.819-1.185-4.914-.725-6.99-.725H120.457a6.954,6.954,0,0,0-2.936.377c-2.317,1.019-2.831,3.3-2.831,5.548v93.318h3.11a1.338,1.338,0,0,1,1.344-1.532Zm90.05-11.353H142.371a1.4,1.4,0,0,1,0-2.793h66.822A1.4,1.4,0,0,1,209.193,173.492Zm0-6.394H142.371a1.4,1.4,0,0,1,0-2.793h66.822A1.4,1.4,0,0,1,209.193,167.1Zm-8.206-11.074a17.685,17.685,0,0,1-10.968,1.215,16.94,16.94,0,1,1,20.653-16.7v.166a17.171,17.171,0,0,1-9.693,15.309Zm32.762,7.353a1.418,1.418,0,0,1-1.4,1.4h-6.3a1.28,1.28,0,0,1-1-.423,1.3,1.3,0,0,1-.4-.981v-11.1a1.418,1.418,0,0,1,1.4-1.4h6.3a1.418,1.418,0,0,1,1.4,1.4v11.1Zm11.459,0a1.418,1.418,0,0,1-1.4,1.4h-6.3a1.28,1.28,0,0,1-1-.423,1.3,1.3,0,0,1-.4-.981v-16.66a1.418,1.418,0,0,1,1.4-1.4h6.3a1.418,1.418,0,0,1,1.4,1.4v16.66Zm11.459,0a1.418,1.418,0,0,1-1.4,1.4h-6.3a1.28,1.28,0,0,1-1-.423,1.3,1.3,0,0,1-.4-.981v-16.66a1.418,1.418,0,0,1,1.4-1.4h6.3a1.418,1.418,0,0,1,1.4,1.4v16.66Zm11.459-21.831v21.831a1.418,1.418,0,0,1-1.4,1.4h-6.3a1.28,1.28,0,0,1-1-.423,1.3,1.3,0,0,1-.4-.981V138.383a1.418,1.418,0,0,1,1.4-1.4h6.3a1.418,1.418,0,0,1,1.4,1.4v3.155Zm.317-14.8-5.246,5.246-7.647,7.647c-.989.989-2.34,3-3.857,3.065-5.141.219-10.327.015-15.475,0-1.736,1.751-3.435,3.563-5.239,5.231-.883.815-2.121.574-3.246.574h-4.008a1.4,1.4,0,0,1,0-2.793h5.526l3.9-3.9c.9-.9,1.578-1.887,2.921-1.917,1.744-.038,3.5,0,5.246,0h10.017l15.135-15.135a1.4,1.4,0,0,1,1.978,1.978ZM159.96,103.364h.181c4.19-.3,8.507,0,12.7,0h91.393a1.4,1.4,0,0,1,0,2.793h-.181c-4.19.3-8.507,0-12.7,0H159.96a1.4,1.4,0,0,1,0-2.793Zm-6.25-.159a1.4,1.4,0,0,1,0,2.793A1.4,1.4,0,0,1,153.71,103.205Zm-6.922,0a1.4,1.4,0,0,1,0,2.793A1.4,1.4,0,0,1,146.787,103.205Zm-6.922,0a1.4,1.4,0,0,1,0,2.793A1.4,1.4,0,0,1,139.865,103.205Zm-2.295,34.468a16.939,16.939,0,0,1,33.6,2.755v.287a1.838,1.838,0,0,1-.008.2,17.307,17.307,0,0,1-7.02,13.52,1.249,1.249,0,0,1-.159.121,16.933,16.933,0,0,1-26.421-16.887Z" transform="translate(-64.069 -84.305)" fill="#fff"/>
        <path id="パス_8359" data-name="パス 8359" d="M223.685,155.07a6.45,6.45,0,1,0-8.6,7.035,7.079,7.079,0,0,0,4.386.023A6.528,6.528,0,0,0,223.685,155.07Z" transform="translate(-87.261 -99.641)" fill="#fff"/>
        <path id="パス_8360" data-name="パス 8360" d="M171.4,155.755a6.448,6.448,0,1,0-6.439,6.741,6.937,6.937,0,0,0,3.623-1.117A6.562,6.562,0,0,0,171.4,155.755Z" transform="translate(-74.297 -99.639)" fill="#fff"/>
        <path id="パス_8361" data-name="パス 8361" d="M291.583,193.872V91.8c0-3-1.117-5.911-3.9-7.436a8.838,8.838,0,0,0-4.424-.921H122.558c-2.785,0-5.9-.377-8.311,1.306-4.016,2.808-3.284,7.813-3.284,12.055v97.7c0,3.661-.113,7.345,3.284,9.715,1.729,1.208,3.623,1.306,5.616,1.306H182.6a1.307,1.307,0,0,0,1.344-1.291h0a1.334,1.334,0,0,0-1.344-1.5H151.477c-10.983,0-22,.272-32.973,0a4.756,4.756,0,0,1-4.514-3.314,13.39,13.39,0,0,1-.234-3.963V92.167c0-2.25.521-4.529,2.831-5.548a6.954,6.954,0,0,1,2.936-.377H279.588c2.076,0,5.163-.46,6.99.725,3.11,2.031,2.2,7.375,2.2,10.576v99.221c0,2.227-.438,4.446-2.672,5.526a5.628,5.628,0,0,1-2.506.46c-5.292.015-10.583,0-15.868,0H211.475c-2.423,0-4.854-.053-7.285-.076-2.385-.023-4.778-.023-7.156.076h-.211a1.334,1.334,0,0,0-1.344,1.5h0a1.307,1.307,0,0,0,1.344,1.291h14.924v0h71.63c4.122,0,7.685-2.544,8.138-6.854a46.438,46.438,0,0,0,.045-4.809Z" transform="translate(-63.142 -83.412)" fill="#222"/>
        <path id="パス_8362" data-name="パス 8362" d="M287.609,218.089a1.338,1.338,0,0,0-1.344-1.532H140.506c-6.673,0-13.4-.234-20.072,0h-.272a1.338,1.338,0,0,0-1.344,1.532,1.308,1.308,0,0,0,1.344,1.268h145.76c6.6,0,13.241.226,19.838,0l1.329-.264A1.39,1.39,0,0,0,287.609,218.089Z" transform="translate(-65.079 -116.023)" fill="#222"/>
        <path id="パス_8363" data-name="パス 8363" d="M286.068,219.634l-1.329.264c-6.6.219-13.241,0-19.838,0H119.134a1.3,1.3,0,0,1-1.344-1.268h-3.11v9.987a13.665,13.665,0,0,0,.234,3.963,4.749,4.749,0,0,0,4.514,3.314c10.976.272,22,0,32.973,0h31.124a1.329,1.329,0,0,1,1.344,1.5h5.012a1.552,1.552,0,0,1,.642-.106,1.4,1.4,0,0,1,.528.106H196.4a1.334,1.334,0,0,1,1.344-1.5h.211c2.378-.1,4.763-.1,7.156-.076,2.431.023,4.861.076,7.285.076h56.254c5.292,0,10.583.015,15.868,0a5.526,5.526,0,0,0,2.506-.46c2.234-1.079,2.672-3.3,2.672-5.526V218.9l-3.631.725Z" transform="translate(-64.059 -116.557)" fill="#ebebeb"/>
        <path id="パス_8364" data-name="パス 8364" d="M220.676,170.088a9.482,9.482,0,0,1-3.231.091c-.159,1.631-.317,3.269-.476,4.9a14.293,14.293,0,0,0,6.333-.611c-.876-1.464-1.751-2.921-2.627-4.386Z" transform="translate(-88.763 -104.656)" fill="#fff"/>
        <path id="パス_8365" data-name="パス 8365" d="M210.234,166.91c.166-1.706.332-3.4.5-5.111a9.4,9.4,0,0,1-5.156-7.994,1.422,1.422,0,0,1-.015-.257,2.052,2.052,0,0,1,.008-.219,9.391,9.391,0,0,1,8.47-8.976V139.44a14.118,14.118,0,0,0-3.812,27.47Z" transform="translate(-84.731 -97.146)" fill="#fff"/>
        <path id="パス_8366" data-name="パス 8366" d="M222.11,139.61v5.02a9.171,9.171,0,0,1,2.484,16.97l2.536,4.235a14.123,14.123,0,0,0-5.02-26.225Z" transform="translate(-90.046 -97.187)" fill="#fff23f"/>
        <path id="パス_8367" data-name="パス 8367" d="M214.554,135.707a16.942,16.942,0,0,0-4.356,33.456,17.733,17.733,0,0,0,10.968-1.215,17.171,17.171,0,0,0,9.693-15.309v-.166a17.154,17.154,0,0,0-16.3-16.758Zm-14.607,14.63a14.3,14.3,0,0,1,13.21-11.814v4.914a9.385,9.385,0,0,0-8.47,8.975,1.044,1.044,0,0,0-.008.219,1.425,1.425,0,0,0,.015.257,9.371,9.371,0,0,0,5.156,7.994c-.166,1.706-.332,3.4-.5,5.111a14.276,14.276,0,0,1-9.4-15.656Zm16.132,8.372a7.025,7.025,0,0,1-4.386-.023,6.449,6.449,0,1,1,4.386.023Zm-4,7.941c.159-1.631.317-3.269.476-4.9a9.688,9.688,0,0,0,3.231-.091c.876,1.464,1.751,2.921,2.627,4.386a14.526,14.526,0,0,1-6.333.611Zm8.892-1.782-2.536-4.235a9.171,9.171,0,0,0-2.484-16.97v-5.02a14.123,14.123,0,0,1,5.02,26.225Z" transform="translate(-83.869 -96.228)" fill="#222"/>
        <path id="パス_8368" data-name="パス 8368" d="M169.76,139.61v5.02a9.337,9.337,0,0,1,7.013,7.277h4.975a14.3,14.3,0,0,0-11.987-12.3Z" transform="translate(-77.08 -97.187)" fill="#fff"/>
        <path id="パス_8369" data-name="パス 8369" d="M151.059,161.91a14.262,14.262,0,0,0,18.427,3.9c-1.012-1.314-2.031-2.619-3.042-3.933a9.879,9.879,0,0,1-3.714.906,2.449,2.449,0,0,1-.249.015,1.178,1.178,0,0,1-.234-.015,9.234,9.234,0,0,1-.528-18.434V139.43a14.142,14.142,0,0,0-8.983,3.857,14.3,14.3,0,0,0-1.676,18.615Z" transform="translate(-71.795 -97.143)" fill="#4b5ca3"/>
        <path id="パス_8370" data-name="パス 8370" d="M156.362,168.755a17.081,17.081,0,0,0,14.969-2.28c.06-.038.106-.083.159-.121a17.3,17.3,0,0,0,7.02-13.52c0-.068.008-.128.008-.2v-.287a16.939,16.939,0,1,0-22.148,16.411Zm5.216-9.678a6.451,6.451,0,1,1,3.623-1.117A6.958,6.958,0,0,1,161.578,159.078Zm9.277,4.22-3.035-3.918a9.379,9.379,0,0,0,2.914-5.639h4.922A14.341,14.341,0,0,1,170.856,163.3Zm-.226-12.357a9.316,9.316,0,0,0-7.013-7.277v-5.02a14.3,14.3,0,0,1,11.987,12.3h-4.975Zm-9.813-12.425v4.914a9.234,9.234,0,0,0,.528,18.434,2.289,2.289,0,0,0,.234.015,1.339,1.339,0,0,0,.249-.015,9.914,9.914,0,0,0,3.714-.906c1.012,1.314,2.031,2.619,3.042,3.933a14.13,14.13,0,1,1-7.768-26.368Z" transform="translate(-70.891 -96.228)" fill="#222"/>
        <path id="パス_8371" data-name="パス 8371" d="M178.254,159.6a9.339,9.339,0,0,1-2.914,5.639l3.035,3.918a14.308,14.308,0,0,0,4.8-9.557Z" transform="translate(-78.457 -102.087)" fill="#fff"/>
        <path id="パス_8372" data-name="パス 8372" d="M309.59,156.91V179.1h3.51V156.91Z" transform="translate(-111.689 -101.428)" fill="#e62719"/>
        <path id="パス_8373" data-name="パス 8373" d="M313.59,153.21h-6.3a1.418,1.418,0,0,0-1.4,1.4v24.987a1.4,1.4,0,0,0,1.4,1.4h6.3a1.418,1.418,0,0,0,1.4-1.4V154.614a1.418,1.418,0,0,0-1.4-1.4Zm-1.4,24.986h-3.51V156h3.51Z" transform="translate(-110.788 -100.521)" fill="#222"/>
        <path id="パス_8374" data-name="パス 8374" d="M294.41,181.81h3.51V167.95h-3.51Z" transform="translate(-107.931 -104.134)" fill="#fff"/>
        <path id="パス_8375" data-name="パス 8375" d="M298.41,164.24h-6.3a1.418,1.418,0,0,0-1.4,1.4V182.3a1.4,1.4,0,0,0,1.4,1.4h6.3a1.418,1.418,0,0,0,1.4-1.4v-16.66a1.418,1.418,0,0,0-1.4-1.4Zm-1.4,2.793v13.86H293.5v-13.86Z" transform="translate(-107.029 -103.225)" fill="#222"/>
        <path id="パス_8376" data-name="パス 8376" d="M279.24,181.81h3.51V167.95h-3.51Z" transform="translate(-104.175 -104.134)" fill="#fff"/>
        <path id="パス_8377" data-name="パス 8377" d="M283.24,164.24h-6.3a1.418,1.418,0,0,0-1.4,1.4V182.3a1.4,1.4,0,0,0,1.4,1.4h6.3a1.418,1.418,0,0,0,1.4-1.4v-16.66a1.418,1.418,0,0,0-1.4-1.4Zm-1.4,2.793v13.86h-3.51v-13.86Z" transform="translate(-103.272 -103.225)" fill="#222"/>
        <path id="パス_8378" data-name="パス 8378" d="M264.06,183.611h3.51V175.3h-3.51Z" transform="translate(-100.417 -105.936)" fill="#fff"/>
        <path id="パス_8379" data-name="パス 8379" d="M268.06,171.59h-6.3a1.418,1.418,0,0,0-1.4,1.4v11.1a1.4,1.4,0,0,0,1.4,1.4h6.3a1.418,1.418,0,0,0,1.4-1.4v-11.1a1.418,1.418,0,0,0-1.4-1.4Zm-1.4,2.793v8.311h-3.51v-8.311Z" transform="translate(-99.513 -105.026)" fill="#222"/>
        <path id="パス_8380" data-name="パス 8380" d="M276.27,152c-1.751,0-3.5-.038-5.246,0-1.344.03-2.023,1.012-2.921,1.917l-3.9,3.9h-5.526a1.4,1.4,0,0,0,0,2.793h4.008c1.125,0,2.363.242,3.246-.574,1.812-1.668,3.5-3.48,5.239-5.231,5.148.015,10.334.219,15.475,0,1.525-.068,2.869-2.076,3.857-3.065l7.647-7.647,5.246-5.246a1.4,1.4,0,0,0-1.978-1.978L286.287,152H276.27Z" transform="translate(-98.861 -96.414)" fill="#222"/>
        <path id="パス_8381" data-name="パス 8381" d="M217.743,189.38H150.922a1.4,1.4,0,0,0,0,2.793h66.822A1.4,1.4,0,0,0,217.743,189.38Z" transform="translate(-72.164 -109.387)" fill="#222"/>
        <path id="パス_8382" data-name="パス 8382" d="M174.212,111.4H265.6c4.2,0,8.515.3,12.7,0h.181a1.4,1.4,0,0,0,0-2.793H187.1c-4.2,0-8.515-.3-12.7,0h-.181a1.4,1.4,0,0,0,0,2.793Z" transform="translate(-78.064 -89.555)" fill="#222"/>
        <path id="パス_8383" data-name="パス 8383" d="M217.743,197.85H150.922a1.4,1.4,0,0,0,0,2.793h66.822A1.4,1.4,0,0,0,217.743,197.85Z" transform="translate(-72.164 -111.463)" fill="#222"/>
        <path id="パス_8384" data-name="パス 8384" d="M264.011,300.05H151.172c-.362.664-.725,1.329-1.087,2q-4.427,8.13-8.855,16.253c1.14.015,2.295.113,3.367.113H278.044l-.317-.589q-4.824-8.855-9.647-17.7c-1.314.121-2.8-.076-4.061-.076Zm-109.3,13.384a1.4,1.4,0,0,1,0-2.793A1.4,1.4,0,0,1,154.712,313.434Zm3.555-6.047a1.4,1.4,0,0,1,0-2.793A1.4,1.4,0,0,1,158.268,307.387Zm3.8,6.047a1.4,1.4,0,0,1,0-2.793A1.4,1.4,0,0,1,162.065,313.434Zm3.133-6.047a1.4,1.4,0,0,1,0-2.793A1.4,1.4,0,0,1,165.2,307.387Zm4.22,6.047a1.4,1.4,0,0,1,0-2.793A1.4,1.4,0,0,1,169.417,313.434Zm2.7-6.047a1.4,1.4,0,0,1,0-2.793A1.4,1.4,0,0,1,172.12,307.387Zm4.65,6.047a1.4,1.4,0,0,1,0-2.793A1.4,1.4,0,0,1,176.77,313.434Zm2.28-6.047a1.4,1.4,0,0,1,0-2.793A1.4,1.4,0,0,1,179.049,307.387Zm5.073,6.047a1.4,1.4,0,0,1,0-2.793A1.4,1.4,0,0,1,184.122,313.434Zm1.849-6.047a1.4,1.4,0,0,1,0-2.793A1.4,1.4,0,0,1,185.972,307.387Zm5.5,6.047a1.4,1.4,0,0,1,0-2.793A1.4,1.4,0,0,1,191.475,313.434Zm1.419-6.047a1.4,1.4,0,0,1,0-2.793A1.4,1.4,0,0,1,192.894,307.387Zm5.926,6.047a1.4,1.4,0,0,1,0-2.793A1.4,1.4,0,0,1,198.82,313.434Zm1-6.047a1.4,1.4,0,0,1,0-2.793A1.4,1.4,0,0,1,199.816,307.387Zm6.356,6.047a1.4,1.4,0,0,1,0-2.793A1.4,1.4,0,0,1,206.172,313.434Zm.566-6.047a1.4,1.4,0,0,1,0-2.793A1.4,1.4,0,0,1,206.738,307.387Zm6.779,6.047a1.4,1.4,0,0,1,0-2.793A1.4,1.4,0,0,1,213.517,313.434Zm.143-6.047a1.4,1.4,0,0,1,0-2.793A1.4,1.4,0,0,1,213.661,307.387Zm6.922-2.793a1.4,1.4,0,0,1,0,2.793A1.4,1.4,0,0,1,220.583,304.594Zm.287,8.84a1.4,1.4,0,0,1,0-2.793A1.4,1.4,0,0,1,220.87,313.434Zm6.635-8.84a1.4,1.4,0,0,1,0,2.793A1.4,1.4,0,0,1,227.505,304.594Zm.71,8.84a1.4,1.4,0,0,1,0-2.793A1.4,1.4,0,0,1,228.215,313.434Zm6.213-8.84a1.4,1.4,0,0,1,0,2.793A1.4,1.4,0,0,1,234.427,304.594Zm1.14,8.84a1.4,1.4,0,0,1,0-2.793A1.4,1.4,0,0,1,235.567,313.434Zm5.782-8.84a1.4,1.4,0,0,1,0,2.793A1.4,1.4,0,0,1,241.35,304.594Zm1.563,8.84a1.4,1.4,0,0,1,0-2.793A1.4,1.4,0,0,1,242.912,313.434Zm5.36-8.84a1.4,1.4,0,0,1,0,2.793A1.4,1.4,0,0,1,248.272,304.594Zm1.993,8.84a1.4,1.4,0,0,1,0-2.793A1.4,1.4,0,0,1,250.265,313.434Zm4.929-6.047a1.4,1.4,0,0,1,0-2.793A1.4,1.4,0,0,1,255.194,307.387Zm2.416,6.047a1.4,1.4,0,0,1,0-2.793A1.4,1.4,0,0,1,257.61,313.434Zm4.507-6.047a1.4,1.4,0,0,1,0-2.793A1.4,1.4,0,0,1,262.116,307.387Zm2.846,6.047a1.4,1.4,0,0,1,0-2.793A1.4,1.4,0,0,1,264.962,313.434Z" transform="translate(-70.282 -136.514)" fill="#fff"/>
        <path id="パス_8385" data-name="パス 8385" d="M280.361,318.163q-5.039-9.24-10.07-18.472c-.491-.9-.974-1.789-1.464-2.687a1.4,1.4,0,0,0-1.208-.694H163.7c-4.778,0-9.617-.211-14.4,0h-.211a1.4,1.4,0,0,0-1.208.694q-5.039,9.24-10.07,18.472c-.491.9-.974,1.789-1.464,2.687a1.413,1.413,0,0,0,1.208,2.106H261.738c5.707,0,11.467.227,17.173,0h.234a1.274,1.274,0,0,0,1.253-.845,1.3,1.3,0,0,0-.045-1.253Zm-3.563-.694H143.35c-1.072,0-2.227-.1-3.367-.113q4.427-8.13,8.855-16.253c.362-.664.725-1.329,1.087-2H262.764c1.268,0,2.755.2,4.061.076q4.824,8.855,9.647,17.7l.317.589Z" transform="translate(-69.335 -135.575)" fill="#222"/>
        <path id="パス_8386" data-name="パス 8386" d="M364.776,310.29q-.917-4.96-1.834-9.927c-.393-2.136-.574-3.956-2.612-5.209-2.8-1.729-6.522-2-9.715-1.623-2.416.279-6.092,1.117-7.171,3.646a11.489,11.489,0,0,0-.468,2.506c-.287,1.54-.566,3.072-.853,4.612-.468,2.514-.929,5.035-1.4,7.549-.423,7.254,9.353,9.021,14.818,8.3,2.884-.385,6-1.457,7.911-3.759a6.671,6.671,0,0,0,1.313-6.084Zm-10.5-10.229a1.4,1.4,0,0,1-2.793,0v-2.687a1.4,1.4,0,0,1,2.793,0Z" transform="translate(-119.472 -134.88)" fill="#fff"/>
        <path id="パス_8387" data-name="パス 8387" d="M366.409,307.815c-.37-1.993-.732-3.978-1.1-5.971-.279-1.495-.566-3-.83-4.5-.015-.076-.03-.159-.045-.234,0-.06-.106-.755-.143-.906a6.244,6.244,0,0,0-.966-2.1c-2.182-3.1-6.379-4.129-9.949-4.363-3.608-.234-7.821.3-10.84,2.438a6.7,6.7,0,0,0-2.929,4.242c-.045.249-.053.506-.091.755.045-.34.03-.136.023-.06-.03.189-.068.37-.106.559-.151.808-.294,1.608-.445,2.416q-.951,5.175-1.91,10.349c-.008.06-.015.121-.023.174a1.528,1.528,0,0,0-.03.2c-.574,7.836,8.092,11.233,14.584,11.361,6.545.136,15.875-3.3,15.332-11.361a26.881,26.881,0,0,0-.536-3ZM354.64,319.237c-5.473.725-15.249-1.034-14.818-8.3.468-2.514.928-5.035,1.4-7.549.287-1.54.566-3.072.853-4.612a12.556,12.556,0,0,1,.468-2.506c1.079-2.521,4.756-3.359,7.171-3.646,3.2-.37,6.915-.106,9.715,1.623,2.038,1.253,2.219,3.072,2.612,5.209q.917,4.96,1.834,9.927a6.671,6.671,0,0,1-1.313,6.084c-1.917,2.3-5.028,3.382-7.911,3.759Z" transform="translate(-118.56 -133.976)" fill="#222"/>
        <path id="パス_8388" data-name="パス 8388" d="M354.98,298.232v2.687a1.4,1.4,0,0,0,2.793,0v-2.687A1.4,1.4,0,0,0,354.98,298.232Z" transform="translate(-122.969 -135.738)" fill="#222"/>
        <path id="パス_8389" data-name="パス 8389" d="M53.176,264.576a4.647,4.647,0,0,1,4.25-4.552v-2.6a7.156,7.156,0,0,0,0,14.313v-2.6A4.635,4.635,0,0,1,53.176,264.576Z" transform="translate(-47.477 -126.065)" fill="#fff"/>
        <path id="パス_8390" data-name="パス 8390" d="M56.519,270.823a7.156,7.156,0,1,1,0-14.312,1.437,1.437,0,0,0,.732-2.619,3.109,3.109,0,0,0-.657.513,3.109,3.109,0,0,1,.657-.513,1.3,1.3,0,0,0-.732-.181,9.949,9.949,0,0,0,0,19.9,1.277,1.277,0,0,0,.838-.257,4.764,4.764,0,0,1-1.329-.506,4.542,4.542,0,0,0,1.329.506,1.441,1.441,0,0,0-.838-2.544Z" transform="translate(-46.57 -125.155)" fill="#222"/>
        <path id="パス_8391" data-name="パス 8391" d="M59.628,268.108V264.53A1.79,1.79,0,0,0,59.628,268.108Z" transform="translate(-49.347 -127.808)" fill="#fff"/>
        <path id="パス_8392" data-name="パス 8392" d="M58.7,267.2a1.79,1.79,0,0,1,0-3.578,1.452,1.452,0,0,0,1.283-1.9c-.46-.008-.913.023-1.268.023.362,0,.808-.03,1.268-.023a1.182,1.182,0,0,0-1.283-.891c-.113,0-.226.023-.332.03a4.563,4.563,0,0,0,0,9.1,2.472,2.472,0,0,0,.332.03,1.211,1.211,0,0,0,1.329-1.072,4.179,4.179,0,0,1-1.593-.755,4.357,4.357,0,0,0,1.593.755A1.433,1.433,0,0,0,58.7,267.2Z" transform="translate(-48.421 -126.9)" fill="#222"/>
        <path id="パス_8393" data-name="パス 8393" d="M163.362,306.06a1.4,1.4,0,0,0,0,2.793A1.4,1.4,0,0,0,163.362,306.06Z" transform="translate(-75.15 -137.988)" fill="#222"/>
        <path id="パス_8394" data-name="パス 8394" d="M172.532,306.06a1.4,1.4,0,0,0,0,2.793A1.4,1.4,0,0,0,172.532,306.06Z" transform="translate(-77.421 -137.988)" fill="#222"/>
        <path id="パス_8395" data-name="パス 8395" d="M181.7,306.06a1.4,1.4,0,0,0,0,2.793A1.4,1.4,0,0,0,181.7,306.06Z" transform="translate(-79.691 -137.988)" fill="#222"/>
        <path id="パス_8396" data-name="パス 8396" d="M190.882,306.06a1.4,1.4,0,0,0,0,2.793A1.4,1.4,0,0,0,190.882,306.06Z" transform="translate(-81.963 -137.988)" fill="#222"/>
        <path id="パス_8397" data-name="パス 8397" d="M200.052,306.06a1.4,1.4,0,0,0,0,2.793A1.4,1.4,0,0,0,200.052,306.06Z" transform="translate(-84.234 -137.988)" fill="#222"/>
        <path id="パス_8398" data-name="パス 8398" d="M209.222,306.06a1.4,1.4,0,0,0,0,2.793A1.4,1.4,0,0,0,209.222,306.06Z" transform="translate(-86.504 -137.988)" fill="#222"/>
        <path id="パス_8399" data-name="パス 8399" d="M218.392,306.06a1.4,1.4,0,0,0,0,2.793A1.4,1.4,0,0,0,218.392,306.06Z" transform="translate(-88.774 -137.988)" fill="#222"/>
        <path id="パス_8400" data-name="パス 8400" d="M227.562,306.06a1.4,1.4,0,0,0,0,2.793A1.4,1.4,0,0,0,227.562,306.06Z" transform="translate(-91.045 -137.988)" fill="#222"/>
        <path id="パス_8401" data-name="パス 8401" d="M236.732,306.06a1.4,1.4,0,0,0,0,2.793A1.4,1.4,0,0,0,236.732,306.06Z" transform="translate(-93.315 -137.988)" fill="#222"/>
        <path id="パス_8402" data-name="パス 8402" d="M245.9,308.863a1.4,1.4,0,0,0,0-2.793A1.4,1.4,0,0,0,245.9,308.863Z" transform="translate(-95.584 -137.99)" fill="#222"/>
        <path id="パス_8403" data-name="パス 8403" d="M255.072,306.06a1.4,1.4,0,0,0,0,2.793A1.4,1.4,0,0,0,255.072,306.06Z" transform="translate(-97.855 -137.988)" fill="#222"/>
        <path id="パス_8404" data-name="パス 8404" d="M264.241,306.06a1.4,1.4,0,0,0,0,2.793A1.4,1.4,0,0,0,264.241,306.06Z" transform="translate(-100.125 -137.988)" fill="#222"/>
        <path id="パス_8405" data-name="パス 8405" d="M273.412,306.06a1.4,1.4,0,0,0,0,2.793A1.4,1.4,0,0,0,273.412,306.06Z" transform="translate(-102.396 -137.988)" fill="#222"/>
        <path id="パス_8406" data-name="パス 8406" d="M282.582,306.06a1.4,1.4,0,0,0,0,2.793A1.4,1.4,0,0,0,282.582,306.06Z" transform="translate(-104.666 -137.988)" fill="#222"/>
        <path id="パス_8407" data-name="パス 8407" d="M291.752,306.06a1.4,1.4,0,0,0,0,2.793A1.4,1.4,0,0,0,291.752,306.06Z" transform="translate(-106.936 -137.988)" fill="#222"/>
        <path id="パス_8408" data-name="パス 8408" d="M300.932,306.06a1.4,1.4,0,0,0,0,2.793A1.4,1.4,0,0,0,300.932,306.06Z" transform="translate(-109.209 -137.988)" fill="#222"/>
        <path id="パス_8409" data-name="パス 8409" d="M158.652,314.07a1.4,1.4,0,0,0,0,2.793A1.4,1.4,0,0,0,158.652,314.07Z" transform="translate(-73.984 -139.951)" fill="#222"/>
        <path id="パス_8410" data-name="パス 8410" d="M168.392,314.07a1.4,1.4,0,0,0,0,2.793A1.4,1.4,0,0,0,168.392,314.07Z" transform="translate(-76.396 -139.951)" fill="#222"/>
        <path id="パス_8411" data-name="パス 8411" d="M178.122,314.07a1.4,1.4,0,0,0,0,2.793A1.4,1.4,0,0,0,178.122,314.07Z" transform="translate(-78.804 -139.951)" fill="#222"/>
        <path id="パス_8412" data-name="パス 8412" d="M187.862,314.07a1.4,1.4,0,0,0,0,2.793A1.4,1.4,0,0,0,187.862,314.07Z" transform="translate(-81.216 -139.951)" fill="#222"/>
        <path id="パス_8413" data-name="パス 8413" d="M197.6,314.07a1.4,1.4,0,0,0,0,2.793A1.4,1.4,0,0,0,197.6,314.07Z" transform="translate(-83.627 -139.951)" fill="#222"/>
        <path id="パス_8414" data-name="パス 8414" d="M207.332,314.07a1.4,1.4,0,0,0,0,2.793A1.4,1.4,0,0,0,207.332,314.07Z" transform="translate(-86.036 -139.951)" fill="#222"/>
        <path id="パス_8415" data-name="パス 8415" d="M217.072,314.07a1.4,1.4,0,0,0,0,2.793A1.4,1.4,0,0,0,217.072,314.07Z" transform="translate(-88.447 -139.951)" fill="#222"/>
        <path id="パス_8416" data-name="パス 8416" d="M226.812,314.07a1.4,1.4,0,0,0,0,2.793A1.4,1.4,0,0,0,226.812,314.07Z" transform="translate(-90.859 -139.951)" fill="#222"/>
        <path id="パス_8417" data-name="パス 8417" d="M236.542,314.07a1.4,1.4,0,0,0,0,2.793A1.4,1.4,0,0,0,236.542,314.07Z" transform="translate(-93.268 -139.951)" fill="#222"/>
        <path id="パス_8418" data-name="パス 8418" d="M246.282,314.07a1.4,1.4,0,0,0,0,2.793A1.4,1.4,0,0,0,246.282,314.07Z" transform="translate(-95.679 -139.951)" fill="#222"/>
        <path id="パス_8419" data-name="パス 8419" d="M256.012,314.07a1.4,1.4,0,0,0,0,2.793A1.4,1.4,0,0,0,256.012,314.07Z" transform="translate(-98.088 -139.951)" fill="#222"/>
        <path id="パス_8420" data-name="パス 8420" d="M265.752,314.07a1.4,1.4,0,0,0,0,2.793A1.4,1.4,0,0,0,265.752,314.07Z" transform="translate(-100.499 -139.951)" fill="#222"/>
        <path id="パス_8421" data-name="パス 8421" d="M275.492,314.07a1.4,1.4,0,0,0,0,2.793A1.4,1.4,0,0,0,275.492,314.07Z" transform="translate(-102.911 -139.951)" fill="#222"/>
        <path id="パス_8422" data-name="パス 8422" d="M285.222,314.07a1.4,1.4,0,0,0,0,2.793A1.4,1.4,0,0,0,285.222,314.07Z" transform="translate(-105.32 -139.951)" fill="#222"/>
        <path id="パス_8423" data-name="パス 8423" d="M294.962,314.07a1.4,1.4,0,0,0,0,2.793A1.4,1.4,0,0,0,294.962,314.07Z" transform="translate(-107.731 -139.951)" fill="#222"/>
        <path id="パス_8424" data-name="パス 8424" d="M304.692,314.07a1.4,1.4,0,0,0,0,2.793A1.4,1.4,0,0,0,304.692,314.07Z" transform="translate(-110.14 -139.951)" fill="#222"/>
        <path id="パス_8425" data-name="パス 8425" d="M89.627,247.426a81.61,81.61,0,0,0-10.78-.581c-2.046.053-4.084.181-6.122.37-1.419.136-3.254.015-4.461.921a3.8,3.8,0,0,0-1.291,3.608c.2,2.853.423,5.714.634,8.568q.408,5.582.823,11.165c.181,2.431-.121,5.639,2.619,6.771a8.4,8.4,0,0,0,3.163.279H87.77c4.159-.151,3.888-4.393,4.107-7.368L92.8,258.59c.181-2.416.408-4.831.536-7.254.128-2.446-1.434-3.669-3.706-3.91Zm-1.072,4.944a30.582,30.582,0,0,1-17.181.113,1.4,1.4,0,0,1,.74-2.695,27.756,27.756,0,0,0,15.694-.113c1.729-.521,2.461,2.174.74,2.695Z" transform="translate(-51.566 -123.469)" fill="#fff"/>
        <path id="パス_8426" data-name="パス 8426" d="M94.235,246.552c-1.925-2.921-5.465-2.914-8.613-3.193a74.8,74.8,0,0,0-12.2,0c-3.178.249-6.907.076-9,2.906a7.429,7.429,0,0,0-1.178,4.839,2.965,2.965,0,0,1,1.064.7,2.964,2.964,0,0,0-1.064-.7c.045,1.283.234,2.574.317,3.782.068.928.136,1.85.2,2.778a1.6,1.6,0,0,1,.823.853,1.525,1.525,0,0,0-.823-.853q.249,3.42.506,6.839a2.641,2.641,0,0,0,.317-.113c-.106.045-.211.076-.317.113.068.929.136,1.865.2,2.793.083,1.11.121,2.242.181,3.374.551-.121,1.087-.264,1.608-.415-.521.151-1.057.294-1.608.415a33.986,33.986,0,0,0,.43,4.325,6.728,6.728,0,0,0,6.537,5.412c1.359.045,2.733,0,4.091,0H86.844a1.074,1.074,0,0,0,.219-.015,6.724,6.724,0,0,0,6.22-5.028,17.546,17.546,0,0,0,.294-2.816q.419-5.752.845-11.512.374-5.016.74-10.025a6.918,6.918,0,0,0-.936-4.469Zm-1.819,3.873c-.128,2.416-.355,4.839-.536,7.254l-.929,12.569c-.219,2.974.053,7.217-4.107,7.368H73.287a8.4,8.4,0,0,1-3.163-.279c-2.74-1.132-2.438-4.341-2.619-6.771q-.408-5.582-.823-11.165c-.211-2.853-.43-5.714-.634-8.568a3.8,3.8,0,0,1,1.291-3.608c1.208-.906,3.035-.793,4.461-.921,2.038-.2,4.076-.325,6.122-.37a81.61,81.61,0,0,1,10.78.581c2.272.242,3.835,1.465,3.706,3.91Z" transform="translate(-50.655 -122.557)" fill="#222"/>
        <path id="パス_8427" data-name="パス 8427" d="M88.922,250.568a27.756,27.756,0,0,1-15.694.113,1.4,1.4,0,0,0-.74,2.695,30.581,30.581,0,0,0,17.181-.113c1.721-.521.989-3.216-.74-2.695Z" transform="translate(-52.681 -124.369)" fill="#222"/>
        <path id="パス_8428" data-name="パス 8428" d="M147.591,111.243a1.4,1.4,0,0,0,0-2.793A1.4,1.4,0,0,0,147.591,111.243Z" transform="translate(-71.245 -89.549)" fill="#4b5ca3"/>
        <path id="パス_8429" data-name="パス 8429" d="M156.761,111.243a1.4,1.4,0,0,0,0-2.793A1.4,1.4,0,0,0,156.761,111.243Z" transform="translate(-73.515 -89.549)" fill="#4b5ca3"/>
        <path id="パス_8430" data-name="パス 8430" d="M165.931,111.243a1.4,1.4,0,0,0,0-2.793A1.4,1.4,0,0,0,165.931,111.243Z" transform="translate(-75.786 -89.549)" fill="#4b5ca3"/>
      </g>
      <g id="グループ_3359" data-name="グループ 3359" transform="translate(50.706 2.722)">
        <path id="パス_8431" data-name="パス 8431" d="M75.251,67.142l6.077-5.714q2.921-2.752,5.85-5.5c.34-.317.7-.732,1.087-1.155A23.9,23.9,0,0,0,93,59.118c-.211.174-.415.34-.589.5L81.018,70.328a33.632,33.632,0,0,1-3.706,3.488c-2.159,1.464-3.42-.362-4.809-1.744C71,70.17,74.247,68.086,75.251,67.142Z" transform="translate(-68.692 -16.151)" fill="#fff"/>
        <path id="パス_8432" data-name="パス 8432" d="M68.622,61.562a2.993,2.993,0,0,0,.619.74c2.627,2.582,5.586,4.763,9.059,1.774,1.789-1.54,3.457-3.246,5.171-4.861,3.812-3.586,7.888-7.035,11.565-10.78A23.646,23.646,0,1,0,115.492,5.8a24.007,24.007,0,0,0-26.791,4.7,24.018,24.018,0,0,0-3.578,28.9c-3.352,3.027-6.552,6.265-9.836,9.353-3.472,3.269-10.3,7.549-6.673,12.81ZM87.184,35.889a20.212,20.212,0,1,1,19.831,11.489A20.432,20.432,0,0,1,87.177,35.889ZM74.14,54.61,80.217,48.9q2.921-2.752,5.85-5.5c.34-.317.7-.732,1.087-1.155a23.9,23.9,0,0,0,4.733,4.348c-.211.174-.415.34-.589.5L79.907,57.8A33.631,33.631,0,0,1,76.2,61.283c-2.159,1.464-3.42-.362-4.809-1.744C69.89,57.637,73.136,55.553,74.14,54.61Z" transform="translate(-67.581 -3.61)" fill="#222"/>
        <path id="パス_8433" data-name="パス 8433" d="M112.769,48.5a20.211,20.211,0,0,0,9.889-36.8,20.218,20.218,0,0,0-29.72,25.311A20.432,20.432,0,0,0,112.777,48.5ZM98.14,41.415a18.787,18.787,0,0,1-3.706-20.782,18.463,18.463,0,1,1,27.274,22.9C114.385,48.677,104.5,47.462,98.14,41.415Z" transform="translate(-73.327 -4.736)" fill="#fff"/>
        <path id="パス_8434" data-name="パス 8434" d="M98.71,41.968c6.356,6.047,16.245,7.269,23.567,2.121A18.458,18.458,0,1,0,98.71,41.968ZM96.853,29.014A15.552,15.552,0,0,1,101.171,18.3,15.568,15.568,0,0,1,113.4,14.06,14.734,14.734,0,0,1,126.671,27.9a15.008,15.008,0,0,1-4.3,11.61c-.37.362-.747.71-1.14,1.027a14.942,14.942,0,0,1-7.383,3.163,15.531,15.531,0,0,1-12.682-4.19,15.655,15.655,0,0,1-4.318-10.5Z" transform="translate(-73.898 -5.289)" fill="#222"/>
        <path id="パス_8435" data-name="パス 8435" d="M110.647,32.254l7.217,7.217a1.736,1.736,0,0,1-2.453,2.453l-7.217-7.217A1.736,1.736,0,0,1,110.647,32.254Z" transform="translate(-77.41 -10.506)" fill="#e62719"/>
      </g>
      <g id="グループ_3360" data-name="グループ 3360" transform="translate(279.785 148.816)">
        <path id="パス_8436" data-name="パス 8436" d="M379.057,218.855q17.121-3.612,34.234-7.232c-.325-1.532-.649-3.057-.966-4.59-1.291-4.19-7.466-1.57-10.425-.951q-7.213,1.529-14.426,3.05c-2.5.528-8.606.74-9.308,3.8-.4,1.751.476,3.933.838,5.654.015.083.038.174.053.257Zm9.647-8.175,12.222-2.582c2.438-.513,3.472,3.231,1.034,3.744l-12.221,2.582C387.3,214.938,386.267,211.193,388.7,210.68Z" transform="translate(-374.127 -200.981)" fill="#fff"/>
        <path id="パス_8437" data-name="パス 8437" d="M375.069,223.579q4.291,20.3,8.575,40.6c.506,2.408.717,5.163,2.491,7.043,1.895,2.016,4.378,2.385,6.968,1.91,4.612-.83,9.194-1.94,13.777-2.906s9.225-1.789,13.776-2.906a7.1,7.1,0,0,0,5.428-4.7c.762-2.446-.174-5.1-.679-7.5q-4.292-20.3-8.576-40.6h0q-1.03-4.858-2.053-9.723a2.451,2.451,0,0,0-.151-.453c-2.016-5.677-7.239-4.861-12.025-3.85q-8.73,1.846-17.453,3.684c-3.85.815-9.323.989-11.467,4.854-2.182,3.933.521,10.5,1.374,14.547h0Zm46.138,39.45a8.883,8.883,0,0,1-2.967.845q-6.194,1.314-12.388,2.619l-12.229,2.582c-1.238.264-2.589.755-3.82.136-1.321-.672-1.781-2.4-2.068-4.031q17.189-3.623,34.37-7.254c.46,1.865.785,3.971-.9,5.111Zm.038-8.885q-17.121,3.612-34.234,7.232-4.212-19.963-8.432-39.933,17.121-3.612,34.234-7.232Q417.025,234.174,421.245,254.144Zm-44.357-42.409c.694-3.065,6.809-3.276,9.308-3.8q7.213-1.529,14.426-3.05c2.959-.627,9.134-3.238,10.425.951.325,1.532.649,3.057.966,4.59q-17.121,3.612-34.234,7.232c-.015-.083-.038-.174-.053-.257-.362-1.714-1.238-3.9-.838-5.654Z" transform="translate(-372.848 -199.772)" fill="#222"/>
        <path id="パス_8438" data-name="パス 8438" d="M388.872,266.055q17.121-3.612,34.234-7.232-4.212-19.963-8.432-39.933-17.121,3.612-34.234,7.232,4.212,19.963,8.432,39.933Z" transform="translate(-374.709 -204.458)" fill="#fff23f"/>
        <path id="パス_8439" data-name="パス 8439" d="M394.638,288.093c1.231.619,2.582.128,3.82-.136l12.229-2.582q6.194-1.314,12.388-2.619a8.883,8.883,0,0,0,2.967-.845c1.683-1.14,1.351-3.238.9-5.111q-17.189,3.623-34.37,7.254c.287,1.623.747,3.359,2.068,4.031Z" transform="translate(-377.682 -218.653)" fill="#fff"/>
        <path id="パス_8440" data-name="パス 8440" d="M392.741,215.51l12.221-2.582c2.446-.513,1.412-4.258-1.034-3.744l-12.221,2.582C389.261,212.279,390.295,216.024,392.741,215.51Z" transform="translate(-377.128 -202.067)" fill="#222"/>
      </g>
      <g id="グループ_3361" data-name="グループ 3361" transform="translate(0 102.236)">
        <path id="パス_8441" data-name="パス 8441" d="M97.544,140.8H39.871a18.327,18.327,0,0,0-3.344,0c-1.585.309-1.638,1.9-1.895,3.231-.385,1.963-.77,3.918-1.155,5.88q-2.989,15.23-5.986,30.452a1.144,1.144,0,0,1-.045.151H83.782a1.443,1.443,0,0,1,0,2.884H25.8a1.509,1.509,0,0,1-.634-.136q-5.56,2.5-11.127,5.012-3.6,1.619-7.209,3.246H74.686c.649,0,1.3.008,1.948-.015,1.283-.045,1.313.113,2.121-.34.695-.393,1.374-.808,2.053-1.215q4.892-2.887,9.776-5.782c-1.14-.468-.906-2.619.657-2.8,1.495-.174,1.759-4.137,1.955-5.148q.883-4.529,1.774-9.066Q97,156.781,99.031,146.409c.234-1.208,1.132-3.367.9-4.59-.226-1.185-1.532-1.012-2.4-1.012Zm-.332,3.6q-3.34,16.373-6.688,32.754a1.463,1.463,0,0,1-1.389,1.057h-56.9a1.461,1.461,0,0,1-1.389-1.827q3.114-16.373,6.235-32.754a1.456,1.456,0,0,1,1.389-1.057H95.815A1.457,1.457,0,0,1,97.2,144.4Z" transform="translate(-1.671 -137.784)" fill="#fff"/>
        <path id="パス_8442" data-name="パス 8442" d="M90.917,136.974H36.1a6.146,6.146,0,0,0-3.7.679c-1.759,1.2-1.955,3.314-2.333,5.224q-3.51,17.891-7.028,35.774a1.519,1.519,0,0,0,.075.853,1.606,1.606,0,0,0-.679.136q-5.22,2.344-10.432,4.7L4.71,187.619a27.041,27.041,0,0,0-3.563,1.608,2.26,2.26,0,0,0,1.057,4.22,13.878,13.878,0,0,0,1.585,0H73.894a18.478,18.478,0,0,0,2.959-.158,3.61,3.61,0,0,0,1.917-.732c4.046-2.438,8.13-4.809,12.191-7.209a1.44,1.44,0,0,0,.068-2.416c1.759-.725,2.385-2.348,2.786-4.378.43-2.2.861-4.386,1.291-6.583q2-10.247,4.016-20.5.781-4.008,1.57-8.009c.332-1.683.8-3.223-.332-4.778-1.865-2.574-6.7-1.706-9.444-1.706Zm6.454,8.485Q95.344,155.831,93.31,166.2q-.883,4.529-1.774,9.066c-.2,1.012-.46,4.975-1.955,5.148-1.563.181-1.8,2.333-.657,2.8q-4.892,2.887-9.776,5.782c-.687.408-1.366.83-2.053,1.215-.808.453-.838.3-2.121.34-.649.023-1.3.015-1.948.015H5.155q3.6-1.619,7.209-3.246,5.56-2.5,11.127-5.012a1.4,1.4,0,0,0,.634.136H82.107a1.443,1.443,0,0,0,0-2.884H25.771a.883.883,0,0,0,.045-.151q2.989-15.23,5.986-30.452c.385-1.963.77-3.918,1.155-5.881.264-1.329.309-2.914,1.895-3.231a18.328,18.328,0,0,1,3.344,0H95.869c.868,0,2.174-.174,2.4,1.012.234,1.223-.664,3.389-.9,4.59Z" transform="translate(0.004 -136.833)" fill="#222"/>
        <path id="パス_8443" data-name="パス 8443" d="M48.482,147q-2.842,14.935-5.692,29.871H96.771q3.046-14.935,6.1-29.871Z" transform="translate(-10.486 -139.325)" fill="#00aeeb"/>
        <path id="パス_8444" data-name="パス 8444" d="M103.615,143.18H46.274a1.456,1.456,0,0,0-1.389,1.057q-3.114,16.373-6.235,32.754a1.464,1.464,0,0,0,1.389,1.827H96.927a1.463,1.463,0,0,0,1.389-1.057q3.34-16.373,6.688-32.754A1.46,1.46,0,0,0,103.615,143.18Zm-7.858,32.754H41.768Q44.61,161,47.459,146.064h54.389Q98.8,161,95.749,175.934Z" transform="translate(-9.464 -138.389)" fill="#222"/>
      </g>
      <g id="グループ_3362" data-name="グループ 3362" transform="translate(150.784)">
        <path id="パス_8445" data-name="パス 8445" d="M265.783,24.013a1.444,1.444,0,0,1,.234-.815,4.957,4.957,0,0,1,.219-.611L263,4.22l-5.926,1.042q-25.851,4.563-51.7,9.119,2.219,12.591,4.439,25.175l5.926-1.042q25.024-4.416,50.041-8.825V24.02Zm-41.8,3.555-3.087.544.5,2.7c.347,1.88-2.529,2.68-2.876.793l-.551-2.982c-1.049.189-2.1.37-3.148.559-1.88.332-2.68-2.544-.793-2.876,1.132-.2,2.265-.4,3.4-.6a.321.321,0,0,0-.015-.083c-1.042.181-2.083.37-3.125.551-1.88.332-2.68-2.544-.793-2.876.695-.121,1.4-.249,2.091-.37-.876-.687-1.744-1.381-2.619-2.068a1.506,1.506,0,0,1,0-2.114,1.542,1.542,0,0,1,2.114,0c1.012.8,2.016,1.6,3.027,2.393.7-1.14,1.4-2.272,2.1-3.412,1-1.631,3.586-.136,2.574,1.51l-1.676,2.718,1.548-.272c1.88-.332,2.68,2.544.793,2.876-1.042.181-2.076.362-3.118.551l.015.083,2.838-.5c1.88-.332,2.68,2.544.793,2.876Zm36.408-.974q-14.335,2.525-28.678,5.058a1.521,1.521,0,0,1-1.834-1.042c-.423-2.408-.853-4.816-1.276-7.224-.377-2.129-.747-4.25-1.125-6.379a1.521,1.521,0,0,1,1.042-1.834q14.335-2.525,28.678-5.058a1.7,1.7,0,0,1,.385-.023,1.223,1.223,0,0,1,1.449,1.064c.377,2.129.747,4.25,1.125,6.379.423,2.408.853,4.816,1.276,7.224A1.521,1.521,0,0,1,260.393,26.595Z" transform="translate(-202.172 -1.038)" fill="#fff"/>
        <path id="パス_8446" data-name="パス 8446" d="M240.33,29.2c.249,1.434.506,2.869.755,4.3q12.874-2.276,25.749-4.544c-.249-1.434-.506-2.869-.755-4.3Q253.2,26.936,240.33,29.2Z" transform="translate(-210.742 -6.048)" fill="#fff"/>
        <path id="パス_8447" data-name="パス 8447" d="M267.32,19.439c-.377-2.129-.747-4.25-1.125-6.379A1.231,1.231,0,0,0,264.746,12a2.284,2.284,0,0,0-.385.023q-14.335,2.525-28.678,5.058a1.521,1.521,0,0,0-1.042,1.834c.377,2.129.747,4.25,1.125,6.379.423,2.408.853,4.816,1.276,7.224a1.521,1.521,0,0,0,1.834,1.042q14.335-2.525,28.678-5.058a1.521,1.521,0,0,0,1.042-1.834C268.173,24.255,267.743,21.847,267.32,19.439Zm-28.912,3.729c-.2-1.147-.408-2.3-.611-3.45q12.874-2.276,25.749-4.544c.2,1.147.408,2.3.611,3.45Q251.283,20.9,238.408,23.168Zm1.276,7.224c-.249-1.434-.506-2.869-.755-4.3q12.874-2.276,25.749-4.544c.249,1.434.506,2.869.755,4.3Q252.558,28.124,239.684,30.392Z" transform="translate(-209.341 -2.94)" fill="#222"/>
        <path id="パス_8448" data-name="パス 8448" d="M264.589,16.22Q251.714,18.5,238.84,20.764c.2,1.147.408,2.3.611,3.45q12.874-2.276,25.749-4.544C265,18.522,264.793,17.367,264.589,16.22Z" transform="translate(-210.377 -3.979)" fill="#00aeeb"/>
        <path id="パス_8449" data-name="パス 8449" d="M303.313,47.795c.1-1.178,0-2.4,0-3.593V31.1h-.128l.5-.385a1.548,1.548,0,0,1-.37-.876c-.2-2.016-4.25-2.567-5.7-2.695a12.107,12.107,0,0,0-6.8,1.132c-2.551,1.434-.853,2.921,1.17,3.639a14.352,14.352,0,0,0,7.473.34c1.88-.37,2.672,2.506.793,2.876-3.45.679-7.722.717-10.908-1.132v.242c.068.974,1.434,1.6,2.2,1.917a13.231,13.231,0,0,0,4.786.83c1.925.03,1.925,3.02,0,2.982a16.3,16.3,0,0,1-6.99-1.532v1.585c3.571.438,6.673,2.046,7.254,5.246v.008a.166.166,0,0,0,.008.06c.023.128.045.257.06.385v.038a28.7,28.7,0,0,1,.075,5.412h.076a5.492,5.492,0,0,1,.778-.861,11.8,11.8,0,0,1,5.669-2.31c.015-.075.023-.151.03-.226Z" transform="translate(-222.755 -6.642)" fill="#fff"/>
        <path id="パス_8450" data-name="パス 8450" d="M290.563,50.914c-.2-2.016-4.25-2.567-5.7-2.695a12.107,12.107,0,0,0-6.8,1.132c-2.552,1.434-.853,2.921,1.17,3.639a14.351,14.351,0,0,0,7.473.34c1.88-.37,2.672,2.506.793,2.876-3.45.679-7.722.717-10.908-1.132v.242h0c.219,2.385,5.352,2.718,6.99,2.748,1.925.038,1.925,3.02,0,2.982a16.071,16.071,0,0,1-6.952-1.525c.226.853,1.457,1.419,2.166,1.714a13.232,13.232,0,0,0,4.786.83c1.925.03,1.925,3.02,0,2.982a16.478,16.478,0,0,1-6.854-1.464c1.661,3.623,12.825,3.5,13.844-.37V54.726c0-1.012.053-1.895,0-2.665l.37-.287a1.548,1.548,0,0,1-.37-.876Z" transform="translate(-219.63 -11.807)" fill="#fff"/>
        <path id="パス_8451" data-name="パス 8451" d="M316.04,61.3c-.2-2.016-4.25-2.567-5.7-2.695a12.107,12.107,0,0,0-6.8,1.132c-2.551,1.434-.853,2.921,1.17,3.639a14.351,14.351,0,0,0,7.473.34c1.88-.37,2.672,2.506.793,2.876-3.412.672-7.624.717-10.795-1.064a4.018,4.018,0,0,0,2.091,1.51,13.232,13.232,0,0,0,4.786.83c1.925.03,1.925,3.02,0,2.982a16.861,16.861,0,0,1-6.6-1.336,2.546,2.546,0,0,0,.317.332c1.563,1.4,4.3,1.676,6.281,1.676s5.02-.279,6.469-1.857c.657-.717.513-1.359.513-2.28V62.814h-.468l.838-.657a1.548,1.548,0,0,1-.37-.876Z" transform="translate(-225.903 -14.353)" fill="#fff"/>
        <path id="パス_8452" data-name="パス 8452" d="M294.26,46.955a.589.589,0,0,1-.008-.068,1.077,1.077,0,0,0-.045-.264c-.627-3.956-5.05-5.533-9.527-5.5.113-6.047,0-12.093,0-18.14a1.457,1.457,0,0,0-.174-.672c-1.547-5.782-11.836-5.911-16.736-3.276Q266.186,10.06,264.6,1.073A1.521,1.521,0,0,0,262.767.031l-53.03,9.353c-2.514.445-5.02.883-7.534,1.329a1.521,1.521,0,0,0-1.042,1.834q2.48,14.052,4.952,28.1a1.521,1.521,0,0,0,1.834,1.042l53.03-9.353c1.253-.219,2.5-.438,3.752-.664v1.608c-4.469-.008-9.406,1.457-9.632,6.107V51.657a1.427,1.427,0,0,0,.06.4h0c.755,4.122,6.484,5.148,9.912,5.156,2.876,0,7.368-.732,9.187-3.4.015.257.03.513.06.77.445,4.446,6.371,5.579,9.964,5.586,3.608,0,9.489-1.155,9.964-5.586a74.962,74.962,0,0,0,.008-7.594v-.045ZM214.7,37.481l-5.926,1.042q-2.219-12.591-4.439-25.175,25.851-4.563,51.7-9.119l5.926-1.042,3.238,18.366a3.971,3.971,0,0,0-.219.611,1.445,1.445,0,0,0-.234.815v5.669q-25.024,4.416-50.041,8.825Zm57.371,5.458v8.485c-1.011,3.873-12.184,3.993-13.844.37a16.479,16.479,0,0,0,6.854,1.464,1.492,1.492,0,0,0,0-2.982,13.288,13.288,0,0,1-4.786-.83c-.71-.294-1.94-.853-2.167-1.714a16.071,16.071,0,0,0,6.952,1.525c1.925.038,1.925-2.952,0-2.982-1.63-.03-6.764-.362-6.99-2.748h0v-.242c3.186,1.849,7.458,1.812,10.908,1.132,1.88-.37,1.087-3.246-.793-2.876a14.351,14.351,0,0,1-7.473-.34c-2.023-.717-3.722-2.2-1.17-3.639a12.054,12.054,0,0,1,6.8-1.132c1.449.128,5.5.679,5.7,2.695a1.548,1.548,0,0,0,.37.876l-.37.287c.053.77,0,1.653,0,2.665Zm3.14,1.631h-.076a29.334,29.334,0,0,0-.076-5.412v-.038c-.015-.136-.038-.257-.06-.385a.166.166,0,0,0-.008-.06v-.008c-.581-3.2-3.684-4.809-7.254-5.246V31.834a16.281,16.281,0,0,0,6.99,1.532,1.492,1.492,0,0,0,0-2.982,13.288,13.288,0,0,1-4.786-.83c-.77-.317-2.136-.944-2.2-1.917V27.4c3.186,1.849,7.458,1.812,10.908,1.132,1.88-.37,1.087-3.246-.793-2.876a14.351,14.351,0,0,1-7.473-.34c-2.023-.717-3.722-2.2-1.17-3.639a12.054,12.054,0,0,1,6.8-1.132c1.449.128,5.5.679,5.7,2.695a1.548,1.548,0,0,0,.37.876l-.5.385h.128v13.1c0,1.185.091,2.408,0,3.593,0,.075-.023.151-.03.226a11.8,11.8,0,0,0-5.669,2.31,4.837,4.837,0,0,0-.778.861Zm16.064,3.918v4.575c0,.921.143,1.563-.513,2.28-1.449,1.578-4.492,1.857-6.469,1.857s-4.718-.279-6.281-1.676a3.18,3.18,0,0,1-.317-.332,16.86,16.86,0,0,0,6.6,1.336,1.492,1.492,0,0,0,0-2.982,13.288,13.288,0,0,1-4.786-.83,4.06,4.06,0,0,1-2.091-1.51c3.17,1.782,7.383,1.736,10.795,1.064,1.88-.37,1.087-3.246-.793-2.876a14.351,14.351,0,0,1-7.473-.34c-2.023-.717-3.722-2.2-1.17-3.639a12.054,12.054,0,0,1,6.8-1.132c1.449.128,5.5.679,5.7,2.695a1.548,1.548,0,0,0,.37.876l-.838.657h.468Z" transform="translate(-201.134 -0.004)" fill="#222"/>
      </g>
      <g id="グループ_3363" data-name="グループ 3363" transform="translate(284.927 64.542)">
        <path id="パス_8454" data-name="パス 8454" d="M396.727,95.477c-1.833-.088-4.087-.193-5.453-1.6a6.594,6.594,0,0,1-1.48-4.474c0-.08.013-.16.017-.235a1.381,1.381,0,0,0-.034-.383c-.008-.429,0-.849,0-1.253a1.262,1.262,0,0,0-2.523,0c0,.563.008,1.139.034,1.72-.1,1.535-.181,3.444-1.341,4.608-1.249,1.253-3.422,1.266-5.05,1.455a1.267,1.267,0,0,0-.336,2.477c1.863.664,4.482,1.135,5.483,3.032.967,1.842.9,4.318,1.316,6.324a1.272,1.272,0,0,0,2.435,0,37.124,37.124,0,0,1,1.186-5.76c.938-2.716,3.2-3.061,5.76-3.381a1.262,1.262,0,0,0,0-2.523Zm-7.144,2.985a8.622,8.622,0,0,0-.98,1.934,5.991,5.991,0,0,0-3.061-3.4,5.5,5.5,0,0,0,3.044-2.506,6.568,6.568,0,0,0,.9,1.169,6.446,6.446,0,0,0,1.749,1.249,5.414,5.414,0,0,0-1.657,1.552Z" transform="translate(-379.66 -86.311)" fill="#222"/>
      </g>
      <g id="グループ_3364" data-name="グループ 3364" transform="translate(273.192 98.816)">
        <path id="パス_8455" data-name="パス 8455" d="M375.383,143.308a6.1,6.1,0,0,1-.9,1.193,6,6,0,0,1-2.265,1.412,6.242,6.242,0,0,1,3.178,3.525,8.969,8.969,0,0,1,1.019-2.008,5.545,5.545,0,0,1,1.721-1.615,6.591,6.591,0,0,1-1.819-1.3,6.788,6.788,0,0,1-.936-1.215Z" transform="translate(-366.102 -134.81)" fill="#fff"/>
        <path id="パス_8456" data-name="パス 8456" d="M381.843,141.57c-1.9-.091-4.242-.2-5.661-1.661a6.853,6.853,0,0,1-1.54-4.643c0-.083.015-.166.015-.249a1.146,1.146,0,0,0-.038-.4v-1.3a1.311,1.311,0,0,0-2.619,0c0,.581.008,1.185.038,1.781-.106,1.593-.189,3.571-1.4,4.786-1.3,1.3-3.548,1.313-5.246,1.51a1.317,1.317,0,0,0-.347,2.574c1.932.687,4.658,1.178,5.692,3.148,1,1.91.936,4.484,1.366,6.56a1.322,1.322,0,0,0,2.529,0,39.068,39.068,0,0,1,1.23-5.979c.974-2.823,3.314-3.178,5.979-3.51A1.311,1.311,0,0,0,381.843,141.57Zm-7.413,3.1a8.975,8.975,0,0,0-1.019,2.008,6.477,6.477,0,0,0-.944-1.721,6.741,6.741,0,0,0-2.234-1.8,6,6,0,0,0,2.265-1.412,5.816,5.816,0,0,0,.9-1.193,6.789,6.789,0,0,0,.936,1.215,6.48,6.48,0,0,0,1.819,1.3,5.629,5.629,0,0,0-1.721,1.615Z" transform="translate(-364.115 -132.054)" fill="#222"/>
      </g>
    </g>
  </g>
</svg>
